<svg xmlns="http://www.w3.org/2000/svg" viewBox="0 0 407.6 421.14"><defs><style>.cls-1{fill:#e6e6e6;}.cls-2{fill:#f5f5f5;}.cls-3{fill:#ebebeb;}.cls-4{fill:#e0e0e0;}.cls-5{fill:#fafafa;}.cls-19,.cls-6{opacity:0.1;}.cls-7{fill:#37474f;}.cls-19,.cls-8{fill:#455a64;}.cls-17,.cls-9{fill:#27debf;}.cls-10,.cls-24{opacity:0.7;}.cls-11,.cls-16,.cls-33,.cls-34,.cls-35{fill:#fff;}.cls-12,.cls-34{opacity:0.6;}.cls-13,.cls-17,.cls-33{opacity:0.8;}.cls-14,.cls-28{opacity:0.05;}.cls-15,.cls-16{opacity:0.5;}.cls-18,.cls-25{fill:#263238;}.cls-20{fill:#ffa8a7;}.cls-21{opacity:0.15;}.cls-22{fill:#f28f8f;}.cls-23,.cls-25{opacity:0.3;}.cls-26,.cls-35{opacity:0.4;}.cls-27{opacity:0.45;}.cls-29{fill:#f0997a;}.cls-30{fill:#ffbda7;}.cls-31{fill:#9e6767;}.cls-32{opacity:0.2;}.cls-36{opacity:0.35;}.cls-37{fill:#f0f0f0;}</style></defs><g id="Layer_2" data-name="Layer 2"><g id="Shadow"><path id="Shadow-2" data-name="Shadow" class="cls-1" d="M.81,347.6l126.51,73.07a4.38,4.38,0,0,0,3.93,0l211-121.8a1.2,1.2,0,0,0,0-2.27L215.71,223.53a4.32,4.32,0,0,0-3.93,0L.81,345.33A1.2,1.2,0,0,0,.81,347.6Z"/><ellipse id="Shadow-3" data-name="Shadow" class="cls-1" cx="320.23" cy="337.09" rx="60.66" ry="35.02"/></g><g id="Window"><g id="Window-2" data-name="Window"><g id="Window-3" data-name="Window"><polygon class="cls-2" points="21.75 158.47 26.09 160.97 134.46 98.4 130.13 95.9 21.75 158.47"/><polygon class="cls-3" points="80.28 38.8 80.28 127.19 84.61 124.69 84.61 36.3 80.28 38.8"/><polygon class="cls-4" points="78.11 37.54 80.28 38.8 80.28 127.19 78.11 125.93 78.11 37.54"/><polygon class="cls-5" points="80.28 38.8 84.61 36.3 82.44 35.04 78.11 37.54 80.28 38.8"/><path class="cls-3" d="M138.8,2.5l-117,67.58v98.4L138.8,100.9Zm-4.34,95.9L26.09,161V72.58L134.46,10Z"/><polygon class="cls-4" points="134.46 98.4 130.13 95.9 130.13 12.52 134.46 10.01 134.46 98.4"/><polygon class="cls-2" points="138.8 2.5 134.46 0 17.42 67.58 21.75 70.08 138.8 2.5"/><polygon class="cls-4" points="17.42 67.58 21.75 70.08 21.75 168.48 17.42 165.98 17.42 67.58"/><polygon class="cls-6" points="80.28 41.3 84.6 38.8 84.6 41.3 80.28 43.8 80.28 41.3"/><polygon class="cls-6" points="80.28 43.8 78.11 42.55 80.28 41.3 80.28 43.8"/></g></g></g><g id="Desk"><g id="Desk-2" data-name="Desk"><g id="Table"><path class="cls-7" d="M125.75,293.9V402.22a2.43,2.43,0,0,0,1.08,1.88l2.3,1.32a2.41,2.41,0,0,0,2.16,0l2.3-1.32a2.42,2.42,0,0,0,1.07-1.88V293.9c0-.69-.48-1-1.07-.63l-2.3,1.33a2.41,2.41,0,0,1-2.16,0l-2.3-1.33C126.24,292.93,125.75,293.21,125.75,293.9Z"/><path class="cls-8" d="M131.29,405.42l2.3-1.32a2.42,2.42,0,0,0,1.07-1.88V293.9c0-.69-.48-1-1.07-.63l-2.3,1.33a2.37,2.37,0,0,0-1.08,1.87V404.8C130.21,405.49,130.69,405.76,131.29,405.42Z"/><path class="cls-7" d="M27.83,237.32V345.65a2.37,2.37,0,0,0,1.08,1.87l2.29,1.33a2.41,2.41,0,0,0,2.16,0l2.3-1.33a2.37,2.37,0,0,0,1.08-1.87V237.32c0-.68-.48-1-1.08-.62L33.36,238a2.41,2.41,0,0,1-2.16,0l-2.29-1.33C28.31,236.36,27.83,236.64,27.83,237.32Z"/><path class="cls-8" d="M33.36,348.85l2.3-1.33a2.37,2.37,0,0,0,1.08-1.87V237.32c0-.68-.48-1-1.08-.62L33.36,238a2.39,2.39,0,0,0-1.08,1.87V348.23C32.28,348.91,32.77,349.19,33.36,348.85Z"/><path class="cls-7" d="M304.47,191.34V299.67a2.39,2.39,0,0,0,1.08,1.87l2.3,1.33a2.41,2.41,0,0,0,2.16,0l2.3-1.33a2.39,2.39,0,0,0,1.08-1.87V191.34c0-.69-.49-1-1.08-.62L310,192a2.35,2.35,0,0,1-2.16,0l-2.3-1.32C305,190.37,304.47,190.65,304.47,191.34Z"/><path class="cls-8" d="M310,302.87l2.3-1.33a2.39,2.39,0,0,0,1.08-1.87V191.34c0-.69-.49-1-1.08-.62L310,192a2.4,2.4,0,0,0-1.08,1.87V302.24C308.93,302.93,309.41,303.21,310,302.87Z"/><g id="Desk-3" data-name="Desk"><path class="cls-9" d="M6.52,244.94v-.79a4.34,4.34,0,0,1,2-3.4l219-126.47a4.38,4.38,0,0,1,3.93,0l106.24,61.36a4.34,4.34,0,0,1,2,3.4v.79a4.36,4.36,0,0,1-2,3.4l-219,126.47a4.38,4.38,0,0,1-3.93,0L8.49,248.34A4.32,4.32,0,0,1,6.52,244.94Z"/><g class="cls-10"><path class="cls-11" d="M6.52,244.94v-.79a4.34,4.34,0,0,1,2-3.4l219-126.47a4.38,4.38,0,0,1,3.93,0l106.24,61.36a4.34,4.34,0,0,1,2,3.4v.79a4.36,4.36,0,0,1-2,3.4l-219,126.47a4.38,4.38,0,0,1-3.93,0L8.49,248.34A4.32,4.32,0,0,1,6.52,244.94Z"/></g><path class="cls-9" d="M116.69,304.85v5.32a4.15,4.15,0,0,1-2-.46L8.49,248.35a4.36,4.36,0,0,1-2-3.41v-.78A4.34,4.34,0,0,1,8.12,241c-.71.6-.59,1.45.37,2l106.23,61.36A3.93,3.93,0,0,0,116.69,304.85Z"/><g class="cls-12"><path class="cls-11" d="M116.69,304.85v5.32a4.15,4.15,0,0,1-2-.46L8.49,248.35a4.36,4.36,0,0,1-2-3.41v-.78A4.34,4.34,0,0,1,8.12,241c-.71.6-.59,1.45.37,2l106.23,61.36A3.93,3.93,0,0,0,116.69,304.85Z"/></g><path class="cls-9" d="M8.49,243l106.23,61.36a4.38,4.38,0,0,0,3.93,0l219-126.47a1.2,1.2,0,0,0,0-2.27L231.45,114.28a4.38,4.38,0,0,0-3.93,0L8.49,240.75A1.2,1.2,0,0,0,8.49,243Z"/><g class="cls-13"><path class="cls-11" d="M8.49,243l106.23,61.36a4.38,4.38,0,0,0,3.93,0l219-126.47a1.2,1.2,0,0,0,0-2.27L231.45,114.28a4.38,4.38,0,0,0-3.93,0L8.49,240.75A1.2,1.2,0,0,0,8.49,243Z"/></g></g></g><g id="Keyboard"><path id="Shadow-4" data-name="Shadow" class="cls-14" d="M157,214.39l23.24,13.46a2.84,2.84,0,0,0,2.6,0l68.67-39.59a.79.79,0,0,0,0-1.5L228.24,173.3a2.84,2.84,0,0,0-2.6,0L157,212.89A.79.79,0,0,0,157,214.39Z"/><g id="Keyboard-2" data-name="Keyboard"><path class="cls-3" d="M250.08,184.37a.91.91,0,0,0-.54-.75L227.7,171a2.9,2.9,0,0,0-2.6,0l-66.64,38.54a.91.91,0,0,0-.54.75c0,.27,0,2,0,2.29a.91.91,0,0,0,.55.75l21.82,12.6a2.86,2.86,0,0,0,2.61,0l66.64-38.47a.92.92,0,0,0,.54-.75Z"/><path class="cls-11" d="M180.29,223.6l-21.82-12.55c-.72-.42-.73-1.09,0-1.5L225.1,171a2.9,2.9,0,0,1,2.6,0l21.84,12.61a.79.79,0,0,1,0,1.5L182.9,223.59A2.89,2.89,0,0,1,180.29,223.6Z"/><path class="cls-4" d="M181.51,223.91v2.34a2.68,2.68,0,0,1-1.22-.3l-21.82-12.61a.92.92,0,0,1-.54-.75v-2.3a.93.93,0,0,0,.54.76l21.82,12.55A2.69,2.69,0,0,0,181.51,223.91Z"/><path class="cls-9" d="M181.68,221.61h0l-2.16-1.25,2.93-1.69,2.23,1.26-2.93,1.69Zm-3.38-2h-.05l-2.16-1.25,2.3-1.33,2.24,1.26-2.3,1.32Zm7.48-.41h-.05L183.57,218l2.3-1.33,2.24,1.26-2.3,1.32Zm-10.86-1.55h0l-2.16-1.24,3.72-2.15,2.23,1.25L175,217.7Zm6.85,0h-.05l-2.16-1.25,1.83-1.06,2.23,1.26-1.82,1.05Zm7.48-.42s-.05,0-.05,0L187,216l2.3-1.33,2.23,1.25-2.3,1.33Zm-4.49-1.31h0l-2.16-1.25,1.83-1.06,2.23,1.26-1.82,1Zm-13.22-.18h0l-2.16-1.25,2.93-1.69,2.23,1.26-2.93,1.69Zm21.17-.51s0,0,0,0L190.5,214l16.64-9.61,2.24,1.26-16.64,9.6Zm-12.91-.36h-.05l-2.16-1.24,1.83-1.06,2.24,1.26-1.83,1Zm7.95-.68h-.05l-2.16-1.25,1.83-1.05,2.24,1.25-1.83,1.06Zm-19.6-.4h-.05l-2.16-1.25,1.83-1.06,2.24,1.26-1.83,1Zm7.48-.42h0l-2.16-1.25,1.83-1.06,2.24,1.26-1.83,1Zm7.17-.23h-.05l-2.16-1.25,1.83-1.06,2.23,1.26-1.83,1.05Zm7.95-.68h-.05l-2.16-1.25,1.83-1.05,2.23,1.25-1.82,1.06Zm-19.6-.4h-.05l-2.16-1.25,1.82-1.05L173,211l-1.83,1.06Zm7.47-.41h0l-2.16-1.25,1.82-1.06,2.24,1.26-1.83,1.05Zm7.17-.23h0l-2.16-1.25,1.83-1.06,2.23,1.26-1.82,1Zm-21.74,0H164l-2.16-1.25,2.3-1.33,2.23,1.26-2.3,1.32Zm29.69-.69h-.05l-2.16-1.24,1.83-1.06,2.23,1.26-1.82,1.05Zm-19.6-.4h0l-2.16-1.25,1.83-1.05,2.23,1.25-1.82,1.06Zm7.48-.41h-.05l-2.16-1.25,1.83-1,2.23,1.25-1.82,1.06Zm7.16-.23h-.05l-2.16-1.25,1.83-1.05,2.24,1.25-1.83,1.06Zm7.95-.69h0l-2.16-1.24,1.83-1.06,2.24,1.26-1.83,1Zm-27.92-.34h0l-2.17-1.24,1.83-1.06,2.24,1.26-1.83,1Zm8.32-.06h0l-2.16-1.25,1.83-1,2.24,1.26-1.83,1.05Zm7.48-.41h-.05l-2.16-1.25,1.83-1.05,2.24,1.25-1.83,1.06Zm7.17-.23h-.05l-2.16-1.25,1.83-1.05,2.23,1.25L191.8,208Zm7.95-.68h0L197.52,206l1.83-1.06,2.23,1.26-1.82,1.05Zm-27.92-.35h-.05l-2.16-1.25,1.83-1.06,2.23,1.26-1.82,1.05Zm8.31-.06h0l-2.16-1.25,1.83-1.06,2.23,1.26-1.83,1Zm7.49-.41h-.05l-2.16-1.24,1.82-1.06,2.24,1.26-1.83,1.05Zm7.16-.23h-.05L192.56,205l1.83-1.06,2.23,1.26-1.82,1.05Zm7.95-.68h-.05l-2.16-1.25,1.83-1.05,2.24,1.25-1.83,1.06Zm-27.92-.34h-.05L172.59,204l1.83-1.06,2.24,1.26-1.83,1.05Zm8.32-.07h-.05l-2.16-1.25,1.83-1.06L185,204.1l-1.82,1.05Zm27.4-.19s-.05,0-.05,0l-2.16-1.24,2.3-1.33,2.23,1.26-2.3,1.32Zm-19.92-.22h0l-2.16-1.24,1.83-1.06,2.23,1.26-1.82,1.05Zm7.16-.23h0l-2.16-1.25,1.83-1.06,2.24,1.26-1.83,1Zm8-.68h-.05l-2.16-1.25,1.84-1,2.23,1.25-1.83,1.06Zm-27.92-.34h0l-2.16-1.25,1.82-1,2.24,1.25-1.83,1.06Zm8.32-.06h-.05l-2.16-1.25,1.83-1.06,2.24,1.26-1.83,1Zm7.48-.41h-.05l-2.16-1.25,1.83-1.06,2.24,1.26-1.83,1ZM214,203h0l-2.16-1.24,2.3-1.33,2.24,1.25L214,203Zm-13.22-.17h0l-2.16-1.25,1.83-1.06,2.23,1.26-1.83,1.05Zm8-.69h-.05l-2.16-1.25,1.83-1.05,2.23,1.25-1.82,1.06Zm-19.6-.4h-.05l-2.16-1.25,1.83-1.05,2.23,1.25-1.83,1.06Zm7.47-.41h0L194.37,200l1.84-1.06,2.23,1.26-1.83,1.05Zm7.17-.23h-.05l-2.16-1.25,1.83-1.06L205.6,200l-1.82,1.05ZM182.09,201H182l-2.16-1.25,1.83-1.06,2.23,1.26L182.12,201Zm35.36,0s0,0,0,0l-2.16-1.24,2.3-1.33,2.24,1.25-2.3,1.33Zm-5.75-.59h0l-2.16-1.24,1.83-1.06,2.24,1.26-1.83,1.05Zm-19.6-.4h0l-2.16-1.25,1.83-1.05,2.23,1.25L192.13,200Zm7.48-.41h-.05l-2.16-1.25,1.83-1.05,2.23,1.25-1.82,1.06Zm7.16-.23h0l-2.17-1.25,1.83-1,2.24,1.25-1.83,1.06Zm-21.66-.05h0L182.87,198,184.7,197l2.24,1.25-1.83,1.06Zm35.83-.32h0l-2.17-1.25,2.94-1.69,2.23,1.26L220.94,199Zm-6.21-.31h0l-2.16-1.25,5.76-3.33,2.24,1.25-5.77,3.33Zm-19.61-.41H195L192.88,197l1.83-1.06,2.24,1.26-1.83,1.05Zm7.48-.41h0l-2.16-1.25,1.83-1,2.24,1.25-1.83,1.06Zm7.17-.23h-.05l-2.16-1.25,1.83-1.05,2.23,1.25-1.83,1.06Zm-21.66,0s-.05,0-.05,0l-2.16-1.24,1.83-1.06,2.23,1.25-1.83,1.06Zm10-1H198l-2.16-1.25,1.83-1.06,2.23,1.26-1.83,1Zm27.55-.28h0L223.43,195l1.83-1.05,2.23,1.26-1.82,1Zm-20.07-.13h0l-2.16-1.24,1.83-1.06,2.23,1.26-1.83,1Zm7.16-.23h0l-2.16-1.24,1.67-1a.35.35,0,0,0,.19-.3.36.36,0,0,0-.2-.32l-2.84-1.64,2.15-1.24,5.62,3.21-4.35,2.51Zm-21.66-.05h0l-2.16-1.24,1.83-1.06,2.23,1.26-1.82,1Zm10-1H201l-2.16-1.25,1.83-1.06,2.23,1.26-1.82,1.05Zm27.55-.29h0l-2.17-1.24,1.83-1.06,2.24,1.26-1.83,1.05Zm-20.07-.13h-.05l-2.16-1.24,1.83-1.06,2.23,1.26-1.82,1.05Zm-13.19-1h-.05l-2.16-1.24L195,191l2.23,1.26-1.83,1.05Zm8.7-.28h0l-2.16-1.25,1.83-1.06,2.24,1.26-1.83,1.05Zm27.56-.28h0l-2.16-1.25,1.83-1.06,2.23,1.26-1.83,1.05Zm-6.38-.23h-.05L223,191.29l1.83-1,2.24,1.25-1.83,1.06Zm-26.89-.94h-.05l-2.16-1.25L198,189.3l2.23,1.26-1.82,1.05Zm8.71-.28h0l-2.16-1.25,3.24-1.87,2.24,1.25-3.25,1.88Zm28.18-.65h-.05L233,189.43l4.82-2.79,2.24,1.26-4.82,2.78Zm-19.76-.31h-.05l-2.16-1.24,1.83-1.06,2.24,1.25-1.83,1.06Zm-14.14-.48h0l-2.16-1.25,1.83-1.06,2.24,1.26-1.83,1Zm30.52-1.16h-.05l-2.16-1.25,1.83-1.05,2.23,1.25-1.82,1.06Zm-13.39-.09h0l-2.15-1.24,1.82-1.06,2.24,1.26-1.83,1Zm-6.37-.22h-.05l-2.16-1.25,1.83-1,2.23,1.25-1.82,1.06Zm-7.76-.26h0l-2.16-1.25,1.83-1.05,2.23,1.25-1.83,1.06Zm36.89-.93h-.05L239,186l1.83-1.06,2.23,1.26-1.82,1.05Zm-6.38-.23h-.05l-2.16-1.24,1.83-1.06,2.24,1.25L234.89,187Zm-13.38-.08h0l-2.16-1.25,1.83-1.06,2.23,1.26-1.82,1Zm7-.14h-.05l-2.17-1.25,1.83-1.06,2.24,1.26-1.83,1.05Zm-13.39-.09h0l-2.16-1.25,1.83-1.05,2.24,1.25-1.83,1.06Zm-7.1-.64H208l-2.16-1.25,1.83-1.06,2.24,1.26L208,186.05Zm36.23-.55h0l-5.54-3.2,1.83-1.06,5.62,3.21-1.83,1.06Zm-6.38-.23h0L235.64,184l1.83-1.06,2.24,1.26-1.83,1.05Zm-6.37-.22h0l-2.16-1.25,1.83-1,2.23,1.25-1.82,1.06ZM218.09,185H218l-2.16-1.24,1.83-1.06,2.24,1.26L218.12,185Zm7-.14h0l-2.16-1.24,1.83-1.06,2.24,1.26-1.83,1Zm-14.1-.5H211l-2.17-1.25,1.83-1.05,2.24,1.25L211,184.32Zm23.47-1h-.05l-2.16-1.25,1.83-1.05,2.24,1.25-1.83,1.06Zm-6.37-.22h0l-2.17-1.25,1.83-1.06L230,182l-1.83,1.05Zm-6.38-.23h-.05l-2.16-1.25,1.83-1.05,2.23,1.25-1.82,1.06Zm-7.73-.28h-.05l-2.16-1.24,1.83-1.06,2.23,1.25L214,182.59Zm23.48-1h-.05l-5.55-3.2,1.83-1,5.62,3.2-1.83,1.06Zm-6.38-.22H231l-2.16-1.25,1.83-1.06,2.23,1.26-1.82,1.05Zm-6.38-.23h0l-2.17-1.24,1.83-1.06,2.24,1.26-1.83,1Zm-8-1.14h-.05l-.93-.53,1.83-1.06,1,.54L216.77,180Zm11-.59h0l-2.16-1.24,1.82-1.06,2.24,1.26-1.83,1Zm-8-1.14h-.05l-.94-.53,1.83-1.06,1,.55-1.82,1.05Zm11-.58h0l-2.16-1.25,1.83-1.06,2.23,1.26-1.82,1.05Zm-8-1.15h0l-.94-.53,1.83-1.05,1,.54-1.82,1Zm3-1.73h-.05l-.93-.53,1.83-1.05,1,.54-1.82,1.05Z"/><path class="cls-15" d="M181.68,221.61h0l-2.16-1.25,2.93-1.69,2.23,1.26-2.93,1.69Zm-3.38-2h-.05l-2.16-1.25,2.3-1.33,2.24,1.26-2.3,1.32Zm7.48-.41h-.05L183.57,218l2.3-1.33,2.24,1.26-2.3,1.32Zm-10.86-1.55h0l-2.16-1.24,3.72-2.15,2.23,1.25L175,217.7Zm6.85,0h-.05l-2.16-1.25,1.83-1.06,2.23,1.26-1.82,1.05Zm7.48-.42s-.05,0-.05,0L187,216l2.3-1.33,2.23,1.25-2.3,1.33Zm-4.49-1.31h0l-2.16-1.25,1.83-1.06,2.23,1.26-1.82,1Zm-13.22-.18h0l-2.16-1.25,2.93-1.69,2.23,1.26-2.93,1.69Zm21.17-.51s0,0,0,0L190.5,214l16.64-9.61,2.24,1.26-16.64,9.6Zm-12.91-.36h-.05l-2.16-1.24,1.83-1.06,2.24,1.26-1.83,1Zm7.95-.68h-.05l-2.16-1.25,1.83-1.05,2.24,1.25-1.83,1.06Zm-19.6-.4h-.05l-2.16-1.25,1.83-1.06,2.24,1.26-1.83,1Zm7.48-.42h0l-2.16-1.25,1.83-1.06,2.24,1.26-1.83,1Zm7.17-.23h-.05l-2.16-1.25,1.83-1.06,2.23,1.26-1.83,1.05Zm7.95-.68h-.05l-2.16-1.25,1.83-1.05,2.23,1.25-1.82,1.06Zm-19.6-.4h-.05l-2.16-1.25,1.82-1.05L173,211l-1.83,1.06Zm7.47-.41h0l-2.16-1.25,1.82-1.06,2.24,1.26-1.83,1.05Zm7.17-.23h0l-2.16-1.25,1.83-1.06,2.23,1.26-1.82,1Zm-21.74,0H164l-2.16-1.25,2.3-1.33,2.23,1.26-2.3,1.32Zm29.69-.69h-.05l-2.16-1.24,1.83-1.06,2.23,1.26-1.82,1.05Zm-19.6-.4h0l-2.16-1.25,1.83-1.05,2.23,1.25-1.82,1.06Zm7.48-.41h-.05l-2.16-1.25,1.83-1,2.23,1.25-1.82,1.06Zm7.16-.23h-.05l-2.16-1.25,1.83-1.05,2.24,1.25-1.83,1.06Zm7.95-.69h0l-2.16-1.24,1.83-1.06,2.24,1.26-1.83,1Zm-27.92-.34h0l-2.17-1.24,1.83-1.06,2.24,1.26-1.83,1Zm8.32-.06h0l-2.16-1.25,1.83-1,2.24,1.26-1.83,1.05Zm7.48-.41h-.05l-2.16-1.25,1.83-1.05,2.24,1.25-1.83,1.06Zm7.17-.23h-.05l-2.16-1.25,1.83-1.05,2.23,1.25L191.8,208Zm7.95-.68h0L197.52,206l1.83-1.06,2.23,1.26-1.82,1.05Zm-27.92-.35h-.05l-2.16-1.25,1.83-1.06,2.23,1.26-1.82,1.05Zm8.31-.06h0l-2.16-1.25,1.83-1.06,2.23,1.26-1.83,1Zm7.49-.41h-.05l-2.16-1.24,1.82-1.06,2.24,1.26-1.83,1.05Zm7.16-.23h-.05L192.56,205l1.83-1.06,2.23,1.26-1.82,1.05Zm7.95-.68h-.05l-2.16-1.25,1.83-1.05,2.24,1.25-1.83,1.06Zm-27.92-.34h-.05L172.59,204l1.83-1.06,2.24,1.26-1.83,1.05Zm8.32-.07h-.05l-2.16-1.25,1.83-1.06L185,204.1l-1.82,1.05Zm27.4-.19s-.05,0-.05,0l-2.16-1.24,2.3-1.33,2.23,1.26-2.3,1.32Zm-19.92-.22h0l-2.16-1.24,1.83-1.06,2.23,1.26-1.82,1.05Zm7.16-.23h0l-2.16-1.25,1.83-1.06,2.24,1.26-1.83,1Zm8-.68h-.05l-2.16-1.25,1.84-1,2.23,1.25-1.83,1.06Zm-27.92-.34h0l-2.16-1.25,1.82-1,2.24,1.25-1.83,1.06Zm8.32-.06h-.05l-2.16-1.25,1.83-1.06,2.24,1.26-1.83,1Zm7.48-.41h-.05l-2.16-1.25,1.83-1.06,2.24,1.26-1.83,1ZM214,203h0l-2.16-1.24,2.3-1.33,2.24,1.25L214,203Zm-13.22-.17h0l-2.16-1.25,1.83-1.06,2.23,1.26-1.83,1.05Zm8-.69h-.05l-2.16-1.25,1.83-1.05,2.23,1.25-1.82,1.06Zm-19.6-.4h-.05l-2.16-1.25,1.83-1.05,2.23,1.25-1.83,1.06Zm7.47-.41h0L194.37,200l1.84-1.06,2.23,1.26-1.83,1.05Zm7.17-.23h-.05l-2.16-1.25,1.83-1.06L205.6,200l-1.82,1.05ZM182.09,201H182l-2.16-1.25,1.83-1.06,2.23,1.26L182.12,201Zm35.36,0s0,0,0,0l-2.16-1.24,2.3-1.33,2.24,1.25-2.3,1.33Zm-5.75-.59h0l-2.16-1.24,1.83-1.06,2.24,1.26-1.83,1.05Zm-19.6-.4h0l-2.16-1.25,1.83-1.05,2.23,1.25L192.13,200Zm7.48-.41h-.05l-2.16-1.25,1.83-1.05,2.23,1.25-1.82,1.06Zm7.16-.23h0l-2.17-1.25,1.83-1,2.24,1.25-1.83,1.06Zm-21.66-.05h0L182.87,198,184.7,197l2.24,1.25-1.83,1.06Zm35.83-.32h0l-2.17-1.25,2.94-1.69,2.23,1.26L220.94,199Zm-6.21-.31h0l-2.16-1.25,5.76-3.33,2.24,1.25-5.77,3.33Zm-19.61-.41H195L192.88,197l1.83-1.06,2.24,1.26-1.83,1.05Zm7.48-.41h0l-2.16-1.25,1.83-1,2.24,1.25-1.83,1.06Zm7.17-.23h-.05l-2.16-1.25,1.83-1.05,2.23,1.25-1.83,1.06Zm-21.66,0s-.05,0-.05,0l-2.16-1.24,1.83-1.06,2.23,1.25-1.83,1.06Zm10-1H198l-2.16-1.25,1.83-1.06,2.23,1.26-1.83,1Zm27.55-.28h0L223.43,195l1.83-1.05,2.23,1.26-1.82,1Zm-20.07-.13h0l-2.16-1.24,1.83-1.06,2.23,1.26-1.83,1Zm7.16-.23h0l-2.16-1.24,1.67-1a.35.35,0,0,0,.19-.3.36.36,0,0,0-.2-.32l-2.84-1.64,2.15-1.24,5.62,3.21-4.35,2.51Zm-21.66-.05h0l-2.16-1.24,1.83-1.06,2.23,1.26-1.82,1Zm10-1H201l-2.16-1.25,1.83-1.06,2.23,1.26-1.82,1.05Zm27.55-.29h0l-2.17-1.24,1.83-1.06,2.24,1.26-1.83,1.05Zm-20.07-.13h-.05l-2.16-1.24,1.83-1.06,2.23,1.26-1.82,1.05Zm-13.19-1h-.05l-2.16-1.24L195,191l2.23,1.26-1.83,1.05Zm8.7-.28h0l-2.16-1.25,1.83-1.06,2.24,1.26-1.83,1.05Zm27.56-.28h0l-2.16-1.25,1.83-1.06,2.23,1.26-1.83,1.05Zm-6.38-.23h-.05L223,191.29l1.83-1,2.24,1.25-1.83,1.06Zm-26.89-.94h-.05l-2.16-1.25L198,189.3l2.23,1.26-1.82,1.05Zm8.71-.28h0l-2.16-1.25,3.24-1.87,2.24,1.25-3.25,1.88Zm28.18-.65h-.05L233,189.43l4.82-2.79,2.24,1.26-4.82,2.78Zm-19.76-.31h-.05l-2.16-1.24,1.83-1.06,2.24,1.25-1.83,1.06Zm-14.14-.48h0l-2.16-1.25,1.83-1.06,2.24,1.26-1.83,1Zm30.52-1.16h-.05l-2.16-1.25,1.83-1.05,2.23,1.25-1.82,1.06Zm-13.39-.09h0l-2.15-1.24,1.82-1.06,2.24,1.26-1.83,1Zm-6.37-.22h-.05l-2.16-1.25,1.83-1,2.23,1.25-1.82,1.06Zm-7.76-.26h0l-2.16-1.25,1.83-1.05,2.23,1.25-1.83,1.06Zm36.89-.93h-.05L239,186l1.83-1.06,2.23,1.26-1.82,1.05Zm-6.38-.23h-.05l-2.16-1.24,1.83-1.06,2.24,1.25L234.89,187Zm-13.38-.08h0l-2.16-1.25,1.83-1.06,2.23,1.26-1.82,1Zm7-.14h-.05l-2.17-1.25,1.83-1.06,2.24,1.26-1.83,1.05Zm-13.39-.09h0l-2.16-1.25,1.83-1.05,2.24,1.25-1.83,1.06Zm-7.1-.64H208l-2.16-1.25,1.83-1.06,2.24,1.26L208,186.05Zm36.23-.55h0l-5.54-3.2,1.83-1.06,5.62,3.21-1.83,1.06Zm-6.38-.23h0L235.64,184l1.83-1.06,2.24,1.26-1.83,1.05Zm-6.37-.22h0l-2.16-1.25,1.83-1,2.23,1.25-1.82,1.06ZM218.09,185H218l-2.16-1.24,1.83-1.06,2.24,1.26L218.12,185Zm7-.14h0l-2.16-1.24,1.83-1.06,2.24,1.26-1.83,1Zm-14.1-.5H211l-2.17-1.25,1.83-1.05,2.24,1.25L211,184.32Zm23.47-1h-.05l-2.16-1.25,1.83-1.05,2.24,1.25-1.83,1.06Zm-6.37-.22h0l-2.17-1.25,1.83-1.06L230,182l-1.83,1.05Zm-6.38-.23h-.05l-2.16-1.25,1.83-1.05,2.23,1.25-1.82,1.06Zm-7.73-.28h-.05l-2.16-1.24,1.83-1.06,2.23,1.25L214,182.59Zm23.48-1h-.05l-5.55-3.2,1.83-1,5.62,3.2-1.83,1.06Zm-6.38-.22H231l-2.16-1.25,1.83-1.06,2.23,1.26-1.82,1.05Zm-6.38-.23h0l-2.17-1.24,1.83-1.06,2.24,1.26-1.83,1Zm-8-1.14h-.05l-.93-.53,1.83-1.06,1,.54L216.77,180Zm11-.59h0l-2.16-1.24,1.82-1.06,2.24,1.26-1.83,1Zm-8-1.14h-.05l-.94-.53,1.83-1.06,1,.55-1.82,1.05Zm11-.58h0l-2.16-1.25,1.83-1.06,2.23,1.26-1.82,1.05Zm-8-1.15h0l-.94-.53,1.83-1.05,1,.54-1.82,1Zm3-1.73h-.05l-.93-.53,1.83-1.05,1,.54-1.82,1.05Z"/></g></g><g id="PC"><path id="Shadow-5" data-name="Shadow" class="cls-14" d="M115.85,203l-12.1-7c-2.25-1.3-2.25-3.41,0-4.71l93.14-53.78a9,9,0,0,1,8.16,0l12.1,7c2.26,1.3,2.26,3.41,0,4.71L124,203A9,9,0,0,1,115.85,203Z"/><g id="Monitor"><path class="cls-1" d="M181.09,188.48l14.46-8.37a3.77,3.77,0,0,0,2.24-3.11c0-1.13,0-2,0-2l-17.41-9.87a3.19,3.19,0,0,1-1.44-2.49V144.8l-25.26,14.59v17.84a3.16,3.16,0,0,0,1.44,2.49l15.16,8.76A12,12,0,0,0,181.09,188.48Z"/><path class="cls-4" d="M159.75,180.39v2l-4.63-2.67a3.19,3.19,0,0,1-1.44-2.49V159.4l4.82-2.78c.1,1.22.21,2.48.3,3.72l-3.37,1.95v13.93a3.15,3.15,0,0,0,1.44,2.49Z"/><path class="cls-2" d="M155.43,176.22a3.18,3.18,0,0,0,1.44,2.5l13.42,7.75a12,12,0,0,0,10.8,0l14.47-8.37c3-1.72,3-4.51,0-6.23l-13.43-7.75a3.21,3.21,0,0,1-1.44-2.5V147.69l-25.26,14.6Z"/><path class="cls-3" d="M185.07,165.81h0l-2.94-1.69a3.21,3.21,0,0,1-1.44-2.5V147.69l-25.26,14.6v13.93a3.18,3.18,0,0,0,1.44,2.5l2.88,1.66Z"/><path class="cls-3" d="M197.79,175v2a3.8,3.8,0,0,1-2.23,3.12l-14.47,8.35a10.68,10.68,0,0,1-5.15,1.28v-2a10.79,10.79,0,0,0,5.15-1.28l14.47-8.37A3.76,3.76,0,0,0,197.79,175Z"/><path class="cls-8" d="M114.86,195.46a3.87,3.87,0,0,0,3.49-.06L216.06,139a4,4,0,0,0,1.8-3.12V50.35a3.38,3.38,0,0,0-5.18-3L115,103.77a4,4,0,0,0-1.8,3.12v85.52A3.85,3.85,0,0,0,114.86,195.46Z"/><path class="cls-9" d="M118.35,195.4,216.06,139a4,4,0,0,0,1.8-3.12V50.35c0-1.15-.81-1.61-1.8-1l-97.71,56.41a4,4,0,0,0-1.8,3.12v85.52C116.55,195.5,117.36,196,118.35,195.4Z"/><path class="cls-7" d="M118.35,195.4,216.06,139a4,4,0,0,0,1.8-3.12V50.35c0-1.15-.81-1.61-1.8-1l-97.71,56.41a4,4,0,0,0-1.8,3.12v85.52C116.55,195.5,117.36,196,118.35,195.4Z"/><path class="cls-4" d="M118.09,195.53a3.35,3.35,0,0,1-4.91-3.12v-9.62l3.37,2v9.62C116.55,195.41,117.22,195.88,118.09,195.53Z"/><path class="cls-11" d="M116.55,184.74v9.62c0,1.14.81,1.61,1.8,1L216.06,139a4,4,0,0,0,1.8-3.12v-9.62Z"/><path class="cls-9" d="M119.93,177.64V110a2.37,2.37,0,0,1,1.08-1.87L213.4,54.75c.59-.35,1.08-.07,1.08.62v67.69a2.38,2.38,0,0,1-1.08,1.87L121,178.27C120.41,178.61,119.93,178.33,119.93,177.64Z"/><path class="cls-16" d="M119.93,177.64V110a2.37,2.37,0,0,1,1.08-1.87L213.4,54.75c.59-.35,1.08-.07,1.08.62v67.69a2.38,2.38,0,0,1-1.08,1.87L121,178.27C120.41,178.61,119.93,178.33,119.93,177.64Z"/><path class="cls-11" d="M125.39,109.4l82.26-47.5c.6-.34,1.08-.06,1.08.63v59.89a2.37,2.37,0,0,1-1.08,1.87l-82.26,47.49c-.59.35-1.08.07-1.08-.62V111.27A2.39,2.39,0,0,1,125.39,109.4Z"/><path class="cls-9" d="M180.64,113.58l-2-.66c1.62-9.59-1.65-12.26-6.68-12,2.12,1,3.77,5.82,2.76,10.76l-2-.66c-.4-.13-.93.62-.87,1.22l1,8.92c0,.41.36.51.68.22l7-6.33C180.93,114.6,181,113.71,180.64,113.58Z"/><path class="cls-17" d="M173.79,106.81c-.39-2.87-1.57-5.14-2.94-5.75,0,0-5.19,1.13-9.27,9.19C161.58,110.25,168,103.39,173.79,106.81Z"/><path class="cls-9" d="M154.29,123.87l2,.67c-1.62,9.59,1.65,12.25,6.68,12-2.11-.95-3.77-5.82-2.76-10.76l2,.66c.4.13.94-.62.87-1.22l-1-8.92c-.05-.41-.37-.51-.69-.22l-7,6.32C154,122.86,153.89,123.74,154.29,123.87Z"/><path class="cls-17" d="M161.15,130.65c.38,2.86,1.56,5.13,2.93,5.75,0,0,5.19-1.14,9.27-9.2C173.35,127.2,166.94,134.07,161.15,130.65Z"/><path class="cls-4" d="M208.73,62.52c0-.68-.48-1-1.08-.62l-82.26,47.5a2.39,2.39,0,0,0-1.08,1.87v4.6l84.42-48.74Z"/><path class="cls-8" d="M167.2,159.4a3.71,3.71,0,0,0-1.69,2.92c0,1.08.76,1.51,1.69,1a3.72,3.72,0,0,0,1.69-2.93C168.89,159.29,168.14,158.86,167.2,159.4Z"/><path class="cls-18" d="M117.08,107.06a3.85,3.85,0,0,0-.53,1.78v75.9l-3.37-2v-75.9a3.69,3.69,0,0,1,.53-1.78Z"/></g></g><g id="Pencil"><polygon id="Shadow-6" data-name="Shadow" class="cls-19" points="155.26 226.21 152.71 227.69 132.59 215.91 130.37 213.29 135 214.51 155.26 226.21"/><path class="cls-20" d="M134.81,212.72l-4.29-.84a.13.13,0,0,0-.12.22l2.91,3.29Z"/><path class="cls-18" d="M130.4,212.1a.13.13,0,0,1,.12-.22l.84.17h0a.74.74,0,0,0-.35.68v.08Z"/><path class="cls-9" d="M149.29,224.56l-.35-.2-.43-.24-15.2-8.73a2,2,0,0,1,.12-1.42,2,2,0,0,1,1.38-1.25l15.2,8.72.81.47C150.28,221.63,148.75,224.28,149.29,224.56Z"/><path class="cls-3" d="M148,223.8l-.78-.45c-.23-.13-.1-.69.17-1.28.36-.78,1.06-1.54,1.37-1.37l.58.33.2.12c-.31-.16-1,.59-1.37,1.37-.26.57-.39,1.11-.19,1.26h0Z"/><path class="cls-9" d="M147.76,223.68c-.54-.28,1-2.93,1.54-2.64l.78.44c-.54-.28-2.08,2.37-1.54,2.65Z"/><path class="cls-3" d="M149.29,224.56l-.78-.44c-.53-.28.94-2.85,1.5-2.68h0l.78.46C150.28,221.63,148.75,224.28,149.29,224.56Z"/><path class="cls-21" d="M130.38,212l.14-.08,3.11,1.7,16.09,9.23c0-.05.05-.05.07,0-.46.72-.8,1.61-.5,1.77l-.35-.2-.43-.24-15.2-8.73h0l-2.91-3.29A.12.12,0,0,1,130.38,212Z"/><path class="cls-22" d="M152.57,226.44l-3.28-1.88c-.23-.12-.1-.68.16-1.27.36-.78,1.06-1.54,1.37-1.38h0l3.3,1.88c.65.38,0,1.8-.68,2.44A.8.8,0,0,1,152.57,226.44Z"/><path class="cls-6" d="M152.38,225.42a2.36,2.36,0,0,1,1.34-1.62.54.54,0,0,1,.49.06c.49.46-.08,1.77-.77,2.37a.81.81,0,0,1-.85.22C152.35,226.3,152.25,225.92,152.38,225.42Z"/></g><g id="Laptop"><path class="cls-14" d="M77.61,274.83l62.83-36.28a1.24,1.24,0,0,0,0-2.35L93,208.8a4.51,4.51,0,0,0-4.08,0L26,245.08a1.24,1.24,0,0,0,0,2.35l47.49,27.4A4.51,4.51,0,0,0,77.61,274.83Z"/><g id="Laptop-2" data-name="Laptop"><path class="cls-9" d="M39.43,249.87A3.36,3.36,0,0,0,41,252.46L75,272.1a3.45,3.45,0,0,0,3.13,0L138,237.53a2.94,2.94,0,0,0,0-5.19L104,212.7a3.43,3.43,0,0,0-3.12,0L41,247.27A3.36,3.36,0,0,0,39.43,249.87Z"/><path class="cls-15" d="M139.58,234.93a3.33,3.33,0,0,1-1.56,2.59L78.13,272.1a3.22,3.22,0,0,1-1.56.38v-3.39a3.21,3.21,0,0,0,1.56-.37L138,234.14c.75-.43.85-1.11.28-1.6A3.32,3.32,0,0,1,139.58,234.93Z"/><path class="cls-23" d="M41,249.08l34,19.64a3.45,3.45,0,0,0,3.13,0L138,234.14a1,1,0,0,0,0-1.8L104,212.7a3.43,3.43,0,0,0-3.12,0L41,247.27A1,1,0,0,0,41,249.08Z"/><path class="cls-24" d="M76.56,269.1v3.38A3.19,3.19,0,0,1,75,272.1L41,252.46a2.92,2.92,0,0,1-.16-5.08c-.7.5-.65,1.23.16,1.7l34,19.64A3.19,3.19,0,0,0,76.56,269.1Z"/><path class="cls-9" d="M38,247.33c-.81-.47-.76-1.26-.76-2.25v-47a3.46,3.46,0,0,1,1.56-2.71l59.89-34.58a3.37,3.37,0,0,1,3-.05c.81.47.76,1.26.76,2.25v47a3.46,3.46,0,0,1-1.56,2.71L41,247.27A3.34,3.34,0,0,1,38,247.33Z"/><path class="cls-23" d="M102.44,163c0-1-.7-1.4-1.56-.9L41,196.69a3.21,3.21,0,0,0-1.11,1.17l-2.22-1.3h0a3.3,3.3,0,0,1,1.11-1.17l59.89-34.58a3.37,3.37,0,0,1,3-.05C102.49,161.23,102.44,162,102.44,163Z"/><path class="cls-15" d="M39.43,199.39v47c0,1,.7,1.4,1.56.9l59.89-34.57a3.46,3.46,0,0,0,1.56-2.71V163c0-1-.7-1.4-1.56-.9L41,196.69A3.46,3.46,0,0,0,39.43,199.39Z"/><path class="cls-24" d="M40.8,247.37a3.35,3.35,0,0,1-2.84,0c-.81-.47-.76-1.26-.76-2.25v-47a3.12,3.12,0,0,1,.46-1.54l2.22,1.29h0a3.24,3.24,0,0,0-.45,1.54v47C39.43,247.3,40,247.71,40.8,247.37Z"/><path class="cls-9" d="M41.83,198.49l57.74-33.33c.52-.3.94-.06.94.54v41a2.08,2.08,0,0,1-.94,1.63L41.83,241.66c-.52.3-.94.06-.94-.54v-41A2.08,2.08,0,0,1,41.83,198.49Z"/><path class="cls-16" d="M41.83,198.49l57.74-33.33c.52-.3.94-.06.94.54v41a2.08,2.08,0,0,1-.94,1.63L41.83,241.66c-.52.3-.94.06-.94-.54v-41A2.08,2.08,0,0,1,41.83,198.49Z"/><path class="cls-25" d="M45.31,247.37l55.59-32.1a1.74,1.74,0,0,1,1.57,0l.92.51a.48.48,0,0,1,0,.9l-55.6,32.09a1.72,1.72,0,0,1-1.56,0l-.92-.5A.48.48,0,0,1,45.31,247.37Z"/><path class="cls-25" d="M105.26,217.86,49.66,250c-.43.24-.49.61-.13.82L64,259.13a1.61,1.61,0,0,0,1.43-.07L120.94,227c.44-.25.5-.62.14-.83l-14.4-8.39A1.6,1.6,0,0,0,105.26,217.86Z"/><path class="cls-9" d="M98,231.34l1.74-1c.07,0,.08-.11,0-.15l-1.66-1a.28.28,0,0,0-.25,0l-1.74,1c-.08,0-.09.1,0,.14l1.67,1A.25.25,0,0,0,98,231.34Zm-2.54-3.47-1.74,1c-.08,0-.08.11,0,.15l1.67,1a.28.28,0,0,0,.25,0l1.74-1c.07-.05.08-.11,0-.15l-1.67-1A.25.25,0,0,0,95.42,227.87Zm-5.63,3.24-2.94,1.7c-.08.05-.08.11,0,.15l1.67,1a.25.25,0,0,0,.25,0l3-1.7c.07,0,.08-.11,0-.14l-1.66-1A.34.34,0,0,0,89.79,231.11Zm3.08-1.77-1.74,1c-.07,0-.08.11,0,.15l1.66,1a.3.3,0,0,0,.26,0l1.74-1c.07,0,.08-.1,0-.14l-1.66-1A.27.27,0,0,0,92.87,229.34ZM86,233.28l-1.74,1c-.07.05-.08.11,0,.15l1.66,1a.3.3,0,0,0,.26,0l1.74-1c.07,0,.08-.11,0-.15l-1.66-1A.3.3,0,0,0,86,233.28Zm-2.54,1.47-1.74,1c-.07,0-.08.11,0,.15l1.66,1a.28.28,0,0,0,.25,0l1.74-1c.08,0,.08-.11,0-.15l-1.67-1A.25.25,0,0,0,83.5,234.75ZM90,238.67l1.74-1c.07,0,.08-.1,0-.14l-1.66-1a.25.25,0,0,0-.25,0l-1.75,1c-.07,0-.08.11,0,.15l1.67,1A.28.28,0,0,0,90,238.67Zm-2.55,1.47,1.74-1c.08,0,.09-.1,0-.14l-1.67-1a.27.27,0,0,0-.25,0l-1.74,1c-.07,0-.08.11,0,.15l1.66,1A.31.31,0,0,0,87.48,240.14Zm-2.54,1.47,1.74-1c.07,0,.08-.11,0-.14l-1.67-1a.31.31,0,0,0-.25,0l-1.74,1c-.08,0-.08.11,0,.14l1.67,1A.31.31,0,0,0,84.94,241.61Zm-2.54,1.47,1.74-1c.07,0,.08-.11,0-.15l-1.66-1a.34.34,0,0,0-.26,0l-1.74,1c-.07,0-.08.11,0,.14l1.66,1A.3.3,0,0,0,82.4,243.08Zm13-10.27,1.75-1c.07,0,.08-.11,0-.15l-1.67-1a.28.28,0,0,0-.25,0l-1.74,1c-.07,0-.08.11,0,.15l1.66,1A.25.25,0,0,0,95.41,232.81Zm-2.84,4.39L96.45,235c.08,0,.09-.11,0-.15l-4-2.33a.27.27,0,0,0-.26,0l-2,1.16c-.07,0-.08.1,0,.14L92.29,235c.07,0,.06.1,0,.14l-1.61.93c-.08,0-.08.11,0,.15l1.67,1A.28.28,0,0,0,92.57,237.2Zm-11.61-1-1.74,1c-.08,0-.08.11,0,.15l1.67,1a.28.28,0,0,0,.25,0l1.74-1c.07,0,.08-.1,0-.14l-1.67-1A.25.25,0,0,0,81,236.22Zm-2.55,1.46-1.74,1c-.07,0-.08.11,0,.15l1.66,1a.34.34,0,0,0,.26,0l1.74-1c.07,0,.08-.11,0-.14l-1.66-1A.3.3,0,0,0,78.41,237.68ZM64.34,253.37a.31.31,0,0,0,.25,0l1.74-1c.07,0,.08-.11,0-.14l-1.66-1a.31.31,0,0,0-.25,0l-1.74,1c-.08,0-.08.11,0,.14Zm-6.28-3.94-1.74,1c-.07,0-.08.11,0,.15l1.66,1a.31.31,0,0,0,.25,0l1.74-1c.08,0,.09-.11,0-.14l-1.67-1A.27.27,0,0,0,58.06,249.43Zm3.23,2.95a.28.28,0,0,0,.25,0l1.74-1c.07-.05.08-.11,0-.15l-1.67-1a.25.25,0,0,0-.25,0l-1.74,1c-.08,0-.08.11,0,.15Zm7,1.58,1.74-1c.07,0,.08-.11,0-.14l-1.66-1a.34.34,0,0,0-.26,0l-1.74,1c-.07,0-.08.11,0,.14l1.66,1A.34.34,0,0,0,68.31,254Zm-2.8,1.47a.28.28,0,0,0,.25,0l1.74-1c.08,0,.08-.11,0-.14l-1.67-1a.31.31,0,0,0-.25,0l-1.74,1c-.07,0-.08.11,0,.14ZM60.61,248l-1.74,1c-.08,0-.09.11,0,.15l1.67,1a.28.28,0,0,0,.25,0l1.74-1c.07,0,.08-.1,0-.14l-1.66-1A.25.25,0,0,0,60.61,248Zm12.72-7.35-1.75,1c-.07,0-.08.1,0,.14l1.66,1a.3.3,0,0,0,.26,0l1.74-1c.07,0,.08-.11,0-.15l-1.66-1A.28.28,0,0,0,73.33,240.62ZM63.15,246.5l-1.74,1c-.07,0-.08.11,0,.15l1.67,1a.28.28,0,0,0,.25,0l1.74-1c.08,0,.08-.11,0-.15l-1.67-1A.25.25,0,0,0,63.15,246.5Zm12.72-7.35-1.74,1c-.08,0-.08.11,0,.14l1.67,1a.31.31,0,0,0,.25,0l1.74-1c.08,0,.08-.11,0-.14l-1.67-1A.31.31,0,0,0,75.87,239.15Zm-5.09,2.94-1.74,1c-.07,0-.08.1,0,.14l1.66,1a.25.25,0,0,0,.25,0l1.74-1c.08,0,.09-.11,0-.15l-1.67-1A.28.28,0,0,0,70.78,242.09Zm-2.54,1.47-1.74,1c-.08.05-.08.11,0,.15l1.67,1a.25.25,0,0,0,.25,0l1.74-1c.07,0,.08-.11,0-.15l-1.67-1A.28.28,0,0,0,68.24,243.56ZM65.69,245,64,246c-.07.05-.08.11,0,.15l1.66,1a.3.3,0,0,0,.26,0l1.74-1c.07,0,.08-.11,0-.15L66,245A.3.3,0,0,0,65.69,245Zm11.62,1,1.74-1c.07,0,.08-.11,0-.15l-1.66-1a.28.28,0,0,0-.25,0l-1.74,1c-.08.05-.09.11,0,.15l1.67,1A.25.25,0,0,0,77.31,246ZM101,224.62l-1.74,1c-.07,0-.08.1,0,.14l1.66,1a.25.25,0,0,0,.25,0l1.74-1c.08,0,.08-.11,0-.15l-1.67-1A.28.28,0,0,0,101,224.62ZM98,226.4l-1.74,1c-.07,0-.08.11,0,.15l1.66,1a.28.28,0,0,0,.25,0l1.74-1c.08-.05.08-.11,0-.15l-1.67-1A.28.28,0,0,0,98,226.4Zm5.62-3.25-1.74,1c-.07,0-.08.1,0,.14l1.66,1a.3.3,0,0,0,.26,0l1.74-1c.07,0,.08-.11,0-.15l-1.66-1A.3.3,0,0,0,103.58,223.15ZM89.52,236.21l1.74-1c.08,0,.08-.11,0-.15l-1.67-1a.28.28,0,0,0-.25,0l-1.74,1c-.07,0-.08.1,0,.14l1.66,1A.25.25,0,0,0,89.52,236.21Zm16.86-14.54a.31.31,0,0,0-.25,0l-1.74,1c-.08,0-.08.11,0,.14l1.67,1a.28.28,0,0,0,.25,0l1.74-1c.08,0,.08-.11,0-.14ZM79.85,244.54l1.74-1c.08,0,.08-.11,0-.15l-1.67-1a.28.28,0,0,0-.25,0l-1.74,1c-.07,0-.08.1,0,.14l1.67,1A.25.25,0,0,0,79.85,244.54Zm31.2-18,1.74-1c.07,0,.08-.11,0-.15l-1.66-1a.28.28,0,0,0-.25,0l-1.74,1c-.08,0-.08.11,0,.15l1.67,1A.25.25,0,0,0,111.05,226.53Zm-4.92.1,1.74-1c.07,0,.08-.1,0-.14l-1.66-1a.3.3,0,0,0-.26,0l-1.74,1c-.07,0-.08.11,0,.15l1.66,1A.3.3,0,0,0,106.13,226.63Zm2.63-3.58a.25.25,0,0,0-.25,0l-1.74,1c-.08,0-.08.11,0,.15l1.67,1a.28.28,0,0,0,.25,0l1.74-1c.07,0,.08-.1,0-.14Zm.54-.31,4,2.33a.25.25,0,0,0,.25,0l1.74-1c.08,0,.08-.11,0-.15l-4-2.33a.25.25,0,0,0-.25,0l-1.74,1C109.24,222.63,109.23,222.7,109.3,222.74ZM103.42,226l-1.74,1c-.07,0-.08.11,0,.14l1.67,1a.31.31,0,0,0,.25,0l1.74-1c.08,0,.08-.11,0-.14l-1.67-1A.31.31,0,0,0,103.42,226ZM84.27,237.05l-1.74,1c-.07,0-.08.11,0,.15l1.66,1a.3.3,0,0,0,.26,0l1.74-1c.07-.05.08-.11,0-.15l-1.66-1A.3.3,0,0,0,84.27,237.05Zm24-9a.3.3,0,0,0,.26,0l1.74-1c.07-.05.08-.11,0-.15l-1.66-1a.3.3,0,0,0-.26,0l-1.74,1c-.07,0-.08.11,0,.15Zm-21.43,7.57-1.74,1c-.08,0-.08.11,0,.15l1.67,1a.25.25,0,0,0,.25,0l1.74-1c.07,0,.08-.11,0-.15l-1.67-1A.28.28,0,0,0,86.82,235.58ZM66.88,251.9a.31.31,0,0,0,.25,0l1.74-1c.08,0,.08-.1,0-.14l-1.67-1a.28.28,0,0,0-.25,0l-1.74,1c-.07,0-.08.11,0,.15Zm-3-3.1-1.74,1c-.07,0-.08.11,0,.15l1.66,1a.28.28,0,0,0,.25,0l1.74-1c.08-.05.09-.11,0-.15l-1.67-1A.25.25,0,0,0,63.92,248.8Zm5.76,1.62,1.74-1c.07,0,.08-.1,0-.14l-1.66-1a.27.27,0,0,0-.26,0l-1.74,1c-.07,0-.08.11,0,.15l1.66,1A.3.3,0,0,0,69.68,250.42ZM72.22,249,74,248c.07,0,.08-.11,0-.15l-1.67-1a.25.25,0,0,0-.25,0l-1.74,1c-.08,0-.08.11,0,.15L72,249A.28.28,0,0,0,72.22,249Zm2.54-1.47,1.74-1c.08,0,.09-.11,0-.15l-1.67-1a.28.28,0,0,0-.25,0l-1.74,1c-.07.05-.08.11,0,.15l1.66,1A.28.28,0,0,0,74.76,247.48Zm-8.29-.15-1.74,1c-.08,0-.09.11,0,.15l1.67,1a.25.25,0,0,0,.25,0l1.74-1c.07,0,.08-.11,0-.15l-1.66-1A.28.28,0,0,0,66.47,247.33ZM69,245.86l-1.74,1c-.07,0-.08.1,0,.14l1.67,1a.25.25,0,0,0,.25,0l1.74-1c.08,0,.08-.11,0-.15l-1.67-1A.28.28,0,0,0,69,245.86ZM79.19,240l-1.75,1c-.07,0-.08.11,0,.15l1.66,1a.3.3,0,0,0,.26,0l1.74-1c.07,0,.08-.1,0-.14l-1.66-1A.25.25,0,0,0,79.19,240Zm-2.55,1.46-1.74,1c-.07,0-.08.11,0,.14l1.66,1a.31.31,0,0,0,.25,0l1.74-1c.08,0,.09-.11,0-.14l-1.67-1A.27.27,0,0,0,76.64,241.45Zm5.09-2.93-1.74,1c-.08,0-.08.11,0,.15l1.67,1a.28.28,0,0,0,.25,0l1.74-1c.08-.05.08-.11,0-.15l-1.67-1A.25.25,0,0,0,81.73,238.52Zm-10.18,5.87-1.74,1c-.07,0-.08.1,0,.14l1.66,1a.3.3,0,0,0,.26,0l1.74-1c.07,0,.08-.11,0-.15l-1.66-1A.3.3,0,0,0,71.55,244.39Zm2.55-1.47-1.74,1c-.08,0-.08.11,0,.14L74,245a.31.31,0,0,0,.25,0L76,244c.07,0,.08-.11,0-.14l-1.67-1A.31.31,0,0,0,74.1,242.92Zm-3.25,9.57,1.74-1c.07,0,.08-.1,0-.14l-1.67-1a.25.25,0,0,0-.25,0l-1.74,1c-.08,0-.08.11,0,.15l1.67,1A.28.28,0,0,0,70.85,252.49Zm-13.41-.63-1.67-1a.31.31,0,0,0-.25,0l-1.74,1c-.08,0-.08.11,0,.14l1.67,1a.31.31,0,0,0,.25,0l1.74-1C57.49,252,57.5,251.89,57.44,251.86Zm3.31.83-1.66-1a.27.27,0,0,0-.26,0l-2.67,1.54c-.08,0-.08.11,0,.15l1.67,1a.28.28,0,0,0,.25,0l2.68-1.55C60.81,252.79,60.82,252.73,60.75,252.69ZM55,250l-1.66-1a.3.3,0,0,0-.26,0l-2.14,1.24c-.07,0-.08.11,0,.15l1.66,1a.28.28,0,0,0,.25,0l2.15-1.24C55,250.06,55,250,55,250Zm1.64-1a.3.3,0,0,0,.26,0l1.74-1c.07,0,.08-.1,0-.14l-1.66-1a.27.27,0,0,0-.26,0l-1.74,1c-.07,0-.08.11,0,.15Zm7.21,4.66-1.66-1a.34.34,0,0,0-.26,0l-3.35,1.93c-.07,0-.08.11,0,.15l1.67,1a.25.25,0,0,0,.25,0l3.35-1.93C63.86,253.78,63.87,253.71,63.8,253.67ZM65,255.74l-1.66-1a.28.28,0,0,0-.25,0L60.91,256c-.07,0-.08.11,0,.14l1.66,1a.34.34,0,0,0,.26,0L65,255.89C65,255.85,65,255.78,65,255.74Zm10.54-17.65a.28.28,0,0,0,.25,0l1.74-1c.07,0,.08-.1,0-.14l-1.67-1a.25.25,0,0,0-.25,0l-1.74,1c-.08,0-.08.11,0,.15ZM70.42,241a.31.31,0,0,0,.25,0l1.74-1c.08,0,.08-.11,0-.14l-1.67-1a.31.31,0,0,0-.25,0l-1.74,1c-.08,0-.08.11,0,.14Zm-11.28,6.51a.28.28,0,0,0,.25,0l1.74-1c.07-.05.08-.11,0-.15l-1.67-1a.25.25,0,0,0-.25,0l-1.74,1c-.08,0-.08.11,0,.15Zm13.82-8a.34.34,0,0,0,.26,0l1.74-1c.07,0,.08-.1,0-.14l-1.66-1a.3.3,0,0,0-.26,0l-1.74,1c-.07,0-.08.11,0,.15Zm-5.08,2.93a.27.27,0,0,0,.25,0l1.74-1c.07,0,.08-.11,0-.14l-1.66-1a.31.31,0,0,0-.25,0l-1.75,1c-.07,0-.08.11,0,.14Zm-1.66,13.36a.25.25,0,0,0-.25,0l-2.68,1.54c-.07,0-.08.11,0,.15l1.66,1a.3.3,0,0,0,.26,0L67.87,257c.08,0,.08-.1,0-.14Zm-2-11.25a.27.27,0,0,0,.26,0l1.74-1c.07,0,.08-.11,0-.15l-1.66-1a.3.3,0,0,0-.26,0l-1.74,1c-.07,0-.08.11,0,.15Zm-2.54,1.47a.25.25,0,0,0,.25,0l1.74-1c.08-.05.08-.11,0-.15L62,244a.28.28,0,0,0-.25,0L60,245c-.07,0-.08.11,0,.15Zm51.67-17.43a.25.25,0,0,0-.25,0l-4.28,2.47c-.08,0-.09.11,0,.14l1.67,1a.31.31,0,0,0,.25,0l4.28-2.48c.08,0,.08-.1,0-.14Zm-5.62,3.24a.31.31,0,0,0-.25,0l-1.74,1c-.08,0-.08.1,0,.14l1.67,1a.28.28,0,0,0,.25,0l1.74-1c.07,0,.08-.11,0-.15ZM73.39,251l1.74-1c.08,0,.09-.1,0-.14l-1.67-1a.25.25,0,0,0-.25,0l-1.74,1c-.07,0-.08.11,0,.15l1.66,1A.28.28,0,0,0,73.39,251Zm29.25-16.2a.28.28,0,0,0-.25,0l-1.74,1c-.08,0-.08.11,0,.15l1.67,1a.25.25,0,0,0,.25,0l1.74-1c.08,0,.08-.11,0-.15Zm13.26-7.65a.27.27,0,0,0-.26,0l-1.74,1c-.07,0-.08.11,0,.15l1.66,1a.3.3,0,0,0,.26,0l1.74-1c.07-.05.08-.11,0-.15Zm4.21-.51-4-2.33a.28.28,0,0,0-.25,0l-1.74,1c-.08,0-.08.11,0,.15l4,2.33a.28.28,0,0,0,.25,0l1.74-1C120.17,226.76,120.17,226.7,120.11,226.66Zm-27,13.65a.3.3,0,0,0-.26,0l-2.14,1.23c-.07,0-.08.11,0,.15l1.66,1a.25.25,0,0,0,.25,0l2.15-1.23c.07,0,.08-.11,0-.15Zm6.42-3.71a.25.25,0,0,0-.25,0l-2.68,1.54c-.07,0-.08.11,0,.15l1.66,1a.28.28,0,0,0,.25,0l2.68-1.54c.08-.05.08-.11,0-.15Zm-12.32,7.11a.28.28,0,0,0-.25,0L72.67,252c-.08,0-.09.11,0,.15l1.67,1a.28.28,0,0,0,.25,0l14.32-8.27c.08,0,.09-.11,0-.15Zm-15.13,8.74a.27.27,0,0,0-.25,0l-2.14,1.24c-.07,0-.08.11,0,.15l1.67,1a.28.28,0,0,0,.25,0l2.14-1.24c.08,0,.09-.11,0-.14ZM90.19,242a.28.28,0,0,0-.25,0l-2.15,1.24c-.07,0-.08.1,0,.14l1.66,1a.27.27,0,0,0,.26,0l2.14-1.23c.07-.05.08-.11,0-.15Zm-21,12.14a.28.28,0,0,0-.25,0l-2.15,1.24c-.07,0-.08.11,0,.15l1.66,1a.3.3,0,0,0,.26,0l2.14-1.24c.07,0,.08-.1,0-.14Zm26.91-15.54a.25.25,0,0,0-.25,0l-2.14,1.23c-.08.05-.08.11,0,.15l1.67,1a.25.25,0,0,0,.25,0l2.14-1.23c.08-.05.08-.11,0-.15Zm9.11-5.26a.3.3,0,0,0-.26,0l-1.74,1c-.07,0-.08.1,0,.14l1.66,1a.27.27,0,0,0,.26,0l1.74-1c.07,0,.08-.11,0-.15Zm5.69-4,1.74-1c.08,0,.09-.11,0-.15l-1.67-1a.31.31,0,0,0-.25,0l-1.74,1c-.07,0-.08.1,0,.14l1.66,1A.28.28,0,0,0,110.88,229.38Zm-10.38.5,1.74-1c.08,0,.08-.11,0-.15l-1.67-1a.28.28,0,0,0-.25,0l-1.74,1c-.07,0-.08.1,0,.14l1.67,1A.28.28,0,0,0,100.5,229.88Zm-6.75,9.39,5.08-2.94c.08,0,.08-.11,0-.14l-1.67-1a.28.28,0,0,0-.25,0l-5.09,2.94c-.07,0-.08.11,0,.15l1.66,1A.3.3,0,0,0,93.75,239.27Zm14.34-8.42a.25.25,0,0,0,.25,0l1.74-1c.07,0,.08-.11,0-.15l-1.67-1a.28.28,0,0,0-.25,0l-1.74,1c-.08,0-.08.1,0,.14ZM106,229.47l1.74-1c.08-.05.08-.11,0-.15l-1.67-1a.25.25,0,0,0-.25,0l-1.74,1c-.08,0-.08.11,0,.15l1.67,1A.28.28,0,0,0,106,229.47ZM91.2,240.74l1.74-1c.08,0,.08-.1,0-.14l-1.67-1a.25.25,0,0,0-.25,0l-1.74,1c-.08,0-.08.11,0,.15l1.67,1A.28.28,0,0,0,91.2,240.74Zm11.26-6.64a.3.3,0,0,0,.26,0l1.74-1c.07-.05.08-.11,0-.15l-1.66-1a.27.27,0,0,0-.26,0l-1.74,1c-.07,0-.08.11,0,.15Zm-24,14,1.74-1c.08-.05.08-.11,0-.15l-1.67-1a.28.28,0,0,0-.25,0l-1.74,1c-.07.05-.08.11,0,.15l1.67,1A.25.25,0,0,0,78.48,248.08ZM81,246.61l1.74-1c.07,0,.08-.11,0-.15l-1.66-1a.3.3,0,0,0-.26,0l-1.74,1c-.07.05-.08.11,0,.15l1.66,1A.27.27,0,0,0,81,246.61Zm-5.09,2.94,1.74-1c.07-.05.08-.11,0-.15l-1.66-1a.25.25,0,0,0-.25,0l-1.74,1c-.08.05-.09.11,0,.15l1.67,1A.28.28,0,0,0,75.94,249.55Zm10.17-5.87,1.74-1c.08,0,.09-.11,0-.14l-1.67-1a.31.31,0,0,0-.25,0l-1.74,1c-.07,0-.08.11,0,.14l1.66,1A.28.28,0,0,0,86.11,243.68Zm-2.54,1.46,1.74-1c.07,0,.08-.11,0-.15l-1.67-1a.28.28,0,0,0-.25,0l-1.74,1c-.08,0-.08.1,0,.14l1.67,1A.25.25,0,0,0,83.57,245.14Zm5.09-2.93,1.74-1c.07,0,.08-.11,0-.14l-1.66-1a.28.28,0,0,0-.25,0l-1.75,1c-.07,0-.08.11,0,.14l1.66,1A.34.34,0,0,0,88.66,242.21Zm13.88-20.43a.31.31,0,0,0,.25,0l1.74-1c.08,0,.08-.11,0-.14l-.44-.26a.3.3,0,0,0-.26,0l-1.74,1c-.07,0-.08.11,0,.15Zm-12.64,8a.28.28,0,0,0,.25,0l1.74-1c.07-.05.08-.11,0-.15l-1.66-1a.28.28,0,0,0-.25,0l-1.74,1c-.08.05-.09.11,0,.15ZM95,226.84a.27.27,0,0,0,.26,0l1.74-1c.07,0,.08-.11,0-.15l-1.66-1a.3.3,0,0,0-.26,0l-1.74,1c-.07,0-.08.1,0,.14Zm-8.19,4.73a.28.28,0,0,0,.25,0l1.74-1c.08,0,.08-.11,0-.15l-1.67-1a.31.31,0,0,0-.25,0l-1.74,1c-.07,0-.08.1,0,.14Zm5.65-3.26a.25.25,0,0,0,.25,0l1.74-1c.08,0,.08-.11,0-.15l-1.67-1a.28.28,0,0,0-.25,0l-1.74,1c-.07.05-.08.11,0,.15Zm-10.74,6.2a.25.25,0,0,0,.25,0l1.75-1c.07,0,.08-.11,0-.15l-1.67-1a.28.28,0,0,0-.25,0l-1.74,1c-.07,0-.08.11,0,.15ZM84.25,233a.25.25,0,0,0,.25,0l1.74-1c.07,0,.08-.11,0-.15l-1.66-1a.28.28,0,0,0-.25,0l-1.74,1c-.08,0-.09.1,0,.14Zm13.2-8.33a.27.27,0,0,0,.26,0l1.74-1c.07,0,.08-.11,0-.15L99,223.3a.27.27,0,0,0-.26,0l-1.74,1c-.07,0-.08.11,0,.15Zm7.63-4.4a.34.34,0,0,0,.26,0l1.74-1c.07,0,.08-.11,0-.14l-.44-.26a.28.28,0,0,0-.25,0l-1.74,1c-.08,0-.08.11,0,.15Zm3.5,2a.31.31,0,0,0,.25,0l1.75-1c.07,0,.08-.11,0-.14l-1.66-1a.3.3,0,0,0-.26,0l-1.74,1c-.07,0-.08.11,0,.14Zm4.85,5.58,1.74-1c.07,0,.08-.11,0-.14l-1.66-1a.31.31,0,0,0-.25,0l-1.75,1c-.07,0-.08.11,0,.14l1.66,1A.34.34,0,0,0,113.43,227.91ZM100,223.24a.27.27,0,0,0,.25,0l1.74-1c.07,0,.08-.11,0-.15l-.44-.25a.25.25,0,0,0-.25,0l-1.74,1c-.08,0-.08.11,0,.15ZM79.16,236a.28.28,0,0,0,.25,0l1.74-1c.08-.05.08-.11,0-.15l-1.67-1a.28.28,0,0,0-.25,0l-1.74,1c-.08,0-.08.11,0,.15Z"/><path class="cls-6" d="M98,231.34l1.74-1c.07,0,.08-.11,0-.15l-1.66-1a.28.28,0,0,0-.25,0l-1.74,1c-.08,0-.09.1,0,.14l1.67,1A.25.25,0,0,0,98,231.34Zm-2.54-3.47-1.74,1c-.08,0-.08.11,0,.15l1.67,1a.28.28,0,0,0,.25,0l1.74-1c.07-.05.08-.11,0-.15l-1.67-1A.25.25,0,0,0,95.42,227.87Zm-5.63,3.24-2.94,1.7c-.08.05-.08.11,0,.15l1.67,1a.25.25,0,0,0,.25,0l3-1.7c.07,0,.08-.11,0-.14l-1.66-1A.34.34,0,0,0,89.79,231.11Zm3.08-1.77-1.74,1c-.07,0-.08.11,0,.15l1.66,1a.3.3,0,0,0,.26,0l1.74-1c.07,0,.08-.1,0-.14l-1.66-1A.27.27,0,0,0,92.87,229.34ZM86,233.28l-1.74,1c-.07.05-.08.11,0,.15l1.66,1a.3.3,0,0,0,.26,0l1.74-1c.07,0,.08-.11,0-.15l-1.66-1A.3.3,0,0,0,86,233.28Zm-2.54,1.47-1.74,1c-.07,0-.08.11,0,.15l1.66,1a.28.28,0,0,0,.25,0l1.74-1c.08,0,.08-.11,0-.15l-1.67-1A.25.25,0,0,0,83.5,234.75ZM90,238.67l1.74-1c.07,0,.08-.1,0-.14l-1.66-1a.25.25,0,0,0-.25,0l-1.75,1c-.07,0-.08.11,0,.15l1.67,1A.28.28,0,0,0,90,238.67Zm-2.55,1.47,1.74-1c.08,0,.09-.1,0-.14l-1.67-1a.27.27,0,0,0-.25,0l-1.74,1c-.07,0-.08.11,0,.15l1.66,1A.31.31,0,0,0,87.48,240.14Zm-2.54,1.47,1.74-1c.07,0,.08-.11,0-.14l-1.67-1a.31.31,0,0,0-.25,0l-1.74,1c-.08,0-.08.11,0,.14l1.67,1A.31.31,0,0,0,84.94,241.61Zm-2.54,1.47,1.74-1c.07,0,.08-.11,0-.15l-1.66-1a.34.34,0,0,0-.26,0l-1.74,1c-.07,0-.08.11,0,.14l1.66,1A.3.3,0,0,0,82.4,243.08Zm13-10.27,1.75-1c.07,0,.08-.11,0-.15l-1.67-1a.28.28,0,0,0-.25,0l-1.74,1c-.07,0-.08.11,0,.15l1.66,1A.25.25,0,0,0,95.41,232.81Zm-2.84,4.39L96.45,235c.08,0,.09-.11,0-.15l-4-2.33a.27.27,0,0,0-.26,0l-2,1.16c-.07,0-.08.1,0,.14L92.29,235c.07,0,.06.1,0,.14l-1.61.93c-.08,0-.08.11,0,.15l1.67,1A.28.28,0,0,0,92.57,237.2Zm-11.61-1-1.74,1c-.08,0-.08.11,0,.15l1.67,1a.28.28,0,0,0,.25,0l1.74-1c.07,0,.08-.1,0-.14l-1.67-1A.25.25,0,0,0,81,236.22Zm-2.55,1.46-1.74,1c-.07,0-.08.11,0,.15l1.66,1a.34.34,0,0,0,.26,0l1.74-1c.07,0,.08-.11,0-.14l-1.66-1A.3.3,0,0,0,78.41,237.68ZM64.34,253.37a.31.31,0,0,0,.25,0l1.74-1c.07,0,.08-.11,0-.14l-1.66-1a.31.31,0,0,0-.25,0l-1.74,1c-.08,0-.08.11,0,.14Zm-6.28-3.94-1.74,1c-.07,0-.08.11,0,.15l1.66,1a.31.31,0,0,0,.25,0l1.74-1c.08,0,.09-.11,0-.14l-1.67-1A.27.27,0,0,0,58.06,249.43Zm3.23,2.95a.28.28,0,0,0,.25,0l1.74-1c.07-.05.08-.11,0-.15l-1.67-1a.25.25,0,0,0-.25,0l-1.74,1c-.08,0-.08.11,0,.15Zm7,1.58,1.74-1c.07,0,.08-.11,0-.14l-1.66-1a.34.34,0,0,0-.26,0l-1.74,1c-.07,0-.08.11,0,.14l1.66,1A.34.34,0,0,0,68.31,254Zm-2.8,1.47a.28.28,0,0,0,.25,0l1.74-1c.08,0,.08-.11,0-.14l-1.67-1a.31.31,0,0,0-.25,0l-1.74,1c-.07,0-.08.11,0,.14ZM60.61,248l-1.74,1c-.08,0-.09.11,0,.15l1.67,1a.28.28,0,0,0,.25,0l1.74-1c.07,0,.08-.1,0-.14l-1.66-1A.25.25,0,0,0,60.61,248Zm12.72-7.35-1.75,1c-.07,0-.08.1,0,.14l1.66,1a.3.3,0,0,0,.26,0l1.74-1c.07,0,.08-.11,0-.15l-1.66-1A.28.28,0,0,0,73.33,240.62ZM63.15,246.5l-1.74,1c-.07,0-.08.11,0,.15l1.67,1a.28.28,0,0,0,.25,0l1.74-1c.08,0,.08-.11,0-.15l-1.67-1A.25.25,0,0,0,63.15,246.5Zm12.72-7.35-1.74,1c-.08,0-.08.11,0,.14l1.67,1a.31.31,0,0,0,.25,0l1.74-1c.08,0,.08-.11,0-.14l-1.67-1A.31.31,0,0,0,75.87,239.15Zm-5.09,2.94-1.74,1c-.07,0-.08.1,0,.14l1.66,1a.25.25,0,0,0,.25,0l1.74-1c.08,0,.09-.11,0-.15l-1.67-1A.28.28,0,0,0,70.78,242.09Zm-2.54,1.47-1.74,1c-.08.05-.08.11,0,.15l1.67,1a.25.25,0,0,0,.25,0l1.74-1c.07,0,.08-.11,0-.15l-1.67-1A.28.28,0,0,0,68.24,243.56ZM65.69,245,64,246c-.07.05-.08.11,0,.15l1.66,1a.3.3,0,0,0,.26,0l1.74-1c.07,0,.08-.11,0-.15L66,245A.3.3,0,0,0,65.69,245Zm11.62,1,1.74-1c.07,0,.08-.11,0-.15l-1.66-1a.28.28,0,0,0-.25,0l-1.74,1c-.08.05-.09.11,0,.15l1.67,1A.25.25,0,0,0,77.31,246ZM101,224.62l-1.74,1c-.07,0-.08.1,0,.14l1.66,1a.25.25,0,0,0,.25,0l1.74-1c.08,0,.08-.11,0-.15l-1.67-1A.28.28,0,0,0,101,224.62ZM98,226.4l-1.74,1c-.07,0-.08.11,0,.15l1.66,1a.28.28,0,0,0,.25,0l1.74-1c.08-.05.08-.11,0-.15l-1.67-1A.28.28,0,0,0,98,226.4Zm5.62-3.25-1.74,1c-.07,0-.08.1,0,.14l1.66,1a.3.3,0,0,0,.26,0l1.74-1c.07,0,.08-.11,0-.15l-1.66-1A.3.3,0,0,0,103.58,223.15ZM89.52,236.21l1.74-1c.08,0,.08-.11,0-.15l-1.67-1a.28.28,0,0,0-.25,0l-1.74,1c-.07,0-.08.1,0,.14l1.66,1A.25.25,0,0,0,89.52,236.21Zm16.86-14.54a.31.31,0,0,0-.25,0l-1.74,1c-.08,0-.08.11,0,.14l1.67,1a.28.28,0,0,0,.25,0l1.74-1c.08,0,.08-.11,0-.14ZM79.85,244.54l1.74-1c.08,0,.08-.11,0-.15l-1.67-1a.28.28,0,0,0-.25,0l-1.74,1c-.07,0-.08.1,0,.14l1.67,1A.25.25,0,0,0,79.85,244.54Zm31.2-18,1.74-1c.07,0,.08-.11,0-.15l-1.66-1a.28.28,0,0,0-.25,0l-1.74,1c-.08,0-.08.11,0,.15l1.67,1A.25.25,0,0,0,111.05,226.53Zm-4.92.1,1.74-1c.07,0,.08-.1,0-.14l-1.66-1a.3.3,0,0,0-.26,0l-1.74,1c-.07,0-.08.11,0,.15l1.66,1A.3.3,0,0,0,106.13,226.63Zm2.63-3.58a.25.25,0,0,0-.25,0l-1.74,1c-.08,0-.08.11,0,.15l1.67,1a.28.28,0,0,0,.25,0l1.74-1c.07,0,.08-.1,0-.14Zm.54-.31,4,2.33a.25.25,0,0,0,.25,0l1.74-1c.08,0,.08-.11,0-.15l-4-2.33a.25.25,0,0,0-.25,0l-1.74,1C109.24,222.63,109.23,222.7,109.3,222.74ZM103.42,226l-1.74,1c-.07,0-.08.11,0,.14l1.67,1a.31.31,0,0,0,.25,0l1.74-1c.08,0,.08-.11,0-.14l-1.67-1A.31.31,0,0,0,103.42,226ZM84.27,237.05l-1.74,1c-.07,0-.08.11,0,.15l1.66,1a.3.3,0,0,0,.26,0l1.74-1c.07-.05.08-.11,0-.15l-1.66-1A.3.3,0,0,0,84.27,237.05Zm24-9a.3.3,0,0,0,.26,0l1.74-1c.07-.05.08-.11,0-.15l-1.66-1a.3.3,0,0,0-.26,0l-1.74,1c-.07,0-.08.11,0,.15Zm-21.43,7.57-1.74,1c-.08,0-.08.11,0,.15l1.67,1a.25.25,0,0,0,.25,0l1.74-1c.07,0,.08-.11,0-.15l-1.67-1A.28.28,0,0,0,86.82,235.58ZM66.88,251.9a.31.31,0,0,0,.25,0l1.74-1c.08,0,.08-.1,0-.14l-1.67-1a.28.28,0,0,0-.25,0l-1.74,1c-.07,0-.08.11,0,.15Zm-3-3.1-1.74,1c-.07,0-.08.11,0,.15l1.66,1a.28.28,0,0,0,.25,0l1.74-1c.08-.05.09-.11,0-.15l-1.67-1A.25.25,0,0,0,63.92,248.8Zm5.76,1.62,1.74-1c.07,0,.08-.1,0-.14l-1.66-1a.27.27,0,0,0-.26,0l-1.74,1c-.07,0-.08.11,0,.15l1.66,1A.3.3,0,0,0,69.68,250.42ZM72.22,249,74,248c.07,0,.08-.11,0-.15l-1.67-1a.25.25,0,0,0-.25,0l-1.74,1c-.08,0-.08.11,0,.15L72,249A.28.28,0,0,0,72.22,249Zm2.54-1.47,1.74-1c.08,0,.09-.11,0-.15l-1.67-1a.28.28,0,0,0-.25,0l-1.74,1c-.07.05-.08.11,0,.15l1.66,1A.28.28,0,0,0,74.76,247.48Zm-8.29-.15-1.74,1c-.08,0-.09.11,0,.15l1.67,1a.25.25,0,0,0,.25,0l1.74-1c.07,0,.08-.11,0-.15l-1.66-1A.28.28,0,0,0,66.47,247.33ZM69,245.86l-1.74,1c-.07,0-.08.1,0,.14l1.67,1a.25.25,0,0,0,.25,0l1.74-1c.08,0,.08-.11,0-.15l-1.67-1A.28.28,0,0,0,69,245.86ZM79.19,240l-1.75,1c-.07,0-.08.11,0,.15l1.66,1a.3.3,0,0,0,.26,0l1.74-1c.07,0,.08-.1,0-.14l-1.66-1A.25.25,0,0,0,79.19,240Zm-2.55,1.46-1.74,1c-.07,0-.08.11,0,.14l1.66,1a.31.31,0,0,0,.25,0l1.74-1c.08,0,.09-.11,0-.14l-1.67-1A.27.27,0,0,0,76.64,241.45Zm5.09-2.93-1.74,1c-.08,0-.08.11,0,.15l1.67,1a.28.28,0,0,0,.25,0l1.74-1c.08-.05.08-.11,0-.15l-1.67-1A.25.25,0,0,0,81.73,238.52Zm-10.18,5.87-1.74,1c-.07,0-.08.1,0,.14l1.66,1a.3.3,0,0,0,.26,0l1.74-1c.07,0,.08-.11,0-.15l-1.66-1A.3.3,0,0,0,71.55,244.39Zm2.55-1.47-1.74,1c-.08,0-.08.11,0,.14L74,245a.31.31,0,0,0,.25,0L76,244c.07,0,.08-.11,0-.14l-1.67-1A.31.31,0,0,0,74.1,242.92Zm-3.25,9.57,1.74-1c.07,0,.08-.1,0-.14l-1.67-1a.25.25,0,0,0-.25,0l-1.74,1c-.08,0-.08.11,0,.15l1.67,1A.28.28,0,0,0,70.85,252.49Zm-13.41-.63-1.67-1a.31.31,0,0,0-.25,0l-1.74,1c-.08,0-.08.11,0,.14l1.67,1a.31.31,0,0,0,.25,0l1.74-1C57.49,252,57.5,251.89,57.44,251.86Zm3.31.83-1.66-1a.27.27,0,0,0-.26,0l-2.67,1.54c-.08,0-.08.11,0,.15l1.67,1a.28.28,0,0,0,.25,0l2.68-1.55C60.81,252.79,60.82,252.73,60.75,252.69ZM55,250l-1.66-1a.3.3,0,0,0-.26,0l-2.14,1.24c-.07,0-.08.11,0,.15l1.66,1a.28.28,0,0,0,.25,0l2.15-1.24C55,250.06,55,250,55,250Zm1.64-1a.3.3,0,0,0,.26,0l1.74-1c.07,0,.08-.1,0-.14l-1.66-1a.27.27,0,0,0-.26,0l-1.74,1c-.07,0-.08.11,0,.15Zm7.21,4.66-1.66-1a.34.34,0,0,0-.26,0l-3.35,1.93c-.07,0-.08.11,0,.15l1.67,1a.25.25,0,0,0,.25,0l3.35-1.93C63.86,253.78,63.87,253.71,63.8,253.67ZM65,255.74l-1.66-1a.28.28,0,0,0-.25,0L60.91,256c-.07,0-.08.11,0,.14l1.66,1a.34.34,0,0,0,.26,0L65,255.89C65,255.85,65,255.78,65,255.74Zm10.54-17.65a.28.28,0,0,0,.25,0l1.74-1c.07,0,.08-.1,0-.14l-1.67-1a.25.25,0,0,0-.25,0l-1.74,1c-.08,0-.08.11,0,.15ZM70.42,241a.31.31,0,0,0,.25,0l1.74-1c.08,0,.08-.11,0-.14l-1.67-1a.31.31,0,0,0-.25,0l-1.74,1c-.08,0-.08.11,0,.14Zm-11.28,6.51a.28.28,0,0,0,.25,0l1.74-1c.07-.05.08-.11,0-.15l-1.67-1a.25.25,0,0,0-.25,0l-1.74,1c-.08,0-.08.11,0,.15Zm13.82-8a.34.34,0,0,0,.26,0l1.74-1c.07,0,.08-.1,0-.14l-1.66-1a.3.3,0,0,0-.26,0l-1.74,1c-.07,0-.08.11,0,.15Zm-5.08,2.93a.27.27,0,0,0,.25,0l1.74-1c.07,0,.08-.11,0-.14l-1.66-1a.31.31,0,0,0-.25,0l-1.75,1c-.07,0-.08.11,0,.14Zm-1.66,13.36a.25.25,0,0,0-.25,0l-2.68,1.54c-.07,0-.08.11,0,.15l1.66,1a.3.3,0,0,0,.26,0L67.87,257c.08,0,.08-.1,0-.14Zm-2-11.25a.27.27,0,0,0,.26,0l1.74-1c.07,0,.08-.11,0-.15l-1.66-1a.3.3,0,0,0-.26,0l-1.74,1c-.07,0-.08.11,0,.15Zm-2.54,1.47a.25.25,0,0,0,.25,0l1.74-1c.08-.05.08-.11,0-.15L62,244a.28.28,0,0,0-.25,0L60,245c-.07,0-.08.11,0,.15Zm51.67-17.43a.25.25,0,0,0-.25,0l-4.28,2.47c-.08,0-.09.11,0,.14l1.67,1a.31.31,0,0,0,.25,0l4.28-2.48c.08,0,.08-.1,0-.14Zm-5.62,3.24a.31.31,0,0,0-.25,0l-1.74,1c-.08,0-.08.1,0,.14l1.67,1a.28.28,0,0,0,.25,0l1.74-1c.07,0,.08-.11,0-.15ZM73.39,251l1.74-1c.08,0,.09-.1,0-.14l-1.67-1a.25.25,0,0,0-.25,0l-1.74,1c-.07,0-.08.11,0,.15l1.66,1A.28.28,0,0,0,73.39,251Zm29.25-16.2a.28.28,0,0,0-.25,0l-1.74,1c-.08,0-.08.11,0,.15l1.67,1a.25.25,0,0,0,.25,0l1.74-1c.08,0,.08-.11,0-.15Zm13.26-7.65a.27.27,0,0,0-.26,0l-1.74,1c-.07,0-.08.11,0,.15l1.66,1a.3.3,0,0,0,.26,0l1.74-1c.07-.05.08-.11,0-.15Zm4.21-.51-4-2.33a.28.28,0,0,0-.25,0l-1.74,1c-.08,0-.08.11,0,.15l4,2.33a.28.28,0,0,0,.25,0l1.74-1C120.17,226.76,120.17,226.7,120.11,226.66Zm-27,13.65a.3.3,0,0,0-.26,0l-2.14,1.23c-.07,0-.08.11,0,.15l1.66,1a.25.25,0,0,0,.25,0l2.15-1.23c.07,0,.08-.11,0-.15Zm6.42-3.71a.25.25,0,0,0-.25,0l-2.68,1.54c-.07,0-.08.11,0,.15l1.66,1a.28.28,0,0,0,.25,0l2.68-1.54c.08-.05.08-.11,0-.15Zm-12.32,7.11a.28.28,0,0,0-.25,0L72.67,252c-.08,0-.09.11,0,.15l1.67,1a.28.28,0,0,0,.25,0l14.32-8.27c.08,0,.09-.11,0-.15Zm-15.13,8.74a.27.27,0,0,0-.25,0l-2.14,1.24c-.07,0-.08.11,0,.15l1.67,1a.28.28,0,0,0,.25,0l2.14-1.24c.08,0,.09-.11,0-.14ZM90.19,242a.28.28,0,0,0-.25,0l-2.15,1.24c-.07,0-.08.1,0,.14l1.66,1a.27.27,0,0,0,.26,0l2.14-1.23c.07-.05.08-.11,0-.15Zm-21,12.14a.28.28,0,0,0-.25,0l-2.15,1.24c-.07,0-.08.11,0,.15l1.66,1a.3.3,0,0,0,.26,0l2.14-1.24c.07,0,.08-.1,0-.14Zm26.91-15.54a.25.25,0,0,0-.25,0l-2.14,1.23c-.08.05-.08.11,0,.15l1.67,1a.25.25,0,0,0,.25,0l2.14-1.23c.08-.05.08-.11,0-.15Zm9.11-5.26a.3.3,0,0,0-.26,0l-1.74,1c-.07,0-.08.1,0,.14l1.66,1a.27.27,0,0,0,.26,0l1.74-1c.07,0,.08-.11,0-.15Zm5.69-4,1.74-1c.08,0,.09-.11,0-.15l-1.67-1a.31.31,0,0,0-.25,0l-1.74,1c-.07,0-.08.1,0,.14l1.66,1A.28.28,0,0,0,110.88,229.38Zm-10.38.5,1.74-1c.08,0,.08-.11,0-.15l-1.67-1a.28.28,0,0,0-.25,0l-1.74,1c-.07,0-.08.1,0,.14l1.67,1A.28.28,0,0,0,100.5,229.88Zm-6.75,9.39,5.08-2.94c.08,0,.08-.11,0-.14l-1.67-1a.28.28,0,0,0-.25,0l-5.09,2.94c-.07,0-.08.11,0,.15l1.66,1A.3.3,0,0,0,93.75,239.27Zm14.34-8.42a.25.25,0,0,0,.25,0l1.74-1c.07,0,.08-.11,0-.15l-1.67-1a.28.28,0,0,0-.25,0l-1.74,1c-.08,0-.08.1,0,.14ZM106,229.47l1.74-1c.08-.05.08-.11,0-.15l-1.67-1a.25.25,0,0,0-.25,0l-1.74,1c-.08,0-.08.11,0,.15l1.67,1A.28.28,0,0,0,106,229.47ZM91.2,240.74l1.74-1c.08,0,.08-.1,0-.14l-1.67-1a.25.25,0,0,0-.25,0l-1.74,1c-.08,0-.08.11,0,.15l1.67,1A.28.28,0,0,0,91.2,240.74Zm11.26-6.64a.3.3,0,0,0,.26,0l1.74-1c.07-.05.08-.11,0-.15l-1.66-1a.27.27,0,0,0-.26,0l-1.74,1c-.07,0-.08.11,0,.15Zm-24,14,1.74-1c.08-.05.08-.11,0-.15l-1.67-1a.28.28,0,0,0-.25,0l-1.74,1c-.07.05-.08.11,0,.15l1.67,1A.25.25,0,0,0,78.48,248.08ZM81,246.61l1.74-1c.07,0,.08-.11,0-.15l-1.66-1a.3.3,0,0,0-.26,0l-1.74,1c-.07.05-.08.11,0,.15l1.66,1A.27.27,0,0,0,81,246.61Zm-5.09,2.94,1.74-1c.07-.05.08-.11,0-.15l-1.66-1a.25.25,0,0,0-.25,0l-1.74,1c-.08.05-.09.11,0,.15l1.67,1A.28.28,0,0,0,75.94,249.55Zm10.17-5.87,1.74-1c.08,0,.09-.11,0-.14l-1.67-1a.31.31,0,0,0-.25,0l-1.74,1c-.07,0-.08.11,0,.14l1.66,1A.28.28,0,0,0,86.11,243.68Zm-2.54,1.46,1.74-1c.07,0,.08-.11,0-.15l-1.67-1a.28.28,0,0,0-.25,0l-1.74,1c-.08,0-.08.1,0,.14l1.67,1A.25.25,0,0,0,83.57,245.14Zm5.09-2.93,1.74-1c.07,0,.08-.11,0-.14l-1.66-1a.28.28,0,0,0-.25,0l-1.75,1c-.07,0-.08.11,0,.14l1.66,1A.34.34,0,0,0,88.66,242.21Zm13.88-20.43a.31.31,0,0,0,.25,0l1.74-1c.08,0,.08-.11,0-.14l-.44-.26a.3.3,0,0,0-.26,0l-1.74,1c-.07,0-.08.11,0,.15Zm-12.64,8a.28.28,0,0,0,.25,0l1.74-1c.07-.05.08-.11,0-.15l-1.66-1a.28.28,0,0,0-.25,0l-1.74,1c-.08.05-.09.11,0,.15ZM95,226.84a.27.27,0,0,0,.26,0l1.74-1c.07,0,.08-.11,0-.15l-1.66-1a.3.3,0,0,0-.26,0l-1.74,1c-.07,0-.08.1,0,.14Zm-8.19,4.73a.28.28,0,0,0,.25,0l1.74-1c.08,0,.08-.11,0-.15l-1.67-1a.31.31,0,0,0-.25,0l-1.74,1c-.07,0-.08.1,0,.14Zm5.65-3.26a.25.25,0,0,0,.25,0l1.74-1c.08,0,.08-.11,0-.15l-1.67-1a.28.28,0,0,0-.25,0l-1.74,1c-.07.05-.08.11,0,.15Zm-10.74,6.2a.25.25,0,0,0,.25,0l1.75-1c.07,0,.08-.11,0-.15l-1.67-1a.28.28,0,0,0-.25,0l-1.74,1c-.07,0-.08.11,0,.15ZM84.25,233a.25.25,0,0,0,.25,0l1.74-1c.07,0,.08-.11,0-.15l-1.66-1a.28.28,0,0,0-.25,0l-1.74,1c-.08,0-.09.1,0,.14Zm13.2-8.33a.27.27,0,0,0,.26,0l1.74-1c.07,0,.08-.11,0-.15L99,223.3a.27.27,0,0,0-.26,0l-1.74,1c-.07,0-.08.11,0,.15Zm7.63-4.4a.34.34,0,0,0,.26,0l1.74-1c.07,0,.08-.11,0-.14l-.44-.26a.28.28,0,0,0-.25,0l-1.74,1c-.08,0-.08.11,0,.15Zm3.5,2a.31.31,0,0,0,.25,0l1.75-1c.07,0,.08-.11,0-.14l-1.66-1a.3.3,0,0,0-.26,0l-1.74,1c-.07,0-.08.11,0,.14Zm4.85,5.58,1.74-1c.07,0,.08-.11,0-.14l-1.66-1a.31.31,0,0,0-.25,0l-1.75,1c-.07,0-.08.11,0,.14l1.66,1A.34.34,0,0,0,113.43,227.91ZM100,223.24a.27.27,0,0,0,.25,0l1.74-1c.07,0,.08-.11,0-.15l-.44-.25a.25.25,0,0,0-.25,0l-1.74,1c-.08,0-.08.11,0,.15ZM79.16,236a.28.28,0,0,0,.25,0l1.74-1c.08-.05.08-.11,0-.15l-1.67-1a.28.28,0,0,0-.25,0l-1.74,1c-.08,0-.08.11,0,.15Z"/><polygon class="cls-26" points="86.57 249.1 86.93 249.31 96.41 254.78 113.27 245.05 113.62 244.84 103.78 239.17 86.57 249.1"/><polygon class="cls-9" points="86.93 249.31 96.41 254.78 113.27 245.05 103.78 239.57 86.93 249.31"/><polygon class="cls-27" points="86.93 249.31 96.41 254.78 113.27 245.05 103.78 239.57 86.93 249.31"/><path class="cls-9" d="M38,247.33a2.55,2.55,0,0,0,.48.2,2.55,2.55,0,0,1-.48-.2l-.15-.1Z"/><path class="cls-9" d="M40.7,247.48s0,0,0,0l0,0Z"/><path class="cls-11" d="M44.88,200.69l51.64-29.82c.59-.35,1.08-.07,1.08.62v33.42a2.39,2.39,0,0,1-1.08,1.87L44.88,236.6c-.59.34-1.08.06-1.08-.63V202.56A2.39,2.39,0,0,1,44.88,200.69Z"/><path class="cls-9" d="M80.51,200.64l-1.23-.4c1-5.76-1-7.37-4-7.23,1.28.57,2.27,3.5,1.66,6.47l-1.22-.4c-.25-.08-.56.37-.52.73l.6,5.37c0,.24.22.3.42.13l4.2-3.8C80.68,201.25,80.75,200.72,80.51,200.64Z"/><path class="cls-17" d="M76.39,196.57c-.23-1.73-.94-3.09-1.77-3.46,0,0-3.12.68-5.57,5.53C69.05,198.64,72.9,194.51,76.39,196.57Z"/><path class="cls-9" d="M64.66,206.83l1.23.4c-1,5.76,1,7.36,4,7.23-1.27-.57-2.27-3.5-1.66-6.47l1.23.4c.24.08.56-.38.52-.74l-.61-5.36c0-.24-.22-.31-.41-.13L64.77,206C64.49,206.22,64.42,206.75,64.66,206.83Z"/><path class="cls-17" d="M68.79,210.9c.23,1.72.93,3.09,1.76,3.46,0,0,3.12-.69,5.57-5.53C76.12,208.83,72.27,213,68.79,210.9Z"/><path class="cls-4" d="M97.6,171.48c0-.68-.49-.95-1.08-.61L44.88,200.69a2.39,2.39,0,0,0-1.08,1.87v2.65l53.8-31.07Z"/></g></g><g id="Papers"><path id="Shadow-7" data-name="Shadow" class="cls-14" d="M121.57,292.8a2.67,2.67,0,0,1-1.33-.33L98.08,279.68a1.1,1.1,0,0,1,0-2l4-2.28-1.9-1.1a1.1,1.1,0,0,1,0-2l32.61-18.83a2.84,2.84,0,0,1,1.33-.32,2.78,2.78,0,0,1,1.33.32l22.16,12.8a1.1,1.1,0,0,1,0,2l-3.95,2.28,1.89,1.09a1.23,1.23,0,0,1,.68,1,1.21,1.21,0,0,1-.68,1L122.9,292.47A2.7,2.7,0,0,1,121.57,292.8Z"/><path class="cls-3" d="M155.76,270.91a.8.8,0,0,0-.46-.64l-22.16-12.8a2.5,2.5,0,0,0-2.23,0L98.3,276.3a.79.79,0,0,0-.47.65v1a.81.81,0,0,0,.47.64l22.16,12.79a2.48,2.48,0,0,0,2.22,0l32.62-18.83a.79.79,0,0,0,.46-.63Z"/><path class="cls-11" d="M98.3,276.3l32.61-18.83a2.5,2.5,0,0,1,2.23,0l22.16,12.8a.68.68,0,0,1,0,1.29l-32.62,18.82a2.42,2.42,0,0,1-2.22,0L98.3,277.59A.68.68,0,0,1,98.3,276.3Z"/><path class="cls-4" d="M121.57,290.65v1a2.26,2.26,0,0,1-1.12-.26L98.3,278.6a.78.78,0,0,1-.46-.64v-1a.78.78,0,0,0,.46.65l22.15,12.79A2.26,2.26,0,0,0,121.57,290.65Z"/><path class="cls-3" d="M157.82,265.51a.8.8,0,0,0-.46-.65L135.2,252.07a2.44,2.44,0,0,0-2.23,0L100.36,270.9a.79.79,0,0,0-.47.64v1a.81.81,0,0,0,.47.64L122.52,286a2.42,2.42,0,0,0,2.22,0l32.62-18.82a.82.82,0,0,0,.46-.64Z"/><path class="cls-11" d="M100.36,270.9,133,252.07a2.44,2.44,0,0,1,2.23,0l22.16,12.79a.68.68,0,0,1,0,1.29L124.74,285a2.48,2.48,0,0,1-2.22,0l-22.16-12.8A.67.67,0,0,1,100.36,270.9Z"/><path class="cls-4" d="M123.63,285.24v1a2.26,2.26,0,0,1-1.12-.27l-22.15-12.79a.78.78,0,0,1-.46-.64v-1a.77.77,0,0,0,.46.64L122.51,285A2.26,2.26,0,0,0,123.63,285.24Z"/></g><g id="Black_pencil" data-name="Black pencil"><polygon id="Shadow-8" data-name="Shadow" class="cls-6" points="140.41 211.25 160.85 223.03 158.39 224.44 138.09 212.59 136.08 209.76 140.41 211.25"/><g id="Pencil-2" data-name="Pencil"><path class="cls-22" d="M138.42,211.83,136,208.94a.12.12,0,0,1,.12-.19l3.71.82Z"/><path class="cls-20" d="M136.08,208.75h0l3.71.82-.74,1.19-.4-.24-2.59-1.64Z"/><path class="cls-18" d="M136.1,208.75a.12.12,0,0,0-.12.19l.48.56h0a.63.63,0,0,1,.37-.55l.06,0Z"/><path class="cls-7" d="M156.59,219.7l-.3-.18-.36-.22-16.12-9.73a1.67,1.67,0,0,0-1,.69,1.72,1.72,0,0,0-.36,1.57l16.11,9.72.69.42C154.79,221.67,156.15,219.41,156.59,219.7Z"/><path class="cls-8" d="M156.59,219.7l-.3-.18-.36-.22-16.12-9.73a1.78,1.78,0,0,0-1.18.92l16.81,10.26c0,.05,0,.07,0,.07C155.81,220.17,156.34,219.54,156.59,219.7Z"/><path class="cls-3" d="M155.45,219l-.67-.41c-.19-.12-.56.22-.89.67s-.72,1.45-.47,1.61l.5.3.17.1c-.25-.16,0-1,.47-1.61.32-.43.67-.76.87-.67h0Z"/><path class="cls-7" d="M155.28,218.91c-.44-.29-1.8,2-1.35,2.27l.66.41c-.44-.29.92-2.56,1.36-2.28Z"/><path class="cls-3" d="M156.59,219.7l-.66-.4c-.43-.29-1.76,1.9-1.4,2.25l0,0,.67.4C154.79,221.67,156.15,219.41,156.59,219.7Z"/><path class="cls-20" d="M136,208.8a.11.11,0,0,1,.09-.05A.11.11,0,0,0,136,208.8Z"/><path class="cls-22" d="M159.39,221.39l-2.8-1.69c-.19-.13-.56.21-.89.65-.44.6-.73,1.45-.48,1.62h0l2.81,1.7c.56.34,1.39-.72,1.56-1.53A.69.69,0,0,0,159.39,221.39Z"/><path class="cls-6" d="M158.53,221.67a2.07,2.07,0,0,0-.66,1.7.45.45,0,0,0,.26.34c.55.18,1.3-.8,1.46-1.57a.7.7,0,0,0-.19-.74C159.19,221.28,158.86,221.37,158.53,221.67Z"/></g></g><g id="Coffe"><g class="cls-28"><path d="M163.84,254.11a19.46,19.46,0,0,1,14.13,0c3.83,1.78,3.83,4.65,0,6.42a19.46,19.46,0,0,1-14.13,0C159.87,258.76,159.87,255.89,163.84,254.11Z"/></g><path class="cls-29" d="M164.3,240.35a21.86,21.86,0,0,1,13.2,0c3.58,1.37,3.58,3.58,0,4.94a21.71,21.71,0,0,1-13.2,0C160.6,243.93,160.6,241.72,164.3,240.35Z"/><path class="cls-5" d="M161.21,233.42l19.29,0L179,256.17h0c-.09.82-.87,1.64-2.34,2.27a17,17,0,0,1-11.57,0c-1.53-.63-2.33-1.45-2.42-2.27h0Z"/><path class="cls-4" d="M180.5,233.44l-.3,4.62a8.56,8.56,0,0,1-1.61.86,23.38,23.38,0,0,1-15.36,0c-.19-.07-.35-.16-.52-.23a11.79,11.79,0,0,1-1.21-.68l-.29-4.59Z"/><path class="cls-7" d="M160.86,234.19V231h2.07a8.56,8.56,0,0,1,.91-.42,21.52,21.52,0,0,1,14.13,0,6.89,6.89,0,0,1,.86.42h2v3.19h0c0,1-1,2.08-2.87,2.88a21.65,21.65,0,0,1-14.13,0C161.86,236.27,160.86,235.23,160.86,234.19Z"/><path class="cls-8" d="M163.84,228.12a21.52,21.52,0,0,1,14.13,0c3.83,1.59,3.83,4.16,0,5.75a21.52,21.52,0,0,1-14.13,0C159.87,232.28,159.87,229.71,163.84,228.12Z"/><path class="cls-7" d="M163.42,230.1h0l.8-2.14H177.5l.8,2.14h0c.3.83-.39,1.7-2.09,2.33a17.65,17.65,0,0,1-10.62,0C163.82,231.8,163.11,230.93,163.42,230.1Z"/><path class="cls-8" d="M166.16,226.48a15.71,15.71,0,0,1,9.45,0c2.57,1,2.57,2.53,0,3.49a15.71,15.71,0,0,1-9.45,0C163.51,229,163.51,227.44,166.16,226.48Z"/><path class="cls-7" d="M165.09,228.23a.92.92,0,0,0,.3.33,4.5,4.5,0,0,0,1.08.55,13.94,13.94,0,0,0,4.45.67,13,13,0,0,0,4.37-.67,3.7,3.7,0,0,0,1.05-.55c.22-.18.28-.31.28-.34s-.23-.47-1.33-.88a13,13,0,0,0-4.37-.67,13.67,13.67,0,0,0-4.45.67C165.37,227.74,165.1,228.14,165.09,228.23Z"/><path class="cls-18" d="M165.39,228.56a4.5,4.5,0,0,0,1.08.55,13.94,13.94,0,0,0,4.45.67,13,13,0,0,0,4.37-.67,3.7,3.7,0,0,0,1.05-.55,3.66,3.66,0,0,0-1.05-.56,13.22,13.22,0,0,0-4.37-.66,13.67,13.67,0,0,0-4.45.67A3.86,3.86,0,0,0,165.39,228.56Z"/><path d="M168,228.62a1.31,1.31,0,0,0-1-.2c-.2.11,0,.37.35.6a1.31,1.31,0,0,0,1,.2C168.59,229.1,168.43,228.84,168,228.62Z"/><path class="cls-30" d="M179.64,251c0,.84-.84,1.68-2.53,2.33a20.6,20.6,0,0,1-12.43,0c-1.74-.65-2.61-1.49-2.62-2.33l-.54-8.22c0,.9.93,1.79,2.78,2.47a21.71,21.71,0,0,0,13.2,0c1.79-.68,2.68-1.57,2.68-2.47Z"/><path class="cls-31" d="M167.86,251.44a13.15,13.15,0,0,1-.74-1.39,4,4,0,0,0-2.15-1.89.26.26,0,0,0-.33.12,2.93,2.93,0,0,0,.78,3.25,3,3,0,0,0,3.23.81.11.11,0,0,0,0-.16A2.72,2.72,0,0,1,167.86,251.44Z"/><path class="cls-31" d="M165.49,247.9a4.55,4.55,0,0,1,1.35.83,4,4,0,0,1,1,1.34,4.06,4.06,0,0,0,1.24,1.64.27.27,0,0,0,.37-.06,2.84,2.84,0,0,0-.66-3.46,2.94,2.94,0,0,0-3.32-.77A.27.27,0,0,0,165.49,247.9Z"/></g><g id="Pot"><g class="cls-28"><path d="M246.75,129.05c5,2.89,5,7.58,0,10.47s-13.12,2.89-18.12,0-5-7.58,0-10.47S241.75,126.16,246.75,129.05Z"/></g><path class="cls-3" d="M229.72,134.93c-4.36-4.45-6.92-15.55-2.67-19.08h21.63c4.25,3.53,1.7,14.63-2.66,19.08l-.12.12-.15.15c-.12.12-.25.23-.39.35l-.11.08c-.1.08-.21.17-.33.25a6.65,6.65,0,0,1-.56.36,14.36,14.36,0,0,1-13,0h0a6.65,6.65,0,0,1-.56-.36l-.31-.24-.13-.1c-.13-.11-.26-.22-.38-.34l-.17-.16Z"/><path class="cls-5" d="M246.8,114.43c4.94,2.85,4.94,7.47,0,10.32s-12.93,2.85-17.87,0-4.94-7.47,0-10.32S241.87,111.58,246.8,114.43Z"/><path class="cls-3" d="M243.3,116.45c3,1.73,3,4.54,0,6.28a12,12,0,0,1-10.87,0c-3-1.74-3-4.55,0-6.28A12,12,0,0,1,243.3,116.45Z"/><path class="cls-4" d="M232.43,119.43a12,12,0,0,1,10.87,0,4.94,4.94,0,0,1,1.8,1.65,4.94,4.94,0,0,1-1.8,1.65,12,12,0,0,1-10.87,0,5,5,0,0,1-1.8-1.65A5,5,0,0,1,232.43,119.43Z"/><path class="cls-9" d="M242.64,121.08a24.78,24.78,0,0,0,3.94-5.23c1.81-3.21,2.15-7.52,1.21-8s-4.76,3.76-4.76,3.76a23.34,23.34,0,0,0,.4-5.48c-.16-2.86-.86-5.46-1.68-6s-2.65,3.08-3.44,5.7-1.25,4.76-1.25,4.76a41.08,41.08,0,0,0-1.41-6c-1-2.71-1.82-3.33-2.49-3.06s-1.11,1.54-1.31,5.15a35.54,35.54,0,0,0,.16,5.18s-1.34-1.48-2.84-2.92-2.35-1.8-2.82-1.49-.6,2.75,2,7.36a25.56,25.56,0,0,0,4.8,6.32S236.62,123.35,242.64,121.08Z"/></g></g></g><g id="Speech_Bubble" data-name="Speech Bubble"><g id="Speach_Bubble" data-name="Speach Bubble"><g id="Speach_Bubble-2" data-name="Speach Bubble"><path class="cls-9" d="M365.36,69.47V58.16l-9.55-.84a.74.74,0,0,0-.4.08l-8.18,4.7a.71.71,0,0,0-.16,1.08l10.13,11Z"/><path class="cls-9" d="M357.2,74.15l-10.13-11a.7.7,0,0,1,.58-1.17l9.55.83Z"/><path class="cls-9" d="M365.35,58.15l-8.15,4.69L347.65,62a.7.7,0,0,0-.33.05c.76-.45,7.74-4.47,8.09-4.65a.59.59,0,0,1,.4-.08Z"/><path class="cls-16" d="M365.35,58.15l-8.15,4.69L347.65,62a.7.7,0,0,0-.33.05c.76-.45,7.74-4.47,8.09-4.65a.59.59,0,0,1,.4-.08Z"/><g id="Speach_Bubble-3" data-name="Speach Bubble"><path class="cls-9" d="M357.19,49.15A5.24,5.24,0,0,1,359.56,45l1.93-1.11a5.21,5.21,0,0,1,4.74,0L395.83,61a5.25,5.25,0,0,1,2.37,4.11V97.71a5.22,5.22,0,0,1-2.37,4.1l-1.93,1.12a5.27,5.27,0,0,1-4.74,0l-29.6-17.12a5.22,5.22,0,0,1-2.37-4.1Z"/><path class="cls-32" d="M398.2,97.71a5.22,5.22,0,0,1-2.37,4.1l-1.93,1.12a5.33,5.33,0,0,1-4.34.19c1.12.42,2-.21,2-1.56V69a4.87,4.87,0,0,0-.7-2.34l6.67-3.85a4.83,4.83,0,0,1,.7,2.34Z"/><path class="cls-16" d="M357.27,48.47c.28-1,1.2-1.32,2.29-.69l29.6,17.12a4.65,4.65,0,0,1,1.67,1.76l6.66-3.84a4.74,4.74,0,0,0-1.66-1.77L366.24,43.93a5.3,5.3,0,0,0-4.75,0L359.56,45A5.23,5.23,0,0,0,357.27,48.47Z"/></g></g><path class="cls-11" d="M361.8,73.79l1.72-.91c-3-8.32-.48-11.22,4.06-11.81-1.75,1.18-2.45,5.79-.76,10.05l1.72-.92c.33-.18.93.41,1,1l.52,8.14c0,.37-.24.51-.58.3l-7.25-4.54C361.7,74.75,361.46,74,361.8,73.79Z"/><path class="cls-33" d="M366.85,66.65c-.12-2.62.57-4.84,1.71-5.61,0,0,4.82.19,9.74,6.75C378.3,67.79,371.48,62.67,366.85,66.65Z"/><path class="cls-11" d="M387,78.8l-1.72.91c3,8.32.48,11.22-4.05,11.81,1.74-1.18,2.44-5.79.76-10l-1.72.92c-.34.18-.94-.41-1-1l-.52-8.14c0-.37.25-.51.58-.3l7.25,4.54C387.08,77.84,387.32,78.62,387,78.8Z"/><path class="cls-33" d="M381.94,85.94c.11,2.62-.58,4.84-1.71,5.61,0,0-4.82-.19-9.75-6.75C370.48,84.8,377.3,89.92,381.94,85.94Z"/></g></g><g id="Character"><g id="Character-2" data-name="Character"><path class="cls-20" d="M403,133.23c1.36,2.12.82,5.37-3,10-3.27,4-8,5.54-9.15,4.33S397.85,131.86,403,133.23Z"/><g id="Device_2" data-name="Device 2"><path class="cls-9" d="M380.85,158.21l.7-.1a2.61,2.61,0,0,0,1.49-.71l24.38-29.73a.7.7,0,0,0-.08-1l-15-11.94a2.37,2.37,0,0,0-1.56-.29l-.7.1a2.68,2.68,0,0,0-1.49.72L364.16,145a.7.7,0,0,0,.08,1l15.05,11.94A2.37,2.37,0,0,0,380.85,158.21Z"/><path class="cls-34" d="M380.85,158.21l.7-.1a2.61,2.61,0,0,0,1.49-.71l24.38-29.73a.7.7,0,0,0-.08-1l-15-11.94a2.37,2.37,0,0,0-1.56-.29l-.7.1a2.68,2.68,0,0,0-1.49.72L364.16,145a.7.7,0,0,0,.08,1l15.05,11.94A2.37,2.37,0,0,0,380.85,158.21Z"/><path class="cls-9" d="M379.39,158a2.65,2.65,0,0,0,1.47.22l.69-.1a2.62,2.62,0,0,0,1.49-.72l24.38-29.72a.85.85,0,0,0,.18-.53l-2.74.38a.78.78,0,0,1-.17.53l-24.38,29.73A.77.77,0,0,1,379.39,158Z"/><path class="cls-9" d="M404.69,128.05l-24.38,29.73a.74.74,0,0,1-1,.14L364.24,146a.7.7,0,0,1-.08-1l24.38-29.72a.74.74,0,0,1,1-.15L404.61,127A.71.71,0,0,1,404.69,128.05Z"/><path class="cls-35" d="M404.69,128.05l-24.38,29.73a.74.74,0,0,1-1,.14L364.24,146a.7.7,0,0,1-.08-1l24.38-29.72a.74.74,0,0,1,1-.15L404.61,127A.71.71,0,0,1,404.69,128.05Z"/><path class="cls-11" d="M401.42,129.61l-13.74-10.9a.63.63,0,0,0-.87.12l-19.45,23.72a.62.62,0,0,0,.06.87l13.74,10.89a.64.64,0,0,0,.88-.12l19.45-23.72A.6.6,0,0,0,401.42,129.61Z"/><path class="cls-9" d="M377.71,134.14l1.21,0c1.7-3.22,4-3.77,6.52-3.22a6.18,6.18,0,0,0-4.22,3.18l1.2,0c.24,0,.31.29.12.48l-2.85,2.76a.28.28,0,0,1-.41,0l-1.85-2.69C377.3,134.44,377.48,134.15,377.71,134.14Z"/><path class="cls-17" d="M382.94,132.62a5.65,5.65,0,0,1,3-1.57,3.83,3.83,0,0,1,2.24,3.82A4.91,4.91,0,0,0,382.94,132.62Z"/><path class="cls-9" d="M388.28,139.92l-1.21,0c-1.7,3.22-4.05,3.77-6.52,3.22a6.17,6.17,0,0,0,4.22-3.19l-1.21,0c-.23,0-.3-.28-.11-.47l2.85-2.76a.27.27,0,0,1,.41,0l1.85,2.69C388.69,139.62,388.51,139.91,388.28,139.92Z"/><path class="cls-17" d="M383,141.44a5.67,5.67,0,0,1-3,1.57,3.83,3.83,0,0,1-2.24-3.82A4.9,4.9,0,0,0,383,141.44Z"/><path class="cls-18" d="M396.45,121.84a.49.49,0,0,0-.68.1.48.48,0,0,0,.05.68.49.49,0,0,0,.68-.1A.48.48,0,0,0,396.45,121.84Z"/><path class="cls-18" d="M396.6,123.8c-.76-.58-2.07-1.65-2.8-2.24a.29.29,0,1,0-.37.44l2.82,2.24a.31.31,0,0,0,.41,0A.27.27,0,0,0,396.6,123.8Z"/><path class="cls-18" d="M397.31,124.36a.27.27,0,0,0-.38,0,.27.27,0,0,0,0,.38.28.28,0,0,0,.39-.05A.27.27,0,0,0,397.31,124.36Z"/><path class="cls-18" d="M373.66,149.64a1,1,0,0,0-1.37.19.94.94,0,0,0,.11,1.35,1,1,0,0,0,1.36-.19A.94.94,0,0,0,373.66,149.64Z"/></g><path class="cls-20" d="M332.36,110.61c3.69,10.62,12.64,32.85,12.64,32.85s21.65-8.93,24.44-11.72c1.73-1.73,2.57-3.58,3.64-4.51,3.93-3.41,6.6-2.74,10.67-4.73,1-.5,2.35-.5,2.4.92.06,1.64-1.4,3.32-2.7,4.16a8.87,8.87,0,0,1-1.79.84l-2.19.84A15.76,15.76,0,0,0,375.8,131a5.51,5.51,0,0,0-1,1l-4.22,5.16-4.17,5.07L364.16,145a.68.68,0,0,0,.08,1l4.82,3.83s-16.42,9-21.47,11.35-10.84,5.76-15.11-3.45c-4.58-9.86-13.93-33.66-13.93-33.66l-1.89-26.76C321.75,97.64,328.28,98.87,332.36,110.61Z"/><path class="cls-7" d="M314.88,97s5.25-.34,8.41,1.06c2.8,1.26,7.3,2.62,10.37,9.84,2.3,5.4,10.63,29.07,10.63,29.07a27.45,27.45,0,0,1-18.3,7.44C320.83,123.47,314.88,97,314.88,97Z"/><path class="cls-20" d="M330.65,290.52l-4.18,17.13s-7.32,2-11.27-1.29-2.11-4.89-2.11-4.89l.27-1.19,2.13-20.06Z"/><path class="cls-8" d="M307.32,309.46c-.84-.07-1.9,2.93-1.87,3.9s1.07,3,2.43,4.88a35.1,35.1,0,0,1,4.51,7.31,36,36,0,0,0,5.51,9.2c3.06,3.88,10.07,9.29,20.78,6a10,10,0,0,0,4.82-2.69,4.73,4.73,0,0,0,.57-4.12Z"/><path class="cls-9" d="M327.61,305.34c-.11,2.36-.61,7.54,2.57,12.7,1.48,2.39,5.25,5,7.32,6.78,4.39,3.87,4.92,4.58,5.22,9.11.31,4.7-16.89,3.86-20,1.39a20.92,20.92,0,0,1-7.19-9,65.57,65.57,0,0,0-3.92-7.48c-1.49-2.54-4.23-5.37-4.42-8.05-.1-1.47,1.24-4.27,2.56-6.58,1.22-2.13,2.48-4.15,3.65-4l-.27,1.19a8.61,8.61,0,0,0,3.61,1.93c.63.2,1.4,4.86,2.11,4.85s-.41-2.82.9-2.46C325.2,307.29,327.61,305.34,327.61,305.34Z"/><path class="cls-36" d="M327.61,305.34c-.11,2.36-.61,7.54,2.57,12.7,1.48,2.39,5.25,5,7.32,6.78,4.39,3.87,4.92,4.58,5.22,9.11.31,4.7-16.89,3.86-20,1.39a20.92,20.92,0,0,1-7.19-9,65.57,65.57,0,0,0-3.92-7.48c-1.49-2.54-4.23-5.37-4.42-8.05-.1-1.47,1.24-4.27,2.56-6.58,1.22-2.13,2.48-4.15,3.65-4l-.27,1.19a8.61,8.61,0,0,0,3.61,1.93c.63.2,1.4,4.86,2.11,4.85s-.41-2.82.9-2.46C325.2,307.29,327.61,305.34,327.61,305.34Z"/><path class="cls-5" d="M322.68,335.32a12.5,12.5,0,0,1,7.84-9.38c5.81-2.39,8-.88,9.83.09,1.14.61,5.94,4.75,3.33,9.7C343.18,336.81,333.47,343.49,322.68,335.32Z"/><path class="cls-20" d="M320.94,315.77c.13,3-.11,7.16.72,10.31.63,2.41,1.34,4.93,1.9,7.35.25,1.07.5,2.14.71,3.22a5.43,5.43,0,0,1-.13,3.41,4.46,4.46,0,0,1-1,1.27,9.58,9.58,0,0,1-6.72,2.27,7.22,7.22,0,0,1-3.66-1c-2.15-1.42-3-4-4.16-6.17-1.26-2.36-.53-3.6-.73-6.17a89.5,89.5,0,0,0-1.34-10.2C311.14,314.7,315.1,314.29,320.94,315.77Z"/><path class="cls-8" d="M306.46,341c-.8.27-.6,3.45-.19,4.33a10.5,10.5,0,0,0,3.79,3.84,17.11,17.11,0,0,1,5.5,5.54,29.1,29.1,0,0,0,9.14,8.46c4.35,2.36,10.15,2.61,15.46.65s5.83-3.42,5.69-5.47Z"/><path class="cls-9" d="M322.77,327.66c1.23,3.24,4.42,11.87,10.37,15.92,4.73,3.22,11.07,6.81,13.13,10.86,2.14,4.21-7.1,7.05-11.11,6.91-3.12-.1-7.26-.11-10.38-2.06a27.18,27.18,0,0,1-4.28-3.3c-2.65-2.45-4.55-5.52-6.47-7.46s-6-3.84-7.19-6.23c-.67-1.31-.54-4.42-.23-7.07.28-2.44.08-4.71,1.24-5l.2,1.41a24.31,24.31,0,0,0,4.65.06c.66-.06,2.11,1.85,2.77,1.56s-.63-1.76.14-2.88C318.09,326.72,322.77,327.66,322.77,327.66Z"/><path class="cls-23" d="M322.77,327.66c1.23,3.24,4.42,11.87,10.37,15.92,4.73,3.22,11.07,6.81,13.13,10.86,2.14,4.21-7.1,7.05-11.11,6.91-3.12-.1-7.26-.11-10.38-2.06a27.18,27.18,0,0,1-4.28-3.3c-2.65-2.45-4.55-5.52-6.47-7.46s-6-3.84-7.19-6.23c-.67-1.31-.54-4.42-.23-7.07.28-2.44.08-4.71,1.24-5l.2,1.41a24.31,24.31,0,0,0,4.65.06c.66-.06,2.11,1.85,2.77,1.56s-.63-1.76.14-2.88C318.09,326.72,322.77,327.66,322.77,327.66Z"/><path class="cls-5" d="M324.78,359.29s1.25-7.9,8-11.08,9.27-.28,10.32.48,6.19,4.82,2.73,9.63C345.85,358.32,336.83,366.28,324.78,359.29Z"/><path class="cls-8" d="M335.26,179.78c5.87,29.57,12.79,61.36,9.45,74.26-2.51,9.66-14.57,42.07-14.57,42.07-4.22.59-12.83,1.53-16.2-5.86-.85-12,.51-86.1.51-86.1Z"/><path class="cls-7" d="M314.45,204.15a54.72,54.72,0,0,0,14-12.19s-1.58,6-9.49,13.72c0,0,8,42.79,7.95,51s-4.46,37.64-4.46,37.64Z"/><path class="cls-8" d="M335.26,179.78c-5.7,11.82-12.12,21.49-20.81,24.37,0,0,7.87,43.34,8.41,53.17.9,16.35-1.36,53.16-1.2,64.4-2,4.41-12.19,4.59-15,1.77-.74-5.47-8.12-24.17-9-40.61-.62-12.08,1.6-18.88,1.86-22-1.26-2.9-20.1-35.82-23.75-60.42-1.61-10.86-.56-16.78-.62-23l60.11,2.38"/><path class="cls-37" d="M279.62,100.85s-4.8.1-4.19,16.47a134.46,134.46,0,0,0-2.66,26.31c-.13,15.32,2.1,38.94,2.1,38.94,8.08,9.15,48.13,6.42,60.39-2.79-.63-2.74-3.45-19.23-4.84-28.75.4-11.72.71-25,.38-32.32C330.21,106,326,97,315.25,97l-15.32.87Z"/><path class="cls-18" d="M296.67,64.67c0,9,7,16.38,15.72,16.38s15.33-7.34,15.72-16.38c.7-16-7-16.37-15.72-16.37S296.67,55.63,296.67,64.67Z"/><path class="cls-18" d="M287.17,58.32c1.84-2.86,3.57-2.43,3.57-2.43L292,69.82l1.93.4.17,18.8a5.4,5.4,0,0,1-2.37-2.54c-.65-1.32-2-9.27-2.82-14C288.86,72.44,285.6,60.79,287.17,58.32Z"/><path class="cls-20" d="M293.61,73.34c-.91.57-2.21-1.26-3.33-2.48S285.49,68,283.66,72s1.62,9.49,4.5,10.44c5,1.62,5.72-1.7,5.72-1.7l.38,18.69c6.61,10.22,21.57,9.85,16.19-.49V93.23a30.29,30.29,0,0,0,6.7.36c3.66-.59,6-3.6,7.07-7.72,1.79-6.63,2.46-12,1-25-1.66-14.28-17.61-14.43-26.22-8.78S293.61,73.34,293.61,73.34Z"/><path class="cls-18" d="M317.83,59.86c-7.39.19-12-1.37-18.1-2.09a2.32,2.32,0,0,0-1.23.08c-1.36.61-1.65,4.81-1.88,6-.8,4.09-1.47,11-3,11.06-.45,0-2.2-3-3.33-4.08-1.57-1.49.45-15,.46-15,.07-.47-.35-1.32-.37-1.83a6.25,6.25,0,0,1,1-3.42,10.35,10.35,0,0,1,5.48-4.47c4.14-1.62,8.69-1.42,12.81-3.27a34.47,34.47,0,0,1,4.93-2.22c1.74-.47,3.82-.3,5,1a6.25,6.25,0,0,1,1.3,3.28A8.56,8.56,0,0,1,324,42.11c2.41-1.07,5.39.43,6.63,2.75s1,5.17.29,7.69a9.76,9.76,0,0,1-1,2.37C327.56,58.6,321.83,59.76,317.83,59.86Z"/><path class="cls-18" d="M290.74,56.6l-5.5-3.08a3,3,0,0,1,4.17-1.44A3.49,3.49,0,0,1,290.74,56.6Z"/><path class="cls-22" d="M310.44,93.23s-8.17-1.72-11-3.3a9.57,9.57,0,0,1-3.94-4.06,13.55,13.55,0,0,0,2.24,4.79c2.09,2.78,12.73,4.83,12.73,4.83Z"/><path class="cls-18" d="M308.47,71.21a1.64,1.64,0,1,1-1.63-1.77A1.7,1.7,0,0,1,308.47,71.21Z"/><path class="cls-18" d="M306.43,64.94l-3.5,2a2.23,2.23,0,0,1,.82-2.9A1.9,1.9,0,0,1,306.43,64.94Z"/><path class="cls-22" d="M309.7,83l3.73,1.46a2,2,0,0,1-2.54,1.29A2.21,2.21,0,0,1,309.7,83Z"/><path class="cls-18" d="M323.18,67.09,320,64.52a1.89,1.89,0,0,1,2.78-.44A2.28,2.28,0,0,1,323.18,67.09Z"/><path class="cls-18" d="M322.08,70.73A1.64,1.64,0,1,1,320.45,69,1.71,1.71,0,0,1,322.08,70.73Z"/><polygon class="cls-22" points="313.33 69.36 313.52 79.7 319.38 78.35 313.33 69.36"/><path class="cls-20" d="M266.78,212.43c1.56,1.46,2.41,3.42,4,6.32s9.51,3.18,10.14-5c.48-6.14-.41-9-5.16-13.33s-6.18-6.29-6.5-8.56-.25-38.15-.25-38.15l11.3-30.41s5.28-15.45-.7-22.47c0,0-7.65-.38-12.87,4.83-6.1,6.09-11.41,33.68-12.94,39.76-1.2,4.8-2.47,6.79-1.44,16.52s4,37.15,5.26,41.66S262.59,208.49,266.78,212.43Z"/><path class="cls-7" d="M281.24,100.61s-6.85-1.1-12.22,2.62-7.1,8-10,18.14-4.25,17.21-4.25,17.21-.82,3,7.82,6.08,10.7.83,10.7.83,8.44-22.7,9.81-27.3S285.88,105.15,281.24,100.61Z"/></g></g></g></svg>