<svg id="visual" viewBox="0 0 900 600" width="900" height="600" xmlns="http://www.w3.org/2000/svg" xmlns:xlink="http://www.w3.org/1999/xlink" version="1.1"><rect x="0" y="0" width="900" height="600" fill="#e3e6e9"></rect><defs><linearGradient id="grad1_0" x1="33.3%" y1="100%" x2="100%" y2="0%"><stop offset="20%" stop-color="#e3e6e9" stop-opacity="1"></stop><stop offset="80%" stop-color="#e3e6e9" stop-opacity="1"></stop></linearGradient></defs><defs><linearGradient id="grad2_0" x1="0%" y1="100%" x2="66.7%" y2="0%"><stop offset="20%" stop-color="#e3e6e9" stop-opacity="1"></stop><stop offset="80%" stop-color="#e3e6e9" stop-opacity="1"></stop></linearGradient></defs><g transform="translate(900, 600)"><path d="M-216.3 0C-209.7 -21.9 -203 -43.8 -194 -63C-185 -82.3 -173.7 -98.9 -163.4 -118.7C-153.1 -138.5 -143.8 -161.5 -127.2 -175C-110.6 -188.5 -86.7 -192.5 -64.3 -197.8C-41.9 -203.1 -20.9 -209.7 0 -216.3L0 0Z" fill="#3396FF"></path></g><g transform="translate(0, 0)"><path d="M216.3 0C217.4 24.6 218.4 49.3 205.7 66.9C193.1 84.4 166.8 95 150.5 109.3C134.1 123.7 127.7 141.8 115.8 159.4C103.8 177 86.4 194.1 66.1 203.5C45.9 212.9 23 214.6 0 216.3L0 0Z" fill="#3396FF"></path></g></svg>