<svg xmlns="http://www.w3.org/2000/svg" viewBox="0 0 330.16 359.74"><defs><style>.cls-1{isolation:isolate;}.cls-2,.cls-21,.cls-8{mix-blend-mode:multiply;}.cls-2{opacity:0.3;}.cls-3{fill:#b3b3b3;}.cls-4{fill:#ef8181;}.cls-5{fill:#d86a6a;}.cls-6{fill:#ff9797;}.cls-26,.cls-7{fill:none;stroke-miterlimit:10;}.cls-7{stroke:#fff;}.cls-8{opacity:0.2;}.cls-9{fill:gray;}.cls-10{fill:#1b1f2d;}.cls-11{fill:#31394c;}.cls-12{fill:#546fbf;}.cls-13{fill:#f24b4b;}.cls-14{fill:#d0d9f2;}.cls-15{fill:#fff;}.cls-16{fill:#91aaf2;}.cls-17{opacity:0.1;}.cls-18{fill:#a6bfff;}.cls-19{fill:#cfdeff;}.cls-20{fill:#eef4ff;}.cls-21{fill:#ccc;}.cls-22{mix-blend-mode:hard-light;opacity:0.03;}.cls-23{fill:#2b3d89;}.cls-24{fill:#354d9b;}.cls-25{fill:#f2c599;}.cls-26{stroke:#546fbf;stroke-width:0.2px;}.cls-27{fill:#db3e3e;}.cls-28{fill:#252c3a;}.cls-29{fill:#405dad;}</style></defs><g class="cls-1"><g id="Layer_2" data-name="Layer 2"><g id="OBJECTS"><g class="cls-2"><path class="cls-3" d="M297.71,208.23l-36.5-21.07L234.06,197a201.89,201.89,0,0,0-37.52-9l-7.37-18.07-51.48,0L130.55,188a199,199,0,0,0-37.44,9l-27.24-9.82L29.58,208.25,46.63,224A66.43,66.43,0,0,0,31.2,245.71L0,249.9l.19,29.82,31.23,4.21a67.37,67.37,0,0,0,15.64,21.7L30.22,321.39l36.5,21.08,27.15-9.81a202.64,202.64,0,0,0,37.55,9l7.34,18.05,51.48,0,2.23-1.33,4.91-16.76a199.45,199.45,0,0,0,37.47-9l27.23,9.82,36.29-21.09-17-15.74a66.28,66.28,0,0,0,15.4-21.74l31.2-4.19,2.23-1.33-2.42-28.49-31.2-4.19A67.8,67.8,0,0,0,280.87,224Z"/></g><path class="cls-4" d="M299.94,206.91l-36.5-21.08-27.15,9.81a200.31,200.31,0,0,0-37.52-9l-7.37-18.08H139.93l-7.15,18.09a199.15,199.15,0,0,0-37.44,9L68.1,185.83,31.81,206.92l17.05,15.74a66.43,66.43,0,0,0-15.43,21.72l-31.2,4.2.19,29.82,31.23,4.2A67.29,67.29,0,0,0,49.3,304.31L32.45,320.07,69,341.14l27.15-9.81a202,202,0,0,0,37.55,9L141,358.4h51.48l7.14-18.08a199.46,199.46,0,0,0,37.47-9l27.23,9.82,36.29-21.08-17-15.75A66.25,66.25,0,0,0,299,282.59l31.2-4.2L330,248.58l-31.2-4.2a67.91,67.91,0,0,0-15.67-21.72Z"/><polygon class="cls-5" points="299.94 206.91 299.94 196.25 283.1 212 283.1 222.66 299.94 206.91"/><polygon class="cls-5" points="31.82 196.26 31.82 206.92 48.86 222.66 48.86 212 31.82 196.26"/><path class="cls-6" d="M299.94,196.25l-36.5-21.08L236.29,185a201.1,201.1,0,0,0-37.52-9l-7.37-18.08H139.93L132.78,176a198.39,198.39,0,0,0-37.44,9L68.1,175.17,31.81,196.26,48.86,212a66.36,66.36,0,0,0-15.43,21.73l-31.2,4.19.19,29.82L33.65,272a67.37,67.37,0,0,0,15.65,21.7L32.45,309.41,69,330.48l27.15-9.81a202,202,0,0,0,37.55,9L141,347.74h51.48l7.14-18.08a199.46,199.46,0,0,0,37.47-9l27.23,9.83,36.29-21.09-17-15.75A66.25,66.25,0,0,0,299,271.93l31.2-4.2L330,237.92l-31.2-4.2A68,68,0,0,0,283.1,212Z"/><polygon class="cls-5" points="68.95 341.14 68.95 330.48 96.1 320.68 96.1 331.33 68.95 341.14"/><polygon class="cls-5" points="140.99 347.74 140.99 358.4 133.65 340.34 133.65 329.68 140.99 347.74"/><polygon class="cls-5" points="192.47 358.41 192.47 347.75 199.61 329.67 199.61 340.33 192.47 358.41"/><polygon class="cls-5" points="264.31 341.15 264.31 330.5 237.08 320.67 237.08 331.33 264.31 341.15"/><polygon class="cls-5" points="298.96 282.59 298.96 271.93 330.16 267.74 330.16 278.39 298.96 282.59"/><polygon class="cls-5" points="33.65 282.61 33.65 271.94 2.42 267.74 2.42 278.39 33.65 282.61"/><polygon class="cls-4" points="32.45 309.41 32.45 320.07 68.95 341.14 68.95 330.48 32.45 309.41"/><polygon class="cls-4" points="300.6 320.07 300.6 309.41 264.31 330.5 264.31 341.15 300.6 320.07"/><ellipse class="cls-7" cx="166.72" cy="251.6" rx="73.57" ry="127.01" transform="translate(-85.35 417.61) rotate(-89.84)"/><g class="cls-8"><path class="cls-9" d="M269.77,219.78l-78.85-45.52a6.19,6.19,0,0,0-5.59,0l-7.16,4.16c-1.53.89-1.52,2.34,0,3.24L257,227.18a6.19,6.19,0,0,0,5.59,0l7.16-4.16C271.32,222.13,271.31,220.68,269.77,219.78Z"/></g><path class="cls-10" d="M256.66,35,198.47,1.36c-2.84-1.64-5.4-1.74-7.22-.61l-3,1.76,1.23.22a9.18,9.18,0,0,0-1,4.33L188,169.5c0,6.32,4.44,14,9.94,17.21l58.19,33.59a9.09,9.09,0,0,0,4.37,1.36l-.34,1.1,3-1.74h0c1.8-1,2.91-3.25,2.92-6.41l.46-162.43C267,44.22,262.16,38.14,256.66,35Z"/><path class="cls-11" d="M253.33,36.89,195.14,3.29c-5.51-3.17-10-.62-10,5.7l-.46,162.44c0,6.32,4.44,14,9.94,17.21l58.19,33.6c5.51,3.18,10,.62,10-5.7l.46-162.44C263.67,46.15,258.83,40.07,253.33,36.89Z"/><path class="cls-10" d="M252.94,38.55,195.51,5.39c-4.81-2.78-8.74-.54-8.75,5l-.46,161.54c0,5.53,3.88,12.28,8.7,15.06l57.42,33.15c4.81,2.78,8.74.55,8.76-5l.46-161.54A17.52,17.52,0,0,0,252.94,38.55Z"/><path class="cls-12" d="M252.8,40.37l-7.25-4.19c-.45-.25-.81-.07-.87.41-.4,3-2.83,4.12-5.75,2.43L209.48,22A12.9,12.9,0,0,1,203.76,13a2,2,0,0,0-.86-1.4l-7.26-4.19c-4.08-2.36-7.4-.47-7.41,4.22l-.45,160.82a16.22,16.22,0,0,0,7.36,12.75l57.16,33c4.08,2.36,7.39.46,7.41-4.22l.45-160.82A16.2,16.2,0,0,0,252.8,40.37Z"/><path class="cls-13" d="M227.83,123.2l-19.56-11.3c-.76-.44-1.39-.09-1.39.79a3.06,3.06,0,0,0,1.38,2.39l19.56,11.3c.77.44,1.39.08,1.39-.8a3,3,0,0,0-1.38-2.38"/><path class="cls-13" d="M237.89,129l-5.13-3c-.76-.44-1.38-.09-1.38.79a3,3,0,0,0,1.37,2.39l5.13,3c.77.44,1.39.08,1.39-.8a3,3,0,0,0-1.38-2.38"/><path class="cls-6" d="M235,135.61l-23.83-13.76c-.44-.25-.79,0-.8.46a1.72,1.72,0,0,0,.79,1.35L235,137.43c.43.25.79,0,.79-.45a1.74,1.74,0,0,0-.79-1.37"/><path class="cls-6" d="M234.94,142.79l-4.39-2.53c-.43-.25-.78,0-.78.46a1.71,1.71,0,0,0,.78,1.35l4.39,2.54c.43.25.79,0,.79-.45a1.73,1.73,0,0,0-.79-1.37"/><path class="cls-6" d="M227.27,138.36,211.11,129c-.44-.25-.8-.05-.8.45a1.72,1.72,0,0,0,.79,1.36l16.17,9.34c.43.25.79,0,.79-.45a1.76,1.76,0,0,0-.79-1.37"/><path class="cls-6" d="M236.87,140.31l-17.6-10.16c-.43-.25-.78-.05-.79.45a1.72,1.72,0,0,0,.79,1.36l17.59,10.16c.44.25.79,0,.79-.45a1.7,1.7,0,0,0-.78-1.36"/><path class="cls-6" d="M216,128.28l-6.83-3.94c-.43-.25-.79,0-.79.45a1.72,1.72,0,0,0,.78,1.35l6.84,4c.43.25.78,0,.78-.45a1.69,1.69,0,0,0-.78-1.36"/><path class="cls-14" d="M224.07,53c-.21-.12-.41-.22-.61-.31a9.63,9.63,0,0,0-4.24-1.15,2.82,2.82,0,0,0-2.58,1.64,4.51,4.51,0,0,0-.34,2.12c0,.1,0,.2,0,.32a2,2,0,0,0-.31-.22,1.49,1.49,0,0,0-1.21-.16c-.81.28-1.09,1.34-1.23,2.39a19.15,19.15,0,0,0,0,4c.06.71.16,1.42.28,2.15,0,.29.11.59.16.88-.91-.34-1.63,1.12-.88,3,.69,1.76,1.29,3.69,2.08,4.14a.34.34,0,0,0,.12.06.75.75,0,0,0,.29,0,23.35,23.35,0,0,0,2.89,6.29v4.53H206.86c-1.17,0-2,.92-2.13,2.35l-1,9.25s7,7.6,20,15.12c11.46,6.62,20,8,20,8l-.94-10.39a9.14,9.14,0,0,0-2.09-4.77L229.23,89V84.41a5.14,5.14,0,0,0,2.92-2.94,1.66,1.66,0,0,0,.29.3l.12.08c.79.46,1.4-.77,2.1-1.73s.06-3.27-.82-4a36.16,36.16,0,0,0,0-4.87c-.11-1.65-.19-3.88-1.34-5.65-.05-.09-.12-.17-.18-.26a1.05,1.05,0,0,0,.33-.7,3.76,3.76,0,0,0-1.39-3,6.8,6.8,0,0,0-1.12-.8l-.27-.15a2.21,2.21,0,0,0,.07-.54,5.17,5.17,0,0,0-1.64-3.34,5.63,5.63,0,0,0-1-.8,4.39,4.39,0,0,0-1-.41c0-.07,0-.15-.05-.22a3.71,3.71,0,0,0-.7-1.2A5.14,5.14,0,0,0,224.07,53"/><path class="cls-13" d="M236.08,156c-5-2.9-9.11-.57-9.13,5.2S231,174,236,176.87s9.11.57,9.13-5.2S241.11,158.86,236.08,156Z"/><path class="cls-15" d="M236.06,163.68c-2.77-1.6-4.11-1.46-4.86-1.18a1.86,1.86,0,0,0-1,2,6.76,6.76,0,0,0,.51,1.35,1.11,1.11,0,0,0,.42.48.45.45,0,0,0,.18.07l1.85.35c.22,0,.36-.11.36-.37v-1.15c0-.23.11-.39.28-.38a6.72,6.72,0,0,1,2.22.81,10.87,10.87,0,0,1,2.22,1.75,1.12,1.12,0,0,1,.28.71v1.15a1.18,1.18,0,0,0,.36.79l1.85,1.79.17.13a.34.34,0,0,0,.42,0,1.75,1.75,0,0,0,.52-.76,5.23,5.23,0,0,0-1-3.1,13.59,13.59,0,0,0-4.85-4.43"/><path class="cls-16" d="M210.73,141.28c-5-2.9-9.12-.57-9.13,5.2s4,12.81,9.07,15.71,9.11.57,9.12-5.2S215.75,144.18,210.73,141.28Z"/><path class="cls-15" d="M208,144.74l-.07,0a2.5,2.5,0,0,0-1-.25c-.47,0-1,.9-.9,2.08s.47,3.11,2.43,6.5,3.45,4.68,4.42,5.36l.24.15c.89.51,1.77.48,2,.13a2.45,2.45,0,0,0,.28-1,1.07,1.07,0,0,0-.29-.8l-1.74-2a.85.85,0,0,0-.24-.2.38.38,0,0,0-.38,0L212,155a.41.41,0,0,1-.38,0,.83.83,0,0,1-.16-.12,15.69,15.69,0,0,1-1.85-2.55,15,15,0,0,1-1.27-2.86c-.07-.26,0-.47.13-.55l.71-.4c.16-.09.2-.36.1-.65l-.86-2.51a1.2,1.2,0,0,0-.47-.62"/><path class="cls-11" d="M228.82,28.25l-10.16-5.86c-.29-.17-.51,0-.51.29a1.06,1.06,0,0,0,.51.88l10.16,5.87c.28.16.51,0,.51-.29a1.12,1.12,0,0,0-.51-.89"/><path class="cls-11" d="M232.47,30.05c-.53-.31-1-.06-1,.55a2.12,2.12,0,0,0,1,1.65c.53.3,1,.06,1-.54a2.13,2.13,0,0,0-.95-1.66"/><path class="cls-10" d="M232.46,30.3c-.41-.24-.74-.05-.74.43a1.64,1.64,0,0,0,.74,1.27c.41.24.74,0,.74-.42a1.64,1.64,0,0,0-.74-1.28"/><path class="cls-11" d="M232.46,31c-.09-.06-.17,0-.17.1a.37.37,0,0,0,.17.29c.09,0,.17,0,.17-.1a.37.37,0,0,0-.17-.29"/><g class="cls-17"><path class="cls-15" d="M245.55,36.18c-.45-.25-.81-.07-.87.41-.4,3-2.83,4.12-5.75,2.43L209.48,22a12.87,12.87,0,0,1-5.5-7.83l-15.79,12L188,86.36l62.3-47.42Z"/><polygon class="cls-15" points="187.94 114.06 187.9 127.07 260.11 72.11 260.15 59.1 187.94 114.06"/><path class="cls-15" d="M187.78,172.41a16.22,16.22,0,0,0,7.36,12.75l17.13,9.89,47.59-36.22L260,98.68l-72.2,54.95Z"/><polygon class="cls-15" points="242.62 212.57 259.75 199.54 259.79 186.53 232.92 206.97 242.62 212.57"/></g><path class="cls-16" d="M283.34,131.85l-9-5.21c-.3-.17-.55,0-.55.32a1.23,1.23,0,0,0,.55,1l9,5.2c.3.18.55,0,.56-.31a1.23,1.23,0,0,0-.56-1"/><path class="cls-16" d="M287.12,136.89l-12.81-7.4c-.3-.17-.54,0-.54.32a1.19,1.19,0,0,0,.54.95l12.81,7.39c.3.18.55,0,.55-.32a1.18,1.18,0,0,0-.55-.94"/><path class="cls-16" d="M295.49,141.72,290,138.56c-.3-.18-.55,0-.55.31a1.21,1.21,0,0,0,.55.95l5.48,3.16c.3.18.55,0,.55-.31a1.21,1.21,0,0,0-.55-.95"/><path class="cls-16" d="M278.87,135l-4.56-2.63c-.31-.18-.55,0-.55.31a1.19,1.19,0,0,0,.54.94l4.57,2.64c.3.18.55,0,.55-.31a1.2,1.2,0,0,0-.55-1"/><path class="cls-16" d="M290.38,141.62l-9.12-5.26c-.3-.17-.55,0-.55.31a1.23,1.23,0,0,0,.55,1l9.11,5.26c.31.18.55,0,.55-.31a1.22,1.22,0,0,0-.54-.95"/><path class="cls-16" d="M282.09,139.69l-7.79-4.5c-.3-.17-.55,0-.55.32a1.17,1.17,0,0,0,.55.94l7.78,4.5c.31.18.55,0,.55-.31a1.2,1.2,0,0,0-.54-.95"/><path class="cls-16" d="M287.11,142.59l-2.56-1.48c-.31-.18-.55,0-.55.32a1.2,1.2,0,0,0,.54.94l2.56,1.48c.31.18.55,0,.55-.31a1.2,1.2,0,0,0-.54-.95"/><path class="cls-16" d="M292.5,137.13,285.28,133c-.3-.17-.54,0-.54.32a1.16,1.16,0,0,0,.54.94l7.21,4.17c.31.17.56,0,.56-.31a1.25,1.25,0,0,0-.55-1"/><path class="cls-10" d="M287.38,129.06l-12.67-7.32c-.51-.29-.92,0-.92.53a2,2,0,0,0,.91,1.58l12.67,7.32c.51.29.93.06.93-.52a2,2,0,0,0-.92-1.59"/><path class="cls-10" d="M295.29,133.63l-4.75-2.74c-.5-.3-.92-.06-.92.52a2,2,0,0,0,.92,1.59l4.75,2.74c.5.29.92.06.92-.52a2,2,0,0,0-.92-1.59"/><path class="cls-16" d="M283.1,152.78l-9-5.21c-.3-.17-.55,0-.55.32a1.2,1.2,0,0,0,.55,1l9,5.21c.3.17.55,0,.55-.31a1.25,1.25,0,0,0-.55-1"/><path class="cls-16" d="M286.88,157.82l-12.81-7.4c-.3-.17-.55,0-.55.32a1.2,1.2,0,0,0,.55.95l12.81,7.39c.3.18.54,0,.55-.32a1.21,1.21,0,0,0-.55-.94"/><path class="cls-16" d="M295.25,162.65l-5.48-3.16c-.31-.18-.56,0-.56.31a1.21,1.21,0,0,0,.55.95l5.48,3.16c.31.18.56,0,.56-.31a1.23,1.23,0,0,0-.55-.95"/><path class="cls-16" d="M278.63,155.91l-4.57-2.63c-.3-.18-.55,0-.55.31a1.2,1.2,0,0,0,.55.94l4.57,2.64c.3.18.54,0,.55-.31a1.23,1.23,0,0,0-.55-1"/><path class="cls-16" d="M290.13,162.55,281,157.29c-.3-.17-.55,0-.55.31a1.16,1.16,0,0,0,.55,1l9.11,5.26c.3.18.55,0,.55-.31a1.2,1.2,0,0,0-.55-.95"/><path class="cls-16" d="M281.84,160.62l-7.79-4.5c-.3-.17-.54,0-.54.32a1.19,1.19,0,0,0,.54.95l7.79,4.49c.3.18.55,0,.55-.31a1.21,1.21,0,0,0-.55-.95"/><path class="cls-16" d="M286.86,163.52,284.3,162c-.3-.18-.55,0-.55.32a1.18,1.18,0,0,0,.55.94l2.56,1.48c.3.18.55,0,.55-.31a1.19,1.19,0,0,0-.55-.95"/><path class="cls-16" d="M292.25,158.07,285,153.9c-.3-.17-.55,0-.55.32a1.2,1.2,0,0,0,.55.95l7.21,4.16c.3.17.55,0,.55-.31a1.19,1.19,0,0,0-.55-1"/><path class="cls-10" d="M287.14,150l-12.68-7.32c-.5-.29-.92,0-.92.53a2,2,0,0,0,.92,1.58l12.67,7.32c.51.3.92.06.92-.52a2,2,0,0,0-.91-1.59"/><path class="cls-10" d="M295.05,154.56l-4.75-2.74c-.51-.3-.92-.06-.92.52a2,2,0,0,0,.91,1.59l4.75,2.74c.51.29.92.06.93-.52a2,2,0,0,0-.92-1.59"/><path class="cls-13" d="M276.27,109.33a1.6,1.6,0,0,1-.73-1.25l0-13.38c0-.46.33-.64.73-.41L293.2,104a1.61,1.61,0,0,1,.73,1.26l0,13.37c0,.46-.33.65-.73.42l-10-5.8a1.37,1.37,0,0,0-1.36-.14l-2.92,1.59V113a4.27,4.27,0,0,0-1.92-3.33l-.66-.38m16.94-6.67-16.9-9.75c-1.06-.62-1.93-.12-1.93,1.1l0,13.37a4.26,4.26,0,0,0,1.92,3.33l.66.39a1.6,1.6,0,0,1,.73,1.25v1.84a2.57,2.57,0,0,0,.71,1.63,2,2,0,0,0,.44.36.84.84,0,0,0,.81.09l3-1.65a.54.54,0,0,1,.51.06l10,5.79c1.06.61,1.93.12,1.93-1.1l0-13.38a4.26,4.26,0,0,0-1.92-3.33"/><path class="cls-13" d="M279.58,102c-.87-.5-1.58-.09-1.59.91a3.49,3.49,0,0,0,1.58,2.73c.87.5,1.58.1,1.58-.91a3.47,3.47,0,0,0-1.57-2.73"/><path class="cls-13" d="M284.74,105c-.87-.5-1.58-.09-1.59.91a3.49,3.49,0,0,0,1.58,2.73c.87.5,1.58.1,1.59-.91a3.51,3.51,0,0,0-1.58-2.73"/><path class="cls-13" d="M289.9,108c-.87-.5-1.59-.1-1.59.91a3.51,3.51,0,0,0,1.58,2.73c.87.5,1.58.1,1.59-.91A3.49,3.49,0,0,0,289.9,108"/><path class="cls-12" d="M159.13,99.49a1.56,1.56,0,0,1-.72-1.25l0-13.38c0-.46.33-.64.73-.41l16.9,9.75a1.62,1.62,0,0,1,.72,1.26l0,13.37c0,.46-.32.65-.73.42l-10-5.8a1.37,1.37,0,0,0-1.36-.14l-2.92,1.59v-1.7a4.25,4.25,0,0,0-1.92-3.33l-.66-.38m16.94-6.67-16.89-9.75c-1.07-.62-1.94-.12-1.94,1.1l0,13.37a4.24,4.24,0,0,0,1.93,3.33l.66.39a1.59,1.59,0,0,1,.72,1.25v1.84a2.5,2.5,0,0,0,.7,1.63,1.87,1.87,0,0,0,.45.36.82.82,0,0,0,.8.09l3-1.65a.54.54,0,0,1,.51.06l10,5.79c1.06.61,1.93.12,1.94-1.1l0-13.38a4.23,4.23,0,0,0-1.92-3.33"/><path class="cls-12" d="M162.44,92.2c-.87-.51-1.58-.1-1.58.9a3.46,3.46,0,0,0,1.57,2.73c.88.51,1.58.1,1.59-.91a3.45,3.45,0,0,0-1.58-2.72"/><path class="cls-12" d="M167.6,95.17c-.87-.5-1.58-.09-1.58.91a3.46,3.46,0,0,0,1.57,2.73c.88.5,1.59.1,1.59-.9a3.48,3.48,0,0,0-1.58-2.74"/><path class="cls-12" d="M172.76,98.15c-.87-.5-1.58-.1-1.59.91a3.51,3.51,0,0,0,1.58,2.73c.87.5,1.59.1,1.59-.91a3.51,3.51,0,0,0-1.58-2.73"/><path class="cls-10" d="M166,64.13C159.2,60.24,153.72,50.75,153.74,43s5.54-10.9,12.29-7,12.23,13.38,12.2,21.14-5.52,10.9-12.28,7M166,34.26c-7.58-4.38-13.76-.85-13.79,7.87s6.12,19.36,13.7,23.73,13.78.85,13.8-7.86S173.62,38.64,166,34.26"/><path class="cls-10" d="M166,38.61c-.32-.19-.59,0-.6.32l-.32,10.31a.83.83,0,0,0,0,.33,1.94,1.94,0,0,0,.31.92,1.85,1.85,0,0,0,.61.63l0,0a1,1,0,0,0,.22.08l7.35,3.92a.37.37,0,0,0,.59-.34,1.35,1.35,0,0,0-.58-1.05l-6.74-4.19-.23-9.94a1.34,1.34,0,0,0-.59-1h0"/><path class="cls-13" d="M155.94,65.26a2.88,2.88,0,0,0-1.47-.47,1.18,1.18,0,0,0-1,.56,3,3,0,0,0-.37,1.61l1.76,1V67.8a1.47,1.47,0,0,1,.22-.83q.21-.33.9.06A2.07,2.07,0,0,1,157,68.87a1.26,1.26,0,0,1-.27.83,2,2,0,0,1-.67.53c-.28.13-.67.28-1.19.46l-.33.11-.35.13-1.06.43v1.75l5.6,3.23V74.56l-3.29-1.9V72.6l1.08-.42.25-.09a6.59,6.59,0,0,0,1-.45,2.09,2.09,0,0,0,.66-.69,2.54,2.54,0,0,0,.28-1.23,4.44,4.44,0,0,0-.33-1.64,5.72,5.72,0,0,0-1-1.59,5.94,5.94,0,0,0-1.5-1.23"/><path class="cls-13" d="M161.59,74.21l1.7-2.08v3.05l-1.69-1m3.47-3.49-2.26-1.3-3,3.83v1.5l3.51,2v2.16L165,80V77.79l.95.55V76.78l-.94-.54,0-5.52"/><polyline class="cls-13" points="172.47 73.9 170.79 72.93 166.75 83.68 168.43 84.65 172.47 73.9"/><polyline class="cls-13" points="178.72 78.61 173.13 75.38 173.13 77.24 177.05 79.5 177.05 79.59 173.94 84.94 173.94 85.1 175.82 86.19 178.71 80.7 178.72 78.61"/><g class="cls-8"><path class="cls-9" d="M238.56,267.47,128.68,204a8.59,8.59,0,0,0-7.79,0l-43.08,25c-2.14,1.25-2.13,3.27,0,4.51L187.72,297a8.59,8.59,0,0,0,7.79,0l43.08-25C240.73,270.73,240.72,268.71,238.56,267.47Z"/></g><path class="cls-11" d="M87.67,232.51l-.18-63.17,25.89-14.94L130.17,208l-42.5,24.53M115.44,150,84.69,167.74l.2,69.59L133.94,209Z"/><polygon class="cls-10" points="126.4 206.95 130.17 207.98 113.38 154.4 110.46 156.09 126.4 206.95"/><polygon class="cls-10" points="87.67 229.29 87.67 232.51 130.17 207.98 126.39 206.95 87.67 229.29"/><polygon class="cls-10" points="80.93 165.57 84.69 167.75 84.89 237.33 81.13 235.16 80.93 165.57"/><polygon class="cls-10" points="80.93 165.57 84.69 167.75 115.45 149.99 111.69 147.82 80.93 165.57"/><path class="cls-11" d="M190.05,291.46l-.18-63.16,25.88-14.94,16.8,53.57-42.5,24.53M217.82,209,187.07,226.7l.19,69.59L236.32,268Z"/><polygon class="cls-10" points="228.78 265.9 232.55 266.93 215.76 213.36 212.84 215.04 228.78 265.9"/><polygon class="cls-10" points="190.04 288.25 190.05 291.46 232.55 266.94 228.77 265.9 190.04 288.25"/><polygon class="cls-10" points="183.31 224.53 187.07 226.7 187.26 296.29 183.5 294.11 183.31 224.53"/><polygon class="cls-10" points="183.31 224.53 187.07 226.7 217.82 208.95 214.06 206.78 183.31 224.53"/><path class="cls-18" d="M240.19,197.17l-2,.33L128.68,134.29a8.56,8.56,0,0,0-7.79,0l-43,25-1.67-.63v2.92h0v0h0a2.79,2.79,0,0,0,1.63,2.22l109.88,63.44a8.62,8.62,0,0,0,7.79,0l43.08-25a2.66,2.66,0,0,0,1.59-2.37h0C240.17,199.77,240.19,197.17,240.19,197.17Z"/><path class="cls-16" d="M195.51,227.28l43.08-25a2.66,2.66,0,0,0,1.59-2.37h0c0-.1,0-2.7,0-2.7l-2,.33-15.28-8.82-31.41,31.41v8.11A8,8,0,0,0,195.51,227.28Z"/><path class="cls-19" d="M238.56,194.72,128.68,131.28a8.62,8.62,0,0,0-7.79,0l-43.08,25c-2.14,1.24-2.13,3.27,0,4.51l109.88,63.44a8.56,8.56,0,0,0,7.79,0l43.08-25C240.73,198,240.72,196,238.56,194.72Z"/><path class="cls-15" d="M92.58,152a2.25,2.25,0,0,0-2,0l-7.3,4.24a.61.61,0,0,0,0,1.16l10.75,6.21a2.22,2.22,0,0,0,2,0l7.29-4.24c.54-.31.56-.81.05-1.14a.71.71,0,0,1,.36.52l-9.2-.64.68,5.73a2.6,2.6,0,0,1-.56,0L94,158.06,93,158l-.13-.6L83,157a.46.46,0,0,1,0-.32l9.88.37-1.11-5.33a2.11,2.11,0,0,1,.88.21m10.82,6.25h0M92.61,152h0"/><path class="cls-20" d="M94.59,158.09l-.56,0,.68,5.74a2.6,2.6,0,0,0,.56,0l-.68-5.73m-1.78-1-9.88-.37a.46.46,0,0,0,0,.32l9.91.37-.07-.32"/><path class="cls-20" d="M103.38,158.18,92.63,152l0,0h0a2.11,2.11,0,0,0-.88-.21l1.11,5.33.07.32.13.6,1,.07.56,0,9.2.64a.71.71,0,0,0-.36-.52h0l0,0"/><path class="cls-15" d="M107.86,143.79a2.21,2.21,0,0,0-2,0l-7.3,4.24a.62.62,0,0,0,0,1.17l10.74,6.2a2.18,2.18,0,0,0,2,0l7.29-4.23c.54-.32.56-.82,0-1.14a.71.71,0,0,1,.37.51l-9.21-.63.69,5.73a2.6,2.6,0,0,1-.56,0l-.68-5.74-1-.07-.12-.59-9.91-.38a.45.45,0,0,1,0-.32l9.88.38L107,143.58a2.12,2.12,0,0,1,.89.21M118.68,150h0m-10.79-6.23h0"/><path class="cls-20" d="M109.86,149.93l-.55,0,.68,5.74a2.6,2.6,0,0,0,.56,0l-.69-5.73m-1.77-1-9.88-.38a.45.45,0,0,0,0,.32l9.91.38-.07-.32"/><path class="cls-20" d="M118.66,150l-10.75-6.21h0a2.12,2.12,0,0,0-.89-.21l1.12,5.33.07.32.12.59,1,.07.55,0,9.21.63a.71.71,0,0,0-.37-.51h0"/><path class="cls-15" d="M123.14,135.62a2.27,2.27,0,0,0-2,0l-7.29,4.24c-.55.32-.55.84,0,1.17l10.74,6.2a2.25,2.25,0,0,0,2,0l7.29-4.24a.61.61,0,0,0,0-1.14.73.73,0,0,1,.37.52l-9.21-.63.68,5.72a2.53,2.53,0,0,1-.55,0l-.68-5.74-1-.07-.12-.59-9.91-.38a.46.46,0,0,1,0-.32l9.89.37-1.12-5.33a2.12,2.12,0,0,1,.89.21M134,141.87h0m-10.8-6.23,0,0,0,0"/><path class="cls-20" d="M125.14,141.77l-.55,0,.68,5.74a2.53,2.53,0,0,0,.55,0l-.68-5.72m-1.77-1-9.89-.37a.46.46,0,0,0,0,.32l9.91.38-.07-.33"/><path class="cls-20" d="M133.94,141.85l-10.75-6.2h0l0,0h0a2.12,2.12,0,0,0-.89-.21l1.12,5.33.07.33.12.59,1,.07.55,0,9.21.63a.73.73,0,0,0-.37-.52h0l0,0"/><polygon class="cls-15" points="217.82 199.65 203.16 191.19 184.86 201.82 199.52 210.28 217.82 199.65"/><polyline class="cls-18" points="209.23 202.52 197.93 196 197.71 196.12 209.01 202.65 209.23 202.52"/><polyline class="cls-18" points="208.29 203.07 196.98 196.55 196.76 196.67 208.07 203.2 208.29 203.07"/><polyline class="cls-18" points="207.34 203.62 196.04 197.09 195.81 197.22 207.12 203.75 207.34 203.62"/><polyline class="cls-18" points="206.4 204.17 195.09 197.65 194.87 197.77 206.18 204.3 206.4 204.17"/><polyline class="cls-18" points="205.45 204.72 194.15 198.19 193.93 198.32 205.23 204.85 205.45 204.72"/><polyline class="cls-18" points="204.51 205.27 193.2 198.74 192.98 198.87 204.28 205.4 204.51 205.27"/><polyline class="cls-18" points="203.56 205.82 192.25 199.29 192.03 199.42 203.34 205.95 203.56 205.82"/><polyline class="cls-18" points="202.61 206.37 191.31 199.84 191.09 199.97 202.4 206.5 202.61 206.37"/><polyline class="cls-18" points="201.67 206.92 190.36 200.39 190.14 200.52 201.45 207.05 201.67 206.92"/><polyline class="cls-18" points="194.84 204.15 189.44 201.03 189.22 201.16 194.62 204.27 194.84 204.15"/><polyline class="cls-13" points="207.54 197.58 201.32 193.99 200.72 194.34 206.95 197.93 207.54 197.58"/><polyline class="cls-12" points="203.88 196.68 200.3 194.61 199.88 194.86 203.46 196.93 203.88 196.68"/><polygon class="cls-15" points="218.12 199.22 203.46 190.76 185.16 201.4 199.82 209.86 218.12 199.22"/><polyline class="cls-18" points="209.53 202.1 198.23 195.57 198.01 195.7 209.31 202.23 209.53 202.1"/><polyline class="cls-18" points="208.59 202.65 197.28 196.12 197.06 196.25 208.37 202.78 208.59 202.65"/><polyline class="cls-18" points="207.64 203.2 196.34 196.67 196.12 196.8 207.42 203.33 207.64 203.2"/><polyline class="cls-18" points="206.7 203.75 195.39 197.22 195.17 197.35 206.48 203.87 206.7 203.75"/><polyline class="cls-18" points="205.75 204.3 194.45 197.77 194.23 197.9 205.53 204.42 205.75 204.3"/><polyline class="cls-18" points="204.81 204.84 193.5 198.32 193.28 198.45 204.59 204.97 204.81 204.84"/><polyline class="cls-18" points="203.86 205.4 192.55 198.87 192.33 199 203.64 205.52 203.86 205.4"/><polyline class="cls-18" points="202.91 205.94 191.61 199.42 191.39 199.54 202.7 206.07 202.91 205.94"/><polyline class="cls-18" points="201.97 206.5 190.66 199.97 190.44 200.09 201.75 206.62 201.97 206.5"/><polyline class="cls-18" points="195.14 203.72 189.75 200.6 189.52 200.73 194.92 203.85 195.14 203.72"/><polyline class="cls-13" points="207.84 197.16 201.62 193.57 201.03 193.91 207.25 197.51 207.84 197.16"/><polyline class="cls-12" points="204.19 196.26 200.6 194.19 200.18 194.43 203.76 196.5 204.19 196.26"/><polygon class="cls-15" points="214.08 198.87 199.42 190.4 181.12 201.03 195.78 209.5 214.08 198.87"/><polyline class="cls-18" points="205.49 201.74 194.19 195.21 193.97 195.34 205.27 201.87 205.49 201.74"/><polyline class="cls-18" points="204.55 202.29 193.24 195.76 193.02 195.89 204.33 202.41 204.55 202.29"/><polyline class="cls-18" points="203.6 202.84 192.29 196.31 192.07 196.44 203.38 202.97 203.6 202.84"/><polyline class="cls-18" points="202.66 203.39 191.35 196.86 191.13 196.99 202.44 203.51 202.66 203.39"/><polyline class="cls-18" points="201.71 203.94 190.41 197.41 190.19 197.54 201.49 204.06 201.71 203.94"/><polyline class="cls-18" points="200.77 204.49 189.46 197.96 189.24 198.09 200.54 204.61 200.77 204.49"/><polyline class="cls-18" points="199.82 205.03 188.51 198.51 188.29 198.63 199.6 205.16 199.82 205.03"/><polyline class="cls-18" points="198.87 205.58 187.57 199.06 187.35 199.18 198.66 205.71 198.87 205.58"/><polyline class="cls-18" points="197.93 206.13 186.62 199.61 186.4 199.73 197.71 206.26 197.93 206.13"/><polyline class="cls-18" points="191.1 203.36 185.7 200.24 185.48 200.37 190.88 203.49 191.1 203.36"/><polyline class="cls-13" points="203.8 196.8 197.58 193.21 196.98 193.55 203.21 197.15 203.8 196.8"/><polyline class="cls-12" points="200.14 195.9 196.56 193.83 196.13 194.07 199.72 196.14 200.14 195.9"/><g class="cls-2"><path class="cls-21" d="M177.18,183.36l-17.09,9.92a1.37,1.37,0,0,1-1.36,0l-28.22-16.43a1.36,1.36,0,0,1,0-2.35l17.26-10a1.37,1.37,0,0,1,1.37,0l27.94,17.65C177.83,182.55,177.78,183,177.18,183.36Z"/></g><path class="cls-10" d="M177.5,181.88a3,3,0,0,1-1.11-.07l-28.64-16.69a1.31,1.31,0,0,0-1.3,0l-15.78,8.54a1.77,1.77,0,0,0,0,2.88l28.18,16.27a1.29,1.29,0,0,0,1.3,0l17.18-10a.7.7,0,0,0,.18-.94Z"/><path class="cls-11" d="M147.18,144.18l.42,19.49a1.45,1.45,0,0,0,.72,1.26l28.15,16.61a1.49,1.49,0,0,0,2.1-1.42l.05-19a1.45,1.45,0,0,0-.7-1.24L149.32,143A1.37,1.37,0,0,0,147.18,144.18Z"/><path class="cls-10" d="M147.17,144.07l-.06,19.85a1.47,1.47,0,0,0,.72,1.26L176,181.59a1.4,1.4,0,0,0,2.11-1.23l0-19a1.4,1.4,0,0,0-.7-1.24l-28.69-17A1,1,0,0,0,147.17,144.07Z"/><polygon class="cls-12" points="148.24 144.21 148.18 163.66 176.93 180.28 176.98 161.03 148.24 144.21"/><g class="cls-22"><polygon class="cls-15" points="151.89 146.34 148.23 148.03 148.19 162 165.2 154.13 151.89 146.34"/><polygon class="cls-15" points="167.42 155.43 148.82 164.03 152.25 166.01 170.83 157.43 167.42 155.43"/><polygon class="cls-15" points="173.05 158.73 154.49 167.31 167.89 175.05 176.95 170.87 176.98 161.03 173.05 158.73"/><polygon class="cls-15" points="173.56 178.33 176.94 176.77 176.95 173.19 170.12 176.34 173.56 178.33"/></g><path class="cls-11" d="M177.37,182.28l-17.28,10a1.25,1.25,0,0,1-1.29,0L130.67,175.9a1.29,1.29,0,0,1,0-2.24l15.82-9.13a1.29,1.29,0,0,1,1.3,0l29.58,17.19A.32.32,0,0,1,177.37,182.28Z"/><path class="cls-19" d="M153.72,182.94l-4.32,2.56a.36.36,0,0,1-.35,0l-7.56-4.36a.35.35,0,0,1,0-.6l4.14-2.34a.32.32,0,0,1,.34,0l7.75,4.61A.08.08,0,0,1,153.72,182.94Z"/><path class="cls-19" d="M147,166.88l1,.57a.47.47,0,0,0,.43,0l.48-.29a.13.13,0,0,0,0-.25l-1-.56a.45.45,0,0,0-.42,0l-.48.29A.12.12,0,0,0,147,166.88Z"/><path class="cls-19" d="M148.65,167.88l1,.57a.47.47,0,0,0,.43,0l.48-.29c.12-.07.12-.18,0-.25l-1-.57a.45.45,0,0,0-.42,0l-.48.29C148.54,167.7,148.54,167.81,148.65,167.88Z"/><path class="cls-19" d="M150.38,168.89l1,.58a.47.47,0,0,0,.43,0l.49-.29a.14.14,0,0,0,0-.26l-1-.57a.47.47,0,0,0-.43,0l-.49.29A.13.13,0,0,0,150.38,168.89Z"/><path class="cls-19" d="M152.13,169.92l1,.58a.49.49,0,0,0,.44,0l.49-.3c.11-.07.11-.18,0-.25l-1-.59a.47.47,0,0,0-.43,0l-.49.29A.14.14,0,0,0,152.13,169.92Z"/><path class="cls-19" d="M153.9,171l1,.6a.46.46,0,0,0,.44,0l.48-.29c.12-.08.12-.19,0-.26l-1-.6a.44.44,0,0,0-.43,0l-.49.29A.14.14,0,0,0,153.9,171Z"/><path class="cls-19" d="M155.69,172l1,.6a.49.49,0,0,0,.44,0l.49-.3a.14.14,0,0,0,0-.26l-1-.6a.49.49,0,0,0-.44,0l-.49.3A.14.14,0,0,0,155.69,172Z"/><path class="cls-19" d="M157.51,173.06l1,.61a.49.49,0,0,0,.44,0l.5-.31c.12-.07.11-.19,0-.26l-1-.61a.46.46,0,0,0-.44,0l-.49.3C157.38,172.87,157.38,173,157.51,173.06Z"/><path class="cls-19" d="M159.35,174.13l1.05.62a.48.48,0,0,0,.45,0l.49-.31c.12-.07.12-.19,0-.26l-1.06-.62a.49.49,0,0,0-.44,0l-.49.31C159.22,173.94,159.22,174.06,159.35,174.13Z"/><path class="cls-19" d="M161.21,175.22l1.06.63a.53.53,0,0,0,.46,0l.49-.31a.14.14,0,0,0,0-.27l-1.07-.62a.45.45,0,0,0-.45,0l-.49.3A.14.14,0,0,0,161.21,175.22Z"/><path class="cls-19" d="M163.09,176.32l1.08.64a.53.53,0,0,0,.46,0l.49-.31c.13-.08.12-.2,0-.28l-1.08-.63a.53.53,0,0,0-.46,0l-.49.31A.14.14,0,0,0,163.09,176.32Z"/><path class="cls-19" d="M165,177.44l1.09.64a.47.47,0,0,0,.46,0l.5-.31c.12-.08.12-.2,0-.28l-1.09-.64a.53.53,0,0,0-.46,0l-.5.31C164.86,177.24,164.87,177.36,165,177.44Z"/><path class="cls-19" d="M166.93,178.57l1.11.65a.47.47,0,0,0,.46,0l.5-.32c.13-.07.12-.2,0-.28l-1.11-.64a.47.47,0,0,0-.46,0l-.5.31C166.79,178.37,166.8,178.49,166.93,178.57Z"/><path class="cls-19" d="M168.89,179.72l1.12.65a.49.49,0,0,0,.47,0l.5-.32c.12-.07.11-.2,0-.28l-1.13-.65a.47.47,0,0,0-.46,0l-.5.31C168.75,179.51,168.76,179.64,168.89,179.72Z"/><path class="cls-19" d="M173,180.93l-1.14-.66a.49.49,0,0,0-.47,0l-.5.32c-.12.08-.11.21,0,.29l1.14.66a.49.49,0,0,0,.47,0l.5-.32C173.11,181.14,173.1,181,173,180.93Z"/><path class="cls-19" d="M145.37,167.88l.88.52a.57.57,0,0,0,.54,0l.87-.52a.17.17,0,0,0,0-.32l-.89-.52a.58.58,0,0,0-.53,0l-.87.52C145.23,167.65,145.22,167.79,145.37,167.88Z"/><path class="cls-19" d="M149.32,168.53l-.9-.53a.58.58,0,0,0-.53,0l-.88.52a.17.17,0,0,0,0,.32l.9.53a.6.6,0,0,0,.54,0l.88-.52A.17.17,0,0,0,149.32,168.53Z"/><path class="cls-19" d="M151,169.51l-.91-.53a.57.57,0,0,0-.54,0l-.88.53a.17.17,0,0,0,0,.32l.91.53a.57.57,0,0,0,.54,0l.88-.53A.17.17,0,0,0,151,169.51Z"/><path class="cls-19" d="M146.19,170.32l.9.54a.57.57,0,0,0,.54,0l.89-.53c.15-.09.15-.24,0-.32l-.9-.54a.6.6,0,0,0-.54,0l-.88.52C146.05,170.09,146.05,170.24,146.19,170.32Z"/><path class="cls-19" d="M143.73,168.85l1.65,1a.58.58,0,0,0,.53,0l.89-.52a.17.17,0,0,0,0-.32l-1.65-1a.58.58,0,0,0-.53,0l-.88.52C143.59,168.62,143.58,168.76,143.73,168.85Z"/><path class="cls-19" d="M150.19,171l-.91-.54a.57.57,0,0,0-.54,0l-.88.53c-.15.09-.16.24,0,.32l.91.55a.57.57,0,0,0,.54,0l.89-.54A.17.17,0,0,0,150.19,171Z"/><path class="cls-19" d="M151.89,172l-.93-.55a.57.57,0,0,0-.54,0l-.89.53a.18.18,0,0,0,0,.33l.92.55a.57.57,0,0,0,.54,0l.9-.54A.18.18,0,0,0,151.89,172Z"/><path class="cls-19" d="M153.6,173l-.94-.56a.57.57,0,0,0-.54,0l-.9.54c-.15.1-.15.24,0,.33l.94.56a.59.59,0,0,0,.55,0l.89-.54C153.75,173.25,153.75,173.11,153.6,173Z"/><path class="cls-19" d="M155.33,174l-1-.56a.59.59,0,0,0-.55,0l-.89.55a.18.18,0,0,0,0,.33l.95.57a.59.59,0,0,0,.55,0l.9-.55A.18.18,0,0,0,155.33,174Z"/><path class="cls-19" d="M157.08,175.08l-1-.57a.59.59,0,0,0-.56,0l-.89.55c-.16.09-.15.24,0,.33l1,.57a.54.54,0,0,0,.55,0l.9-.55A.18.18,0,0,0,157.08,175.08Z"/><path class="cls-19" d="M158.86,176.13l-1-.57a.61.61,0,0,0-.56,0l-.9.56a.18.18,0,0,0,0,.33l1,.58a.56.56,0,0,0,.56,0l.9-.56C159,176.38,159,176.23,158.86,176.13Z"/><path class="cls-19" d="M160.66,177.2l-1-.58a.56.56,0,0,0-.56,0l-.9.56a.18.18,0,0,0,0,.34l1,.59a.61.61,0,0,0,.56,0l.91-.57A.18.18,0,0,0,160.66,177.2Z"/><path class="cls-19" d="M160,178.6l1,.59a.58.58,0,0,0,.57,0l.91-.57c.15-.09.15-.25,0-.34l-1-.59a.58.58,0,0,0-.57,0l-.9.56A.19.19,0,0,0,160,178.6Z"/><path class="cls-19" d="M164.33,179.72a.19.19,0,0,0,0-.35l-1-.6a.58.58,0,0,0-.57,0l-.91.57c-.15.1-.15.25,0,.35l1,.6a.58.58,0,0,0,.57,0Z"/><path class="cls-19" d="M166.2,180.83a.2.2,0,0,0,0-.36l-1-.6a.58.58,0,0,0-.57,0l-.92.57c-.15.1-.14.26,0,.36l1,.6a.63.63,0,0,0,.58,0Z"/><path class="cls-19" d="M165.56,181.92l1,.61a.62.62,0,0,0,.59,0l.91-.58c.16-.1.14-.26,0-.36l-1-.61a.62.62,0,0,0-.59,0l-.91.58C165.39,181.66,165.4,181.82,165.56,181.92Z"/><path class="cls-19" d="M145,171.24c-.15.09-.16.24,0,.33l.9.54a.57.57,0,0,0,.54,0l.89-.54a.17.17,0,0,0,0-.32l-.91-.54a.55.55,0,0,0-.53,0Z"/><path class="cls-19" d="M142.08,169.82l2.09,1.27a.55.55,0,0,0,.53,0l.89-.53a.17.17,0,0,0,0-.32L143.51,169a.55.55,0,0,0-.53,0l-.89.53A.16.16,0,0,0,142.08,169.82Z"/><path class="cls-19" d="M146.62,172.24a.18.18,0,0,0,0,.33l.91.55a.57.57,0,0,0,.54,0l.89-.54c.15-.09.16-.24,0-.33l-.92-.55a.6.6,0,0,0-.54,0Z"/><path class="cls-19" d="M148.29,173.58l.92.56a.59.59,0,0,0,.55,0l.9-.54c.15-.1.15-.24,0-.33l-.92-.56a.57.57,0,0,0-.55,0l-.89.54C148.15,173.35,148.14,173.49,148.29,173.58Z"/><path class="cls-19" d="M150,174.61l.93.57a.59.59,0,0,0,.55,0l.9-.55c.16-.1.16-.25,0-.34l-.93-.56a.57.57,0,0,0-.55,0l-.9.54A.18.18,0,0,0,150,174.61Z"/><path class="cls-19" d="M151.71,175.65l.94.57a.56.56,0,0,0,.56,0l.9-.55a.18.18,0,0,0,0-.34l-1-.56a.54.54,0,0,0-.55,0l-.9.55A.17.17,0,0,0,151.71,175.65Z"/><path class="cls-19" d="M153.45,176.71l1,.57a.56.56,0,0,0,.56,0l.91-.56c.15-.09.15-.24,0-.34l-1-.57a.59.59,0,0,0-.55,0l-.91.56C153.29,176.46,153.29,176.61,153.45,176.71Z"/><path class="cls-19" d="M155.2,177.77l1,.59a.64.64,0,0,0,.57,0l.9-.57a.18.18,0,0,0,0-.34l-1-.58a.56.56,0,0,0-.56,0l-.91.56A.18.18,0,0,0,155.2,177.77Z"/><path class="cls-19" d="M157,178.85l1,.59a.58.58,0,0,0,.57,0l.91-.57c.16-.09.15-.25,0-.34l-1-.59a.56.56,0,0,0-.56,0l-.91.56C156.82,178.6,156.83,178.75,157,178.85Z"/><path class="cls-19" d="M158.79,179.94l1,.6a.58.58,0,0,0,.57,0l.92-.57a.19.19,0,0,0,0-.35l-1-.6a.58.58,0,0,0-.57,0l-.91.57C158.62,179.69,158.63,179.84,158.79,179.94Z"/><path class="cls-19" d="M160.61,181.05l1,.6a.61.61,0,0,0,.57,0l.92-.58c.16-.1.15-.26,0-.36l-1-.6a.6.6,0,0,0-.58,0l-.91.57A.2.2,0,0,0,160.61,181.05Z"/><path class="cls-19" d="M164.06,182.78l.92-.58c.15-.1.14-.26,0-.36l-1-.61a.6.6,0,0,0-.58,0l-.91.58a.19.19,0,0,0,0,.35l1,.62A.6.6,0,0,0,164.06,182.78Z"/><path class="cls-19" d="M168.27,183.82l-2.43-1.45a.6.6,0,0,0-.58,0l-.92.59c-.16.1-.15.26,0,.36l2.43,1.47a.62.62,0,0,0,.59,0l.92-.59C168.45,184.09,168.44,183.92,168.27,183.82Z"/><path class="cls-19" d="M144.15,173.09l.9.55a.59.59,0,0,0,.55,0l.89-.54a.18.18,0,0,0,0-.33l-.9-.55a.55.55,0,0,0-.54,0l-.9.53C144,172.85,144,173,144.15,173.09Z"/><path class="cls-19" d="M141.11,171.57l-1.05-.65a.36.36,0,0,0-.35,0l-1.31.78c-.1.06-.11.15,0,.21l1.06.65a.36.36,0,0,0,.35,0l1.31-.78C141.2,171.72,141.21,171.63,141.11,171.57Z"/><path class="cls-19" d="M142.75,172.57l-1.07-.65a.36.36,0,0,0-.35,0l-1.32.78a.12.12,0,0,0,0,.22l1.07.66a.36.36,0,0,0,.35,0l1.32-.79C142.84,172.73,142.85,172.63,142.75,172.57Z"/><path class="cls-19" d="M144.41,173.59l-1.09-.67a.39.39,0,0,0-.35,0l-1.32.79c-.1.06-.11.15,0,.21l1.07.67a.38.38,0,0,0,.36,0l1.33-.8C144.5,173.74,144.5,173.65,144.41,173.59Z"/><path class="cls-19" d="M146.46,174.85l-1.47-.91a.41.41,0,0,0-.36,0l-1.33.79a.12.12,0,0,0,0,.22l1.48.92a.38.38,0,0,0,.36,0l1.33-.81A.12.12,0,0,0,146.46,174.85Z"/><path class="cls-19" d="M157.43,181.58l-1.6-1a.4.4,0,0,0-.37,0l-1.36.85c-.1.06-.1.16,0,.23l1.6,1a.4.4,0,0,0,.37,0l1.36-.85A.13.13,0,0,0,157.43,181.58Z"/><path class="cls-19" d="M159.27,182.71l-1.18-.72a.37.37,0,0,0-.38,0l-1.36.85a.13.13,0,0,0,0,.24l1.17.73a.37.37,0,0,0,.38,0l1.37-.86C159.38,182.89,159.38,182.78,159.27,182.71Z"/><path class="cls-19" d="M160.27,184.42l-1.19-.74a.37.37,0,0,0-.38,0l-.5.31a.13.13,0,0,0,0,.24l1.19.74a.37.37,0,0,0,.38,0l.5-.31A.13.13,0,0,0,160.27,184.42Z"/><path class="cls-19" d="M164.06,186.75l-1.23-.75a.4.4,0,0,0-.38,0l-.5.32c-.11.07-.1.18,0,.25l1.22.76a.39.39,0,0,0,.39,0l.5-.32A.14.14,0,0,0,164.06,186.75Z"/><path class="cls-19" d="M162.15,185.58l-1.21-.75a.37.37,0,0,0-.38,0l-.5.31a.14.14,0,0,0,0,.25l1.21.75a.42.42,0,0,0,.38,0l.5-.32A.13.13,0,0,0,162.15,185.58Z"/><path class="cls-19" d="M161,184.77l1.21.74a.4.4,0,0,0,.38,0l.5-.32a.13.13,0,0,0,0-.24l-1.21-.74a.4.4,0,0,0-.38,0l-.5.32C160.93,184.59,160.93,184.7,161,184.77Z"/><path class="cls-19" d="M155.12,180.17l-8.07-5a.38.38,0,0,0-.36,0l-1.33.81c-.11.06-.11.16,0,.22l8.05,5a.4.4,0,0,0,.37,0l1.35-.84C155.23,180.33,155.23,180.23,155.12,180.17Z"/><path class="cls-19" d="M140.42,170.8l2.87,1.76a.57.57,0,0,0,.54,0l.89-.54c.15-.09.16-.23,0-.32L141.86,170a.58.58,0,0,0-.53,0l-.89.52C140.29,170.57,140.28,170.72,140.42,170.8Z"/><path class="cls-19" d="M145.81,174.11l.92.56a.55.55,0,0,0,.54,0l.9-.54a.18.18,0,0,0,0-.33l-.92-.56a.55.55,0,0,0-.54,0l-.9.54A.18.18,0,0,0,145.81,174.11Z"/><path class="cls-19" d="M147.5,175.14l.92.56a.54.54,0,0,0,.55,0l.9-.55a.18.18,0,0,0,0-.33l-.93-.56a.59.59,0,0,0-.55,0l-.9.54A.18.18,0,0,0,147.5,175.14Z"/><path class="cls-19" d="M149.2,176.18l.93.57a.56.56,0,0,0,.56,0l.91-.55a.18.18,0,0,0,0-.34l-.94-.57a.59.59,0,0,0-.55,0l-.91.55A.18.18,0,0,0,149.2,176.18Z"/><path class="cls-19" d="M150.92,177.24l1,.58a.61.61,0,0,0,.56,0l.91-.56a.18.18,0,0,0,0-.34l-1-.58a.59.59,0,0,0-.55,0l-.91.56A.18.18,0,0,0,150.92,177.24Z"/><path class="cls-19" d="M152.67,178.31l1,.58a.58.58,0,0,0,.57,0l.91-.56a.19.19,0,0,0,0-.35l-1-.58a.61.61,0,0,0-.56,0l-.91.56A.19.19,0,0,0,152.67,178.31Z"/><path class="cls-19" d="M154.43,179.39l1,.59a.58.58,0,0,0,.57,0l.91-.57c.16-.09.15-.25,0-.35l-1-.59a.61.61,0,0,0-.56,0l-.91.57A.19.19,0,0,0,154.43,179.39Z"/><path class="cls-19" d="M156.22,180.48l1,.6a.61.61,0,0,0,.57,0l.92-.58a.19.19,0,0,0,0-.35l-1-.6a.56.56,0,0,0-.56,0l-.92.57A.19.19,0,0,0,156.22,180.48Z"/><path class="cls-19" d="M158,181.59l1,.61a.6.6,0,0,0,.58,0l.92-.58a.19.19,0,0,0,0-.35l-1-.61a.58.58,0,0,0-.57,0l-.92.58C157.86,181.33,157.87,181.49,158,181.59Z"/><path class="cls-19" d="M162.35,182.39l-1-.62a.58.58,0,0,0-.57,0l-.92.58c-.16.1-.15.26,0,.36l1,.62a.6.6,0,0,0,.58,0l.92-.58C162.53,182.65,162.52,182.49,162.35,182.39Z"/><path class="cls-19" d="M166.59,185l-3.39-2a.6.6,0,0,0-.58,0l-.92.59c-.16.1-.15.26,0,.36l3.38,2.07a.62.62,0,0,0,.59,0l.93-.6C166.77,185.22,166.76,185.06,166.59,185Z"/><path class="cls-19" d="M170,182.72l-1-.62a.6.6,0,0,0-.58,0l-.92.59c-.15.1-.14.26,0,.36l1,.62a.62.62,0,0,0,.59,0l.91-.59C170.16,183,170.15,182.82,170,182.72Z"/><path class="cls-19" d="M152.68,170.5l-.92-.54a.57.57,0,0,0-.54,0l-.88.53a.17.17,0,0,0,0,.32l.92.54a.57.57,0,0,0,.54,0l.88-.54A.17.17,0,0,0,152.68,170.5Z"/><path class="cls-19" d="M154.39,171.5l-.93-.54a.57.57,0,0,0-.54,0l-.89.53c-.15.1-.15.24,0,.33l.93.55a.59.59,0,0,0,.55,0l.89-.54C154.55,171.74,154.54,171.59,154.39,171.5Z"/><path class="cls-19" d="M156.12,172.52l-.94-.56a.59.59,0,0,0-.55,0l-.89.54a.18.18,0,0,0,0,.33l.94.55a.59.59,0,0,0,.55,0l.89-.54C156.28,172.75,156.28,172.61,156.12,172.52Z"/><path class="cls-19" d="M157.87,173.54l-1-.56a.57.57,0,0,0-.55,0l-.89.54a.18.18,0,0,0,0,.33l1,.57a.57.57,0,0,0,.55,0l.89-.55A.18.18,0,0,0,157.87,173.54Z"/><path class="cls-19" d="M159.65,174.58l-1-.57a.57.57,0,0,0-.55,0l-.9.55a.18.18,0,0,0,0,.33l1,.57a.61.61,0,0,0,.56,0l.9-.55A.18.18,0,0,0,159.65,174.58Z"/><path class="cls-19" d="M161.44,175.63l-1-.57a.61.61,0,0,0-.56,0l-.89.55a.18.18,0,0,0,0,.34l1,.58a.64.64,0,0,0,.57,0l.9-.56C161.61,175.88,161.6,175.72,161.44,175.63Z"/><path class="cls-19" d="M163.26,176.69l-1-.57a.58.58,0,0,0-.57,0l-.9.56c-.15.09-.14.24,0,.34l1,.58a.56.56,0,0,0,.56,0l.9-.56C163.43,176.94,163.42,176.79,163.26,176.69Z"/><path class="cls-19" d="M165.1,177.77l-1-.59a.59.59,0,0,0-.56,0l-.91.56c-.15.1-.14.25,0,.35l1,.59a.64.64,0,0,0,.57,0l.91-.57C165.27,178,165.26,177.87,165.1,177.77Z"/><path class="cls-19" d="M165.5,179.79a.64.64,0,0,0,.57,0l.91-.58c.15-.09.14-.25,0-.35l-1-.59a.58.58,0,0,0-.57,0l-.9.57c-.16.09-.15.25,0,.35Z"/><path class="cls-19" d="M168.84,180l-1-.61a.64.64,0,0,0-.57,0l-.91.58c-.15.1-.14.25,0,.35l1,.61a.6.6,0,0,0,.58,0l.91-.58C169,180.22,169,180.06,168.84,180Z"/><path class="cls-19" d="M171.83,181.72l-2.18-1.28a.37.37,0,0,0-.38,0l-1.11.71c-.09.06-.09.16,0,.22l2.18,1.29a.4.4,0,0,0,.38,0l1.11-.72C172,181.88,171.94,181.78,171.83,181.72Z"/><path class="cls-11" d="M169.88,258.17c-2.89.85-5.58,2.44-8.53,3.18-2.59.84-5.22,1.47-7.85,2.16a13.62,13.62,0,0,0-4.75,2c-.63.47-.52,1.45-.46,2.14.11,1.15,1.65,1.72,2.56,2a8.6,8.6,0,0,0,4,.42,12.75,12.75,0,0,0,4.78-2.14c1.39-.87,2.81-1.7,4.28-2.43s2.95-1.2,4.4-1.87a3.87,3.87,0,0,0,2.58-3.18,5.06,5.06,0,0,0,0-1.23,1.76,1.76,0,0,0-.5-1,.43.43,0,0,0-.22-.12.42.42,0,0,0-.19,0Z"/><path class="cls-12" d="M166.6,255.85a13,13,0,0,0-1.39,0c-1.13.08-2.25.27-3.38.38a18.62,18.62,0,0,1-3.58-.1c-.38,0-.75-.07-1.13-.08a9,9,0,0,0-7.56,4.51s0,0,0,0c-1.25.52-.74,2.22-.85,3.26a13.37,13.37,0,0,0-.37,2.25,1.89,1.89,0,0,0,1,1.34,7.86,7.86,0,0,0,6.44,1.15,21.43,21.43,0,0,0,4.58-2.32,44.87,44.87,0,0,1,5.74-2.92,15.6,15.6,0,0,0,3.07-1.36c1.2-.81,2.14-2.22,1.5-3.68A4.29,4.29,0,0,0,166.6,255.85Z"/><path class="cls-23" d="M164.53,258.06a13.23,13.23,0,0,0-3-1.8,20.48,20.48,0,0,1-3.32-.11c-.38,0-.75-.07-1.13-.08a5.51,5.51,0,0,0-1.33.84.34.34,0,0,0-.09.15l-.11.14a2.5,2.5,0,0,0-.46.83,2.13,2.13,0,0,0,.4,1.86,5,5,0,0,0,1.28,1.48,2.31,2.31,0,0,0,.84.39,1,1,0,0,0,.86-.09.15.15,0,0,0,.05-.13,13,13,0,0,1,4.57-1.28c.6-.08,1.59-.16,2-.68S164.94,258.38,164.53,258.06Z"/><path class="cls-11" d="M155.61,249c-2.9.86-5.59,2.45-8.54,3.19-2.59.84-5.22,1.46-7.85,2.15a13.79,13.79,0,0,0-4.74,2c-.63.47-.52,1.45-.46,2.14.1,1.15,1.64,1.71,2.56,2a8.58,8.58,0,0,0,4,.41,12.58,12.58,0,0,0,4.78-2.14c1.39-.86,2.81-1.7,4.28-2.43s2.94-1.2,4.39-1.86a3.84,3.84,0,0,0,2.58-3.18,5.07,5.07,0,0,0,0-1.23,1.77,1.77,0,0,0-.51-1,.38.38,0,0,0-.21-.12.46.46,0,0,0-.2,0Z"/><path class="cls-12" d="M152.33,246.72a10.75,10.75,0,0,0-1.39,0c-1.14.08-2.26.28-3.39.38A17.87,17.87,0,0,1,144,247c-.37,0-.75-.06-1.13-.07a8.93,8.93,0,0,0-7.55,4.5h0c-1.24.53-.74,2.22-.84,3.26a12.57,12.57,0,0,0-.37,2.25,1.87,1.87,0,0,0,.95,1.35,7.84,7.84,0,0,0,6.45,1.14,21.14,21.14,0,0,0,4.57-2.32,47.75,47.75,0,0,1,5.75-2.92,16.08,16.08,0,0,0,3.06-1.35c1.21-.82,2.15-2.23,1.5-3.68A4.25,4.25,0,0,0,152.33,246.72Z"/><path class="cls-23" d="M150.12,250.64c.42-.54-.19-1.21-.6-1.53a12.62,12.62,0,0,0-3.36-2c-.73,0-1.45-.08-2.19-.15-.37,0-.75-.06-1.13-.07l-.29,0a5.29,5.29,0,0,0-1.77,1,.3.3,0,0,0-.09.15l-.11.14a2.6,2.6,0,0,0-.46.83,2.13,2.13,0,0,0,.4,1.86,5,5,0,0,0,1.28,1.48,2.33,2.33,0,0,0,.84.4,1.07,1.07,0,0,0,.86-.1.15.15,0,0,0,.05-.13,13,13,0,0,1,4.57-1.28C148.72,251.23,149.71,251.16,150.12,250.64Z"/><g class="cls-2"><path class="cls-9" d="M94.38,264.52a2.16,2.16,0,0,1,1.83-.07l17.07,8.82,15-11,.09-.06c.41-.24,1.36-1.07,1.91-.92s.65,1.43.32,1.83L120.51,275.4l24.83,3.53c.15,0,.61-.64.73-.58.37.16.26,1.14.2,1.43a.72.72,0,0,1-.39.48,2.18,2.18,0,0,1-1.13.23L119.21,280l2.63,11.14V292a.66.66,0,0,1-.4.65,2,2,0,0,1-.55.2,1.72,1.72,0,0,1-1.73-.52l-8-11.55-20.76,5.42a2.07,2.07,0,0,1-1.67-.22c-.45-.32-.61-1.42-.11-1.71,0,0,.49-.08.52-.1l18.38-7.58-13.29-11c-.38-.28-.59-1.42-.2-1.72,0,0,.27.69.31.67"/></g><path class="cls-10" d="M145,273.21c1.48-.86,2.67-.16,2.68,1.53a5.87,5.87,0,0,1-2.66,4.61c-1.48.85-2.67.17-2.68-1.53a5.89,5.89,0,0,1,2.66-4.61"/><polygon class="cls-10" points="145.76 281.09 143.19 279.58 146.87 273.03 149.54 274.58 145.76 281.09"/><path class="cls-10" d="M147.67,274.79c1.48-.86,2.68-.17,2.69,1.52a5.9,5.9,0,0,1-2.67,4.62c-1.47.85-2.66.16-2.67-1.54a5.87,5.87,0,0,1,2.65-4.6"/><path class="cls-11" d="M147.68,275c1.39-.81,2.52-.15,2.52,1.44a5.48,5.48,0,0,1-2.51,4.35c-1.39.8-2.51.16-2.52-1.44a5.54,5.54,0,0,1,2.51-4.35"/><path class="cls-10" d="M119.55,286c1.48-.86,2.68-.17,2.68,1.52a5.84,5.84,0,0,1-2.66,4.62c-1.47.85-2.67.17-2.67-1.54a5.84,5.84,0,0,1,2.65-4.6"/><polygon class="cls-10" points="120.34 293.9 117.77 292.39 121.46 285.84 124.12 287.39 120.34 293.9"/><path class="cls-10" d="M122.26,287.6c1.48-.86,2.67-.17,2.68,1.52a5.9,5.9,0,0,1-2.67,4.62c-1.47.84-2.66.16-2.67-1.54a5.86,5.86,0,0,1,2.66-4.6"/><path class="cls-11" d="M122.26,287.77c1.39-.81,2.52-.15,2.53,1.44a5.53,5.53,0,0,1-2.52,4.35c-1.38.8-2.51.16-2.52-1.44a5.54,5.54,0,0,1,2.51-4.35"/><path class="cls-10" d="M88.35,279.39c1.48-.86,2.67-.17,2.68,1.52a5.85,5.85,0,0,1-2.67,4.62c-1.47.85-2.66.17-2.67-1.54a5.88,5.88,0,0,1,2.66-4.6"/><polygon class="cls-10" points="89.14 287.27 86.57 285.76 90.25 279.21 92.92 280.76 89.14 287.27"/><path class="cls-10" d="M91.05,281c1.48-.86,2.68-.17,2.68,1.52a5.86,5.86,0,0,1-2.66,4.62c-1.47.84-2.67.16-2.67-1.54a5.85,5.85,0,0,1,2.65-4.6"/><path class="cls-11" d="M91.05,281.14c1.4-.81,2.53-.15,2.53,1.44a5.49,5.49,0,0,1-2.51,4.35c-1.39.8-2.51.16-2.52-1.44a5.56,5.56,0,0,1,2.5-4.35"/><path class="cls-10" d="M93.17,259.55c1.48-.86,2.67-.16,2.68,1.53a5.87,5.87,0,0,1-2.66,4.61c-1.47.85-2.67.17-2.67-1.53a5.86,5.86,0,0,1,2.65-4.61"/><polygon class="cls-10" points="93.96 267.43 91.39 265.92 95.08 259.37 97.74 260.92 93.96 267.43"/><path class="cls-10" d="M95.88,261.13c1.48-.86,2.67-.17,2.68,1.52a5.9,5.9,0,0,1-2.67,4.62c-1.47.85-2.66.16-2.67-1.54a5.83,5.83,0,0,1,2.66-4.6"/><path class="cls-11" d="M95.88,261.3c1.39-.81,2.52-.15,2.53,1.44a5.51,5.51,0,0,1-2.52,4.35c-1.39.8-2.51.16-2.52-1.44a5.54,5.54,0,0,1,2.51-4.35"/><path class="cls-10" d="M129,256.21c1.48-.86,2.67-.17,2.68,1.52a5.89,5.89,0,0,1-2.66,4.62c-1.48.84-2.67.16-2.68-1.54a5.86,5.86,0,0,1,2.66-4.6"/><polygon class="cls-10" points="129.82 264.09 127.25 262.58 130.93 256.02 133.6 257.58 129.82 264.09"/><path class="cls-10" d="M131.73,257.78c1.48-.85,2.68-.16,2.68,1.53a5.83,5.83,0,0,1-2.66,4.61c-1.47.85-2.66.17-2.67-1.53a5.88,5.88,0,0,1,2.65-4.61"/><path class="cls-11" d="M131.74,258c1.39-.81,2.52-.16,2.52,1.44a5.51,5.51,0,0,1-2.51,4.35c-1.39.8-2.51.16-2.52-1.45a5.54,5.54,0,0,1,2.51-4.34"/><path class="cls-18" d="M94.38,259.11a2.16,2.16,0,0,1,1.83-.06l17.07,7.15,15-9.37.09-.05c.41-.24,1.36-1.08,1.91-.92s.65,1.43.32,1.82l-10.09,10.65,24.83,5.2c.15,0,.61-.64.73-.59.37.17.26,1.15.2,1.43a.7.7,0,0,1-.39.48,2,2,0,0,1-1.13.23L119.21,273l2.63,12.81v.82a.66.66,0,0,1-.4.65,2,2,0,0,1-.55.19,1.69,1.69,0,0,1-1.73-.51l-8-13.22-20.76,7.09a2.07,2.07,0,0,1-1.67-.22c-.45-.32-.61-1.43-.11-1.71,0,0,.49-.09.52-.1l18.38-9.25-13.29-9.34c-.38-.28-.59-1.43-.2-1.73,0,0,.27.7.31.67"/><path class="cls-19" d="M94.38,258.17a2.16,2.16,0,0,1,1.83-.07l17.07,5.19,15-7.34.09-.06a2.19,2.19,0,0,1,1.59-.16c.68.19,1,.67.64,1.07l-10.09,8.61,24.83,7.2c.6.11,1,.46.93.85a.74.74,0,0,1-.39.48,2.18,2.18,0,0,1-1.13.23l-25.54-4.12,2.63,15.65a.66.66,0,0,1-.4.65,1.93,1.93,0,0,1-2.28-.32l-8-15.24L90.44,280a2.07,2.07,0,0,1-1.67-.22c-.45-.32-.39-.78.11-1.07l.1-.05,18.58-12.05-13.29-7.37a.56.56,0,0,1,0-1l.11-.07"/><path class="cls-18" d="M118.65,258.28v8h0a2.29,2.29,0,0,1-1.34,1.84,7,7,0,0,1-6.36,0,2.24,2.24,0,0,1-1.32-1.84v-7.81Z"/><path class="cls-19" d="M111,256.61a7,7,0,0,1,6.38,0c1.76,1,1.74,2.67,0,3.69a7,7,0,0,1-6.36,0c-1.75-1-1.76-2.67,0-3.69"/><path class="cls-16" d="M118.27,251.05v7.32h0a2.09,2.09,0,0,1-1.22,1.69,6.44,6.44,0,0,1-5.83,0,2.06,2.06,0,0,1-1.21-1.69v-7.16Z"/><path class="cls-18" d="M111.22,249.52a6.44,6.44,0,0,1,5.86,0c1.61.93,1.58,2.45,0,3.38a6.38,6.38,0,0,1-5.83,0c-1.61-.93-1.62-2.45,0-3.38"/><path class="cls-10" d="M97.9,232.2c7.55,11.1,35.42-14.41,35.42-14.41-1.93,8.76,2.93,14.5,1.27,32.49a1.53,1.53,0,0,0,.3,1.05,6,6,0,0,0,3.47,2.42,6.49,6.49,0,0,0,5.48-1.18,1.38,1.38,0,0,0,.5-1c.34-3.37,2.21-22.39,2.48-29.26.21-5.29,1.07-16.24-7.53-18.08-6.21-1.33-26.8,6.74-26.8,6.74S89.55,219.94,97.9,232.2Z"/><path class="cls-23" d="M150.49,228.75,124.6,213.8a17,17,0,0,0-14.94-.21L81.51,228.42c-4.57,2.42-4.71,6.56-.33,9.09L109.7,254c4.39,2.54,11.54,2.44,15.68-.22L150.9,237.4c3.87-2.48,3.69-6.28-.41-8.65"/><path class="cls-24" d="M80.73,228.88c.25-.16.51-.31.78-.46l28.15-14.83a17,17,0,0,1,14.94.21l25.89,14.95A7.3,7.3,0,0,1,153,231c-2.32,2.71-7.55,3.9-10.46,5.09-5.25,2.16-9.87,5.5-14.56,8.64-2.32,1.55-4.6,3.32-7.35,4a16,16,0,0,1-8.8-.44c-4.75-1.65-8.43-5.55-12.7-8.09A48.34,48.34,0,0,0,91,236.29a73,73,0,0,1-6.79-3A5.82,5.82,0,0,1,80.86,230,3.93,3.93,0,0,1,80.73,228.88Z"/><path class="cls-25" d="M126.12,143.8c0-.61-1.39-3.26-2.05-4.46-.58-3.92-1.22-7.08-1.22-7.08-4.43-3.76-15,12.54-15,12.54l-1.14,15c5.68,5.23,11,2.27,11,2.27.11-6.8,4.55-5.49,6.56-8.45.86-1.27.86-4.68.53-8.41C125.42,144.78,126.1,144.23,126.12,143.8Z"/><path class="cls-11" d="M107.1,156.46c5.46,1.65,8.53-.84,10.06-5.4,0,0,.36-.55-1.73-1.17s-2.91-7.09-.76-6.58,2,3.45,3,3.69,1.43-.61.74-2.66,3.28-2.53,2-4.9a4.34,4.34,0,0,1,2.09-6.18c2.48-1.17.89-10.72-1-10.17s-2.29,2.47-3.42.27-2-3.86-3.73-2.89-.63,2.26-2.62,1.45-2.4-.24-3.09,1.17.47,2.25-1.82,2.45-1.55,2.22-3.73,4.13-6.08,2.82-5.7,9.54S102.17,155,107.1,156.46Z"/><path class="cls-12" d="M126.7,150.3c-.06-.25-.31-.25-.52-.26l-1,0a16.79,16.79,0,0,1-2.74-.32,13,13,0,0,1-1.95-.63c-.31-.12-.62-.26-.92-.4a4.06,4.06,0,0,0-.86-.37.35.35,0,0,0-.42.3c-.08.4.44.58.71.72a11.41,11.41,0,0,0,1.27.61,13.35,13.35,0,0,0,5.25,1.1,2.48,2.48,0,0,0,.81-.16.44.44,0,0,0,.33-.43A.49.49,0,0,0,126.7,150.3Z"/><path class="cls-10" d="M129.48,150.28a1.05,1.05,0,0,0-.64-.94,1.48,1.48,0,0,0-.47-.05,9.17,9.17,0,0,0-1.38.11,1.83,1.83,0,0,0-1.18.5,1,1,0,0,0,0,1,1,1,0,0,0,.85.53,5.69,5.69,0,0,0,1.93,0,1.05,1.05,0,0,0,.93-.92A1.93,1.93,0,0,0,129.48,150.28Z"/><path class="cls-10" d="M115.61,142.72c1.62-.94,2.93-.18,2.93,1.67a6.37,6.37,0,0,1-2.91,5c-1.61.93-2.92.19-2.92-1.67a6.4,6.4,0,0,1,2.9-5"/><polygon class="cls-10" points="116.48 151.34 113.67 149.69 117.69 142.52 120.61 144.22 116.48 151.34"/><path class="cls-10" d="M118.57,144.44c1.62-.93,2.93-.17,2.93,1.67a6.4,6.4,0,0,1-2.91,5c-1.61.93-2.92.18-2.92-1.68a6.4,6.4,0,0,1,2.9-5"/><path class="cls-11" d="M118.57,144.63c1.53-.88,2.76-.16,2.77,1.58a6.05,6.05,0,0,1-2.75,4.76c-1.52.87-2.75.17-2.76-1.58a6.07,6.07,0,0,1,2.74-4.76"/><path class="cls-26" d="M118.57,145.08c1.25-.76,2.25-.14,2.26,1.35a5.28,5.28,0,0,1-2.24,4.09c-1.24.75-2.25.15-2.25-1.36a5.29,5.29,0,0,1,2.23-4.08"/><path class="cls-25" d="M102.84,182.25l-.47,5q5.92-2.43,11.82-4.91a57.73,57.73,0,0,0,5.29-2.47,15.71,15.71,0,0,0,2.67-1.67,4.27,4.27,0,0,0,1.41-3c.08-.61.44-1.52,1.21-1.39.49.09.65.79,1.07.74a3.4,3.4,0,0,0,1.36-.73,5.79,5.79,0,0,1,1.37-.82,3.22,3.22,0,0,1,1.68-.23.78.78,0,0,1,.36.16.3.3,0,0,1,0,.37,2.68,2.68,0,0,1,1.29-.06,1,1,0,0,1,.55.26.48.48,0,0,1,.09.56,2.37,2.37,0,0,1,.92,0,1,1,0,0,1,.7.54,1.56,1.56,0,0,1-.27,1.25.82.82,0,0,1,.53-.06.55.55,0,0,1,.35.44,1,1,0,0,1-.09.59,2,2,0,0,1-.41.63,4.67,4.67,0,0,1-.6.48c-.9.64-1.76,1.29-2.69,1.88l-3.79,2.4c-2.66,1.69-5.47,3.25-8,5.11s-5.13,3.53-7.77,5.15a77.07,77.07,0,0,1-11.58,6.35,4.92,4.92,0,0,1-1.77.49c-4.73,0-6.45-4.65-5.85-14.81Z"/><path class="cls-27" d="M103.56,186.18s-4.19,2.47-12.36,2.6c0,0,.18-19.91,5.25-24.43S104.19,172.23,103.56,186.18Z"/><path class="cls-11" d="M153.21,211.72c-6.21-1.33-27.91,4.45-27.91,4.45l-30.92-3.5s-2.63,12.9.12,18.06,10.35,8.17,17.73,10.46c12.83,4,35.42-14.41,35.42-14.41l-.06.3h0l2.9,1.67c4.1,2.37,4.28,6.17.41,8.65l-2.59,1.66h0a67.89,67.89,0,0,1,1.08,20.52,1.49,1.49,0,0,0,.21.93,4.7,4.7,0,0,0,3.1,2.23,8.85,8.85,0,0,0,6.14-1.13,1.42,1.42,0,0,0,.69-1.15c.24-3.82,1.35-22.36,1.62-29.12C161.36,226.05,161.81,213.56,153.21,211.72Z"/><path class="cls-11" d="M94.38,212.67a64.43,64.43,0,0,0-1.11,9.56l15.12-8Z"/><path class="cls-23" d="M127.66,215.57l-3.06-1.77a17,17,0,0,0-14.94-.21l-1.27.67,16.91,1.91S126.2,215.93,127.66,215.57Z"/><path class="cls-28" d="M147.59,227.08h0l2.56,1.47h0c.07-.81.29-1.59.4-2.39.06-.43.18-.83-.15-1.19-.73-.78-2.2.07-2.94.36a85.19,85.19,0,0,0-9.93,4.74c-3.31,1.84-6.61,3.59-10.37,4.29a32.43,32.43,0,0,1-12.34.15c-3.9-.82-9.49-3.21-11.68-6.62-2.7-4.24-2.25-13.68-2.25-13.68a6.71,6.71,0,0,0-.26-.83l-6.25-.71s-2.63,12.9.12,18.06,10.35,8.17,17.73,10.46c12.83,4,35.42-14.41,35.42-14.41Z"/><path class="cls-28" d="M152.57,248.82c.05-4-.92-7.7-1.66-11.42h0l-2.59,1.66h0a67.89,67.89,0,0,1,1.08,20.52,1.49,1.49,0,0,0,.21.93,4.7,4.7,0,0,0,3.1,2.23c.2,0,.39.05.58.07a17.3,17.3,0,0,1-.24-1.9C152.76,257.05,152.53,252.67,152.57,248.82Z"/><path class="cls-13" d="M127.31,170.53s-5-6.28-9.62-8.47c0,0-3.29-.34-6.33-.56a9.51,9.51,0,0,1-4.63-1.71s-6.06,1.4-8.78,3.51-5.59,13-4.48,21.78a123.07,123.07,0,0,1,0,24.32c-.84,6.25,5.13,12,13,12.61,10.29.73,21.74-1.76,21.37-6.88C127,204,127.31,170.53,127.31,170.53Z"/><path class="cls-25" d="M132.06,195.42l.21,5.11q5.91-2.43,11.82-4.92a51.69,51.69,0,0,0,5.28-2.47,15,15,0,0,0,2.67-1.67,4.21,4.21,0,0,0,1.41-3c.08-.6.44-1.52,1.22-1.38.49.08.65.78,1.07.73a3.3,3.3,0,0,0,1.35-.73,6.21,6.21,0,0,1,1.38-.82,3.29,3.29,0,0,1,1.67-.23.67.67,0,0,1,.36.17.28.28,0,0,1,.05.36,2.81,2.81,0,0,1,1.29-.06,1.05,1.05,0,0,1,.54.26.46.46,0,0,1,.1.56,2.32,2.32,0,0,1,.91,0,1,1,0,0,1,.7.54,1.48,1.48,0,0,1-.27,1.25.84.84,0,0,1,.54-.06.55.55,0,0,1,.35.45,1.16,1.16,0,0,1-.09.58,2.21,2.21,0,0,1-.41.63,3.42,3.42,0,0,1-.6.48c-.91.64-1.76,1.29-2.69,1.88l-3.79,2.4c-2.66,1.69-5.48,3.26-8,5.11s-5.13,3.53-7.77,5.16a77,77,0,0,1-11.58,6.34,5,5,0,0,1-1.77.5c-4.73,0-6.72-5.19-6.12-15.35Z"/><path class="cls-27" d="M133.7,195.85a34.06,34.06,0,0,1-13.38,3.71s-1.22-22.84,3.59-28.27S133.55,180.05,133.7,195.85Z"/><path class="cls-29" d="M75.34,185.76a.72.72,0,0,0,.82-.06c.52,5.17,2.59,10.29,4.52,15.06,4.61,11.39,11.7,21.8,19.58,31.08,1.62,1.9,3,4.44,5.25,5.71a6.24,6.24,0,0,0,7.72-1.13,10.58,10.58,0,0,0,2.24-5.54,69.68,69.68,0,0,0,.4-16.07c-.42-4.91.21-10.12-1.56-14.82-1.49-4-4.61-7.17-8-9.58-3.56-2.52-7.56-4.28-11.45-6.2-3.47-1.73-7-4.17-10.9-4.69-2.49-.33-6.3-.41-8.35,1.34C74.13,182.12,73.45,184.6,75.34,185.76Z"/><path class="cls-23" d="M79.73,181.9l25.84,14.91a13.28,13.28,0,0,1,6,10.42l-.08,27.2c0,3.82-2.72,5.37-6.05,3.45L79.62,223a13.27,13.27,0,0,1-6-10.42l.08-27.19c0-3.84,2.73-5.38,6-3.45"/><path class="cls-19" d="M87.83,246.69l7.4,4.25-.86-46a.73.73,0,0,0-.36-.63l-6.68-3.9a.75.75,0,0,0-1.12.65v42.81A3.25,3.25,0,0,0,87.83,246.69Z"/><polygon class="cls-16" points="100.47 248.64 95.25 245.63 94.82 249.27 96.89 250.94 100.47 248.64"/><path class="cls-18" d="M100.47,248.64l-2.26,1.3c-1.63.94-2.95.19-3-1.68l-.08-43.48a1.19,1.19,0,0,0-.61-1.05l-6.47-3.65a.86.86,0,0,0-.81,0l-.62.33a.9.9,0,0,1,.67,0l6.42,3.78a1.21,1.21,0,0,1,.6,1l.08,43.5c0,2.39,1.7,3.35,3.78,2.15l3.08-1.77Z"/><polygon class="cls-16" points="132.95 249.52 132.3 249.32 131.46 231.01 134.26 230.67 132.95 249.52"/><polygon class="cls-18" points="132.95 249.52 132.86 230.49 138.24 227.89 137.09 247.13 132.95 249.52"/><path class="cls-18" d="M145.56,225.76v-1.58l-.62.21-.81-1.79a.81.81,0,0,0-.35-.36,2.11,2.11,0,0,0-1.91,0l-13,7.54-4.82,1.62v1.53h0a.73.73,0,0,0,.4.53,1.68,1.68,0,0,0,.62.2l5.45.82c.45.26,4.17-1.49,8.31-3.9S146,226,145.56,225.76Z"/><path class="cls-19" d="M143.78,220.67a2.11,2.11,0,0,0-1.91,0l-17.41,10.12c-.55.32-.49.82,0,1.11a1.88,1.88,0,0,0,.62.2l5.45.82c.45.25,4.17-1.49,8.31-3.9s7.15-4.57,6.71-4.83L144.13,221a.84.84,0,0,0-.35-.35"/><path class="cls-27" d="M105.07,160.22l1.82-2.6A23.56,23.56,0,0,0,118,159.53l1.33,3.43S109.25,164.07,105.07,160.22Z"/><path class="cls-10" d="M114.45,145.82s1-7.52-2.25-11-9.41-5.09-11.19-3.6a6.18,6.18,0,0,1,3.45-3.34s12.87-3.93,13.55,15.62Z"/></g></g></g></svg>